<svg xmlns="http://www.w3.org/2000/svg" viewBox="0 0 15 20">
  <defs>
    <style>
      .cls-1 {
        fill: #707070;
      }
    </style>
  </defs>
  <path id="file-alt" class="cls-1" d="M11.25,9.688v1.094a.47.47,0,0,1-.469.469H4.219a.47.47,0,0,1-.469-.469V9.688a.47.47,0,0,1,.469-.469h6.563A.47.47,0,0,1,11.25,9.688ZM10.781,12.5H4.219a.47.47,0,0,0-.469.469v1.094a.47.47,0,0,0,.469.469h6.563a.47.47,0,0,0,.469-.469V12.969A.47.47,0,0,0,10.781,12.5ZM15,5.152V18.125A1.875,1.875,0,0,1,13.125,20H1.875A1.875,1.875,0,0,1,0,18.125V1.875A1.875,1.875,0,0,1,1.875,0H9.848a1.875,1.875,0,0,1,1.324.551l3.277,3.277A1.868,1.868,0,0,1,15,5.152ZM10,2.027V5h2.973L10,2.027Zm3.125,16.1V6.875H9.063a.935.935,0,0,1-.937-.937V1.875H1.875v16.25Z"/>
</svg>
