<svg xmlns="http://www.w3.org/2000/svg" viewBox="0 0 20.512 20">
  <defs>
    <style>
      .cls-1 {
        fill: #707070;
      }
    </style>
  </defs>
  <path id="github" class="cls-1" d="M6.861,24.1c0,.083-.1.149-.215.149-.136.012-.232-.054-.232-.149s.1-.149.215-.149S6.861,24.009,6.861,24.1Zm-1.286-.186c-.029.083.054.178.178.2a.194.194,0,0,0,.256-.083c.025-.083-.054-.178-.178-.215a.212.212,0,0,0-.256.1Zm1.828-.07c-.12.029-.2.108-.19.2s.12.136.244.108.2-.108.19-.19S7.523,23.835,7.4,23.848ZM10.124,8A9.917,9.917,0,0,0,0,18.091a10.368,10.368,0,0,0,7.01,9.892c.529.1.715-.232.715-.5s-.012-1.671-.012-2.539c0,0-2.895.62-3.5-1.232,0,0-.471-1.2-1.15-1.514,0,0-.947-.649.066-.637a2.183,2.183,0,0,1,1.6,1.067,2.186,2.186,0,0,0,3.015.864A2.3,2.3,0,0,1,8.4,22.1c-2.312-.256-4.644-.591-4.644-4.57a3.134,3.134,0,0,1,.976-2.436,3.907,3.907,0,0,1,.108-2.808C5.7,12.016,7.692,13.4,7.692,13.4a9.77,9.77,0,0,1,5.194,0s1.989-1.39,2.854-1.117a3.906,3.906,0,0,1,.108,2.808,3.215,3.215,0,0,1,1.067,2.436c0,3.991-2.436,4.309-4.748,4.57a2.446,2.446,0,0,1,.7,1.919c0,1.394-.012,3.118-.012,3.457,0,.269.19.6.715.5a10.273,10.273,0,0,0,6.94-9.884A10.14,10.14,0,0,0,10.124,8ZM4.02,22.264c-.054.041-.041.136.029.215s.161.1.215.041.041-.136-.029-.215S4.074,22.21,4.02,22.264Zm-.447-.335c-.029.054.012.12.1.161a.123.123,0,0,0,.178-.029c.029-.054-.012-.12-.1-.161C3.668,21.875,3.6,21.887,3.573,21.929ZM4.913,23.4c-.066.054-.041.178.054.256.1.1.215.108.269.041s.029-.178-.054-.256C5.091,23.347,4.967,23.335,4.913,23.4Zm-.471-.608c-.066.041-.066.149,0,.244s.178.136.232.1a.189.189,0,0,0,0-.256C4.615,22.781,4.508,22.739,4.442,22.793Z" transform="translate(0 -8)"/>
</svg>
