<svg xmlns="http://www.w3.org/2000/svg" viewBox="0 0 98.2 90.47"><defs><style>.cls-1{fill:#474747;}.cls-2{fill:#999;}</style></defs><title>diamond-logo-thick-color_1</title><g id="Layer_2" data-name="Layer 2"><g id="expanded"><path class="cls-1" d="M36.51,28.35a1,1,0,0,1-.74-.31,1.06,1.06,0,0,1,0-1.49l1.87-1.87a1.06,1.06,0,0,1,.75-.31H60.2a1.05,1.05,0,0,1,.74.31l1.87,1.87a1,1,0,0,1,0,1.49,1.06,1.06,0,0,1-1.49,0l-1.56-1.56H38.83L37.26,28A1.05,1.05,0,0,1,36.51,28.35Z"/><path class="cls-2" d="M42.08,23.49A1.54,1.54,0,1,1,43.62,22,1.54,1.54,0,0,1,42.08,23.49Z"/><path class="cls-2" d="M56.11,23.49A1.54,1.54,0,1,1,57.65,22,1.54,1.54,0,0,1,56.11,23.49Z"/><path class="cls-1" d="M59.81,66.1H38a1.06,1.06,0,0,1-.75-.31l-1.87-1.87a1.07,1.07,0,0,1,0-1.5,1.06,1.06,0,0,1,1.49,0L38.44,64H59.37l1.56-1.57a1.06,1.06,0,0,1,1.5,1.5l-1.88,1.87A1,1,0,0,1,59.81,66.1Z"/><path class="cls-2" d="M56.11,70.05a1.54,1.54,0,1,1,1.54-1.53A1.54,1.54,0,0,1,56.11,70.05Z"/><path class="cls-2" d="M42,70a1.53,1.53,0,1,1,1.53-1.53A1.53,1.53,0,0,1,42,70Z"/><path class="cls-2" d="M41.82,39.43a4.64,4.64,0,0,1,3.38,1.18,3.63,3.63,0,0,1,1,2.65v0a3.6,3.6,0,0,1-2.48,3.59l2.56,3.75a.24.24,0,0,1-.2.39H43.69a.26.26,0,0,1-.21-.11l-2.41-3.6H39.32a.25.25,0,0,0-.25.25v3.21a.25.25,0,0,1-.25.25h-2a.25.25,0,0,1-.25-.25V39.68a.25.25,0,0,1,.25-.25h5m-2.75,5.64h2.58c1.25,0,2-.66,2-1.64v0c0-1.09-.76-1.65-2-1.65H39.32a.25.25,0,0,0-.25.25v3.08m2.75-7.75h-5.3a2.11,2.11,0,0,0-2.11,2.11V51a2.1,2.1,0,0,0,2.11,2.11h2.55a2.11,2.11,0,0,0,2.1-1.89l.64,1a2.1,2.1,0,0,0,1.75.93h3a2.1,2.1,0,0,0,1.74-3.3l-1.61-2.36a6.2,6.2,0,0,0,0-8.36,6.67,6.67,0,0,0-4.87-1.8Z"/><path class="cls-2" d="M61.68,39.43v2.11a.25.25,0,0,1-.25.25h-3a.25.25,0,0,0-.25.25v8.74a.25.25,0,0,1-.25.25h-2a.25.25,0,0,1-.25-.25V42a.25.25,0,0,0-.25-.25h-3a.25.25,0,0,1-.25-.25V39.68a.25.25,0,0,1,.25-.25h9.36m0-2.11H52.07A2.11,2.11,0,0,0,50,39.43v2.36a2.11,2.11,0,0,0,2.11,2.11h1.42V51a2.1,2.1,0,0,0,2.11,2.11h2.55A2.1,2.1,0,0,0,60.26,51V43.9h1.42a2.11,2.11,0,0,0,2.11-2.11V39.43a2.11,2.11,0,0,0-2.11-2.11Z"/><path class="cls-1" d="M45.25,2.29V6.85l-17.88,18L6.85,45.24,27.38,65.58l17.86,18v4.57L25.1,67.85,2.28,45.24,25.12,22.61,45.25,2.29m0-2.28a2.25,2.25,0,0,0-1.62.68L23.5,21,.68,43.62A2.24,2.24,0,0,0,0,45.24a2.27,2.27,0,0,0,.68,1.62L23.49,69.47,43.62,89.78a2.31,2.31,0,0,0,1.63.68,2.35,2.35,0,0,0,.86-.17,2.3,2.3,0,0,0,1.42-2.12V83.6a2.29,2.29,0,0,0-.66-1.6L29,64,10.09,45.24,29,26.51l17.89-18a2.31,2.31,0,0,0,.66-1.61V2.29A2.28,2.28,0,0,0,46.12.18,2.4,2.4,0,0,0,45.25,0Z"/><path class="cls-1" d="M52.94,2.28,73.1,22.62,95.91,45.23,73.08,67.86,52.94,88.19V83.62l17.87-18L91.35,45.23,70.81,24.89l-17.87-18V2.28m0-2.28a2.4,2.4,0,0,0-.87.17,2.29,2.29,0,0,0-1.41,2.11V6.85a2.27,2.27,0,0,0,.66,1.6l17.87,18L88.11,45.23,69.21,64,51.32,82a2.27,2.27,0,0,0-.66,1.61v4.57a2.28,2.28,0,0,0,1.41,2.11,2.36,2.36,0,0,0,.87.17,2.31,2.31,0,0,0,1.62-.68L74.7,69.46,97.52,46.85a2.27,2.27,0,0,0,0-3.24L74.7,21,54.56.68A2.25,2.25,0,0,0,52.94,0Z"/><path class="cls-1" d="M69.35,35.43l5.16,5.16-1.42,1.87,6,2.81-6.36,4,.62,1.34-4.27,4.23.22-19.4m0-2.11a2,2,0,0,0-.79.16,2.11,2.11,0,0,0-1.32,1.93L67,54.8a2.11,2.11,0,0,0,3.6,1.53l4.27-4.23a2.12,2.12,0,0,0,.56-2l4.81-3a2.12,2.12,0,0,0,1-1.92A2.08,2.08,0,0,0,80,43.36l-3.69-1.72A2.11,2.11,0,0,0,76,39.1l-5.17-5.16a2.07,2.07,0,0,0-1.49-.62Z"/><path class="cls-1" d="M29.06,35.64,28.84,55l-5.16-5.16L25.11,48l-6.05-2.78,6.36-4-.63-1.35,4.27-4.22m0-2.11a2.1,2.1,0,0,0-1.48.61l-4.27,4.22a2.13,2.13,0,0,0-.56,2l-4.82,3.05a2.12,2.12,0,0,0-1,1.92,2.09,2.09,0,0,0,1.23,1.78l3.67,1.69a2.09,2.09,0,0,0,.34,2.53l5.16,5.16a2.13,2.13,0,0,0,1.49.62,2,2,0,0,0,.8-.16A2.1,2.1,0,0,0,31,55.06l.22-19.4a2.11,2.11,0,0,0-1.28-2,2,2,0,0,0-.83-.17Zm0,4.22h0Z"/></g></g></svg>