<svg xmlns="http://www.w3.org/2000/svg" viewBox="0 0 48.2 38.94"><defs><style>.cls-1{fill:#f2f2f2;}</style></defs><title>Asset 4</title><g id="rt-mountain" data-name="Layer 2"><g id="mountain_r_simple" data-name="mountain r simple"><path class="cls-1" d="M12.58.25V38.68a.25.25,0,0,0,.43.18l7.35-7.38a.26.26,0,0,0,.07-.17V.25A.25.25,0,0,0,20.18,0H12.83A.25.25,0,0,0,12.58.25Z"/><rect class="cls-1" width="7.88" height="7.99" rx="0.25" ry="0.25"/><path class="cls-1" d="M39.29,25.58a.24.24,0,0,1,.11-.37,12.2,12.2,0,0,0,8.15-12.1V13a12.36,12.36,0,0,0-3.38-9,14.48,14.48,0,0,0-9-3.86L32.71,0H25.6a.25.25,0,0,0-.25.25V7.74A.25.25,0,0,0,25.6,8H34c3,.54,4.78,2.38,4.78,5.46v.11c0,3.32-2.42,5.57-6.64,5.57H25.6a.25.25,0,0,0-.25.25V33a.25.25,0,0,0,.46.13L29.62,27A.25.25,0,0,1,30,27l6.29,10.1a.25.25,0,0,0,.39,0l2.47-2.61a.26.26,0,0,1,.3,0l8.34,4.45a.25.25,0,0,0,.32-.36Z"/></g></g></svg>