<svg xmlns="http://www.w3.org/2000/svg" viewBox="0 0 401 391.93"><defs><style>.cls-1{fill:#002428;}</style></defs><title>topographic-2</title><g id="Layer_2" data-name="Layer 2"><g id="Layer_1-2" data-name="Layer 1"><path class="cls-1" d="M186.42,2c2.69,2,5.74,4.3,8.54,6.76a9.45,9.45,0,0,1,.79.76l.23.23a12,12,0,0,0,1,1c6.24,5.58,12.9,8.66,18.76,8.66s10.75-2.88,14.62-8.54A35,35,0,0,0,235.11.63L234.63,0h-.19L234,.36a34.46,34.46,0,0,1-4.55,9.87c-3.67,5.32-8.26,8-13.66,8s-11.92-3-18-8.34c-.24-.22-.47-.47-.71-.72L196.84,9c-.35-.37-.72-.73-1.1-1.1C193,5.45,190,3.24,187.11,1.05L187,1,185.85.11,185.54,0h-.3l-.31.9,1,.72Z"/><path class="cls-1" d="M1.29,42.34l.06-.17C3.68,35.29,8.4,30.89,13,26.63,17,22.88,21.17,19,23.87,13.4A42.73,42.73,0,0,0,27.17.56L26.67,0h-.19L26,.45A41.32,41.32,0,0,1,22.8,12.9c-2.59,5.38-6.67,9.18-10.67,12.9-4.67,4.35-9.49,8.84-11.89,16a7.37,7.37,0,0,0-.23.71v.74l1,.13C1.07,43,1.19,42.65,1.29,42.34Z"/><path class="cls-1" d="M214.39,10.86a9.61,9.61,0,0,0,5.9-2.11,13.68,13.68,0,0,0,3.41-3.94c.4-.64.76-1.17,1.13-1.67l.06-.1a20.73,20.73,0,0,0,.86-2.4L225.27,0h-.19l-.48.35a21.65,21.65,0,0,1-.76,2.13,20.21,20.21,0,0,0-1.14,1.7,12.19,12.19,0,0,1-3.11,3.61,8.54,8.54,0,0,1-5.2,1.89c-4.93,0-9.77-4.47-14.09-8.46L199.14.13,198.79,0h-.27l-.35.87,1.31,1.2C203.92,6.19,209,10.86,214.39,10.86Z"/><path class="cls-1" d="M1.09,72l.08-.18c1.42-3.63,2.36-8.64,3.19-13l.07-.34c.89-4.64,1.74-9,3-12.1,2.2-5.34,6.8-9.87,11.67-14.68l.07-.07a98.19,98.19,0,0,0,8.88-9.5A53.06,53.06,0,0,0,35.52,9.79c1.09-2.54,2-5.45,2.94-8.26l.11-.33c.06-.19.13-.38.18-.57L38.26,0h-.19l-.48.36c-.06.2-.13.41-.23.7-.8,2.52-1.8,5.67-2.92,8.27a52,52,0,0,1-7.31,12.06,103.11,103.11,0,0,1-8.76,9.38l-.09.08c-5,4.9-9.65,9.52-11.93,15.07C5,49.23,4.07,54,3.19,58.65S1.4,68,.07,71.41L0,71.69v.49l1,.14A2.33,2.33,0,0,1,1.09,72Z"/><path class="cls-1" d="M13.37,117.16A32.64,32.64,0,0,1,18.88,119C25.19,121.51,33,124.64,36,130.92c.17,3.43-1,6.37-2.34,9.48-1.9,4.55-4.05,9.71-2.83,17.81.94,6.2,4.54,10.13,8.7,14.68,1.74,1.9,3.44,3.77,5.08,5.91,4.39,5.78,7.4,12.45,9.56,17.65,2.36,5.64,4.22,10.1,10.53,11.61A100,100,0,0,0,77,209.91a49.17,49.17,0,0,0,5.38.32,25.17,25.17,0,0,0,7.06-.88c4.28-1.27,6.93-4.67,10.28-9,1.06-1.34,2-2.57,3.14-3.91.72-.87,1.67-1.83,2.68-2.85l.19-.19c2.31-2.32,4.69-4.72,5.39-6.76a5.38,5.38,0,0,0,.14-2.21v-.15a9.64,9.64,0,0,1,0-1.82l-.1-.49a51.21,51.21,0,0,0-7.4-7.46l-.22-.19c-4.31-3.79-8.39-7.36-9.9-13.15a16,16,0,0,1,.89-10c1.52-3.94,5.05-8.25,10-12.15,1.54-1.23,3.16-2.49,4.84-3.81l2.34-1.84c11.59-9,24.72-19.27,31.92-28.22l.11-.27a9,9,0,0,0-.17-3.94c-1-3.83-3.93-8.37-8.18-12.45-4-3.86-8.65-6.77-12.35-7.79-.3-.08-.88-.24-1.5-.37a24.62,24.62,0,0,0-5.4-.55,64.23,64.23,0,0,0-9.48.94,60.65,60.65,0,0,1-8.83.9,23.19,23.19,0,0,1-3-.18c-8.09-1.07-13.91-6.49-16-14.88-2.7-11,4.85-18,12.16-24.75l.12-.1c5.48-5.09,11.14-10.35,12.65-17.36,1.44-6.62-.42-13.7-1.66-18.39-.43-1.67-1-3.46-1.73-5.64L99.86,0h-.19l-.48.66c.67,1.91,1.25,3.8,1.75,5.69,1.19,4.56,3,11.46,1.62,17.77C101.13,30.81,95.54,36,90.12,41c-7.55,7-15.35,14.21-12.48,25.88,2.17,8.89,8.36,14.63,17,15.75a24.19,24.19,0,0,0,3.15.2,63.07,63.07,0,0,0,9-.9A61.82,61.82,0,0,1,116,81a23.78,23.78,0,0,1,5.16.53c.58.12,1.15.27,1.44.35,7,1.94,17.73,11.44,19.68,19.37a7.92,7.92,0,0,1,.21,3.3c-7.2,8.89-20.2,19-31.67,28-2.54,2-4.93,3.83-7.17,5.62-5.09,4.06-8.74,8.55-10.31,12.66a17.23,17.23,0,0,0-.94,10.71c1.64,6.21,5.87,9.9,10.34,13.82a53.07,53.07,0,0,1,7.25,7.22,13.66,13.66,0,0,0,0,1.73v.15a4,4,0,0,1-.07,1.87c-.63,1.83-3.22,4.42-5.11,6.31l-.28.29c-1,1-1.92,1.94-2.64,2.82-1.24,1.46-2.3,2.82-3.19,4-3.22,4.14-5.77,7.41-9.67,8.56a23.73,23.73,0,0,1-6.73.84,50.73,50.73,0,0,1-5.24-.31A103.62,103.62,0,0,1,65,206.9c-5.73-1.35-7.5-5.59-9.73-10.94-2.32-5.6-5.29-12.1-9.69-17.89-1.64-2.16-3.37-4-5-5.88l-.09-.1c-4-4.4-7.53-8.2-8.41-14.06-1.17-7.75.9-12.75,2.74-17.18l0-.11c1.34-3.24,2.61-6.31,2.39-10l0-.12,0-.11c-3.21-6.81-11.35-10-17.9-12.63A34.19,34.19,0,0,0,13.62,116a77.81,77.81,0,0,0-13.1-1.71l-.52.5v.2l.48.5A73.9,73.9,0,0,1,13.37,117.16Z"/><path class="cls-1" d="M111.51,2.32c.36,1.22.71,2.46,1,3.7.5,1.9,1.08,3.8,1.66,5.71A79.06,79.06,0,0,1,117,23.15a22.6,22.6,0,0,1,0,6.68c-.93,5.22-4.48,9.35-8,13.39-4.06,4.71-8.26,9.58-8.59,16.53.46,6.39,7.7,7.31,14.7,8.19l1.22.17c.91.12,1.83.24,2.73.39a91.44,91.44,0,0,1,17.26,4.77c2.13.81,4.19,1.82,6.22,2.81,3.85,1.92,7.5,3.73,11.8,4.21.57,0,1.13.08,1.71.08a22.46,22.46,0,0,0,7.66-1.59c2.25-.8,4.21-1.67,5.87-2.42,3.82-1.69,7.43-3.28,13-3.77a26.82,26.82,0,0,1,3-.15c6,0,11.07,1.58,16,3.14,4.09,1.3,8.31,2.64,12.68,2.64a19,19,0,0,0,2.52-.15c6.55-.83,11.57-4.21,15.34-10.35,3.41-5.55,5.27-12.5,6.75-18.58a71.62,71.62,0,0,0,1.55-8c.3-2.57-.12-4.46-1.28-5.78-2.09-2.42-6.24-2.55-10.68-2.68a61.1,61.1,0,0,1-6.13-.42c-8.79-1.13-16.15-2.26-24.26-5.66a199.13,199.13,0,0,1-17.91-8.71c-7.47-4.1-15.94-9.17-21.86-17.64L158,0h-.22l-.41.79c6.14,8.82,14.75,14,22.34,18.1a196.87,196.87,0,0,0,18,8.77c8.25,3.44,15.69,4.59,24.57,5.75,2,.25,3.92.32,5.82.4l.47,0c4.32.13,8.05.25,9.8,2.27.92,1.07,1.25,2.67,1,4.87a76,76,0,0,1-1.53,7.89c-3.07,12.67-7.48,26.33-21.09,28a19.5,19.5,0,0,1-2.37.14c-4.11,0-8.11-1.26-12.37-2.6-5-1.56-10.15-3.17-16.35-3.17-1.09,0-2.13,0-3.1.14-5.7.5-9.38,2.13-13.35,3.89l-.44.2c-1.66.73-3.38,1.48-5.34,2.18a21.59,21.59,0,0,1-7.27,1.51c-.53,0-1.06,0-1.57-.08-4.07-.45-7.61-2.19-11.36-4l-.09,0a65.34,65.34,0,0,0-6.29-2.84,92.28,92.28,0,0,0-17.48-4.84c-1.23-.19-2.58-.38-4-.55-6.82-.88-13.26-1.72-13.66-7.06C102,53.32,106,48.61,110,44c3.38-3.9,7.21-8.33,8.23-13.94a24.41,24.41,0,0,0,0-7.06,77.35,77.35,0,0,0-2.79-11.31l-.08-.27c-.55-1.87-1.12-3.81-1.65-5.7-.33-1.24-.68-2.51-1-3.73l-.18-.66c-.09-.32-.18-.65-.28-1L111.72,0h-.2L111,.64l.07.25C111.25,1.37,111.39,1.83,111.51,2.32Z"/><path class="cls-1" d="M3.91,21.69l.31-.19c3.68-2.38,7.16-4.62,9.62-8.4A21.48,21.48,0,0,0,17.52.5L17,0h-.18l-.5.5a20.52,20.52,0,0,1-3.49,12C10.52,16,7.12,18.22,3.51,20.53l-.37.24c-1,.63-2,1.27-2.93,1.95L0,23.13v.22l.79.41C1.81,23,2.88,22.36,3.91,21.69Z"/><path class="cls-1" d="M124.73,17.33l.13.27a29.19,29.19,0,0,1,2.53,7.4c1.06,7.16-2.67,11.88-6.32,16.5-2.45,3.06-5,6.23-5.74,10.07a7.33,7.33,0,0,0-.12,2.18v.19c0,.38.06.78.06,1.36l0,.17c1,2.79,3.93,4.71,6.21,5.83,8,4,21,5.83,30.53,7.2a31.89,31.89,0,0,0,4.38.31,58.67,58.67,0,0,0,10.66-1.26l.31-.06a66.32,66.32,0,0,1,12.17-1.38c1.16,0,2.39,0,3.61.14.22,0,.76.06,1.48.11l.67,0c1.24.06,2.72.14,3.79.23a62.63,62.63,0,0,1,9.77,1.63l.11,0A54.58,54.58,0,0,0,212.1,70l1.84,0c4.55-.71,8.71-5.45,10.35-11.79,1.35-5.24,1-12.23-4-16.12-5.74-4.47-22.3-8.35-31.18-9.06-1.91-.17-3.52-.18-5.06-.18s-3.37,0-5.6-.22c-6-.55-10.92-2.91-16.56-7.9-7-6.26-10.85-11.09-16.31-20.67A23.22,23.22,0,0,1,144,.33L143.52,0h-.21l-.47.67a24.84,24.84,0,0,0,1.75,3.9c5.53,9.72,9.4,14.62,16.56,21,5.83,5.18,11,7.63,17.23,8.2,2.27.2,4,.22,5.76.22,1.55,0,3,0,4.91.18,8.75.71,25,4.51,30.56,8.82,4.51,3.52,4.78,10,3.53,14.89-1.52,5.87-5.29,10.26-9.32,10.91l-1.72,0a53.08,53.08,0,0,1-12.7-1.64l-.25-.05a65.75,65.75,0,0,0-9.94-1.65c-1.15-.08-2.79-.19-4.1-.26l-1.72-.09h-.09c-1.1-.11-2.33-.16-3.73-.16A67.74,67.74,0,0,0,167,66.36a57.78,57.78,0,0,1-10.57,1.25,29.11,29.11,0,0,1-4.22-.28l-.19,0c-9.35-1.35-22.17-3.19-30-7.07-1.68-.82-4.63-2.56-5.57-5.08,0-.29,0-.54,0-.78l0-.53a5.7,5.7,0,0,1,.08-2c.72-3.54,3-6.46,5.5-9.56,3.79-4.77,7.71-9.69,6.57-17.41a31,31,0,0,0-2.75-8l-.19-.44c-.38-.84-.78-1.71-1.12-2.58A85.4,85.4,0,0,1,120.29.4L119.8,0h-.18l-.49.61a88.88,88.88,0,0,0,4.28,13.68C123.76,15.17,124.18,16.14,124.73,17.33Z"/><path class="cls-1" d="M20.09,92.22c2.49-2.77,4.69-5.71,7-8.82l.25-.34C31.18,78,35.11,72.74,40.19,68.41c.37-.34.73-.71,1.08-1.08s.62-.64.93-.93A77.13,77.13,0,0,1,53,58.89l.5-.31c2.4-1.49,4.88-3,7.21-4.75,2-1.48,4-3,5.86-4.45,3-2.31,5.91-4.56,8.89-6.61,1.42-1,2.93-1.94,4.48-2.92,7.8-5,16.64-10.62,18-20.93.71-5.37-.68-12.34-3.72-18.64L93.72,0h-.19l-.45.72c3,6.1,4.32,12.86,3.64,18.06C95.41,28.57,86.82,34,79.24,38.84c-1.45.93-3,1.92-4.49,2.94-3.06,2.1-6,4.42-8.94,6.65l-.58.45c-1.72,1.33-3.5,2.69-5.29,4-2.41,1.77-5,3.37-7.62,5l-.13.09A79.24,79.24,0,0,0,41.43,65.5c-.26.23-.51.48-.75.73l-.47.5a9.88,9.88,0,0,1-.81.78c-5.21,4.45-9.34,10-13,14.83-2.6,3.48-4.77,6.35-7.23,9.08A35.1,35.1,0,0,1,.4,102.27l-.4.49V103l.6.49A36.54,36.54,0,0,0,20.09,92.22Z"/><path class="cls-1" d="M8.76,85c2.56-3.74,2.59-10.42,2.32-15.82-.21-4.25-.14-12.38,2.64-19.11,2.15-5.16,7.49-9.93,12.26-14.2.74-.67,1.47-1.33,2.18-2C38.21,24.71,43.21,16.48,47.6,6.94c.34-.72.62-1.47.9-2.2l.13-.34a32.28,32.28,0,0,1,1.3-3.08l.22-.43.08-.16L49.79,0h-.21l-.46.29a3.61,3.61,0,0,1-.27.5c-.54,1.1-1,2.26-1.32,3.19l-.07.18c-.29.76-.59,1.54-.94,2.27C42.19,15.85,37.27,24,27.36,33l-1.28,1.16-1,.91c-5,4.51-10.23,9.18-12.44,14.54C9.76,56.54,9.69,64.87,9.9,69.22c.26,5.21.25,11.64-2.12,15.11C6.31,86.45,4,88.24.27,90.13L0,90.57v.21l.73.45C3.4,89.87,6.73,87.94,8.76,85Z"/><path class="cls-1" d="M3.62,5.94A7.74,7.74,0,0,0,5.48.5L5,0H4.77l-.5.5a6.85,6.85,0,0,1-1.5,4.62A3.22,3.22,0,0,1,.5,6.23L0,6.71H0v.2l.5.5A4.31,4.31,0,0,0,3.62,5.94Z"/><path class="cls-1" d="M34.13,41.18c-5,3-10.22,6-12.28,11.79a12,12,0,0,0,0,7.35,4.16,4.16,0,0,0,4,2.61c2.91,0,6.27-2.21,7.64-3.37a50.5,50.5,0,0,0,7.28-8.42l.66-.87c1-1.31,2-2.67,3.06-3.92a21.54,21.54,0,0,1,4.4-4.08c4.21-2.47,9.62-4.37,15.34-6.39,8-2.81,16.33-5.71,21.56-10.51a15.37,15.37,0,0,0,4.68-11A17.89,17.89,0,0,0,85.85,1.8,14.3,14.3,0,0,0,84.05.11L83.74,0h-.31l-.31.89A17.06,17.06,0,0,1,85,2.61a16.5,16.5,0,0,1,4.3,11.74A14.13,14.13,0,0,1,85,24.49C80,29.09,71.81,32,63.86,34.76c-5.77,2-11.22,3.94-15.55,6.49a22.92,22.92,0,0,0-4.71,4.36c-1.23,1.42-2.39,3-3.52,4.5l-.27.36a49.3,49.3,0,0,1-7.07,8.17c-1.46,1.25-4.51,3.11-6.88,3.11A2.94,2.94,0,0,1,23,59.92a10.92,10.92,0,0,1,0-6.55c1.91-5.33,6.91-8.3,11.76-11.17,3.55-2.1,6.91-4.09,9-6.94,3.6-4.88,6.93-12,9.6-17.73l.34-.75c.24-.53.48-1.07.73-1.61,1.84-4,3.74-8.22,6.34-11.28A16.35,16.35,0,0,1,64,.91L63.76,0h-.32l-.29.09a17.84,17.84,0,0,0-3.32,3c-2.7,3.17-4.63,7.44-6.49,11.56l-.85,1.86-.1.23c-2.68,5.76-6,12.93-9.62,17.8C40.83,37.21,37.58,39.14,34.13,41.18Z"/><path class="cls-1" d="M133.09,51.12l.09.12a3.53,3.53,0,0,1,.6,1.15l.09.19.1.14a8.84,8.84,0,0,0,6.06,2.1c3.44,0,6.89-1.47,8.6-3.66a5.24,5.24,0,0,0,1-4.59c-.78-3-3.66-4-6.54-4.74l0,.13h-.16l0-.14c-5.08.74-10.32,3.89-9.84,9ZM140,53.64a7.6,7.6,0,0,1-5.16-1.73h0a5.33,5.33,0,0,0-.68-1.32c-.3-4.86,5.49-7.07,8.72-7.59,2.69.71,5,1.51,5.57,3.86a4.09,4.09,0,0,1-.79,3.58C146.2,52.35,143.12,53.64,140,53.64Z"/><path class="cls-1" d="M183.32,54.3l.07.13.19.19a25.76,25.76,0,0,0,12.54,3.19c3,0,8.25-.62,9.65-4.77l0-.17A5.29,5.29,0,0,0,204.18,49c-2-2-5.85-3.28-10.14-3.28-5.48,0-11.42,2.19-11.51,7l.2.34,0,0A3.86,3.86,0,0,1,183.32,54.3Zm.41-1.83c.25-3.86,5.48-5.62,10.31-5.62,4,0,7.53,1.12,9.3,2.92a4.22,4.22,0,0,1,1.28,3c-1.22,3.38-5.84,3.88-8.5,3.88a24.84,24.84,0,0,1-11.75-2.91l0-.09A4.73,4.73,0,0,0,183.73,52.47Z"/><path class="cls-1" d="M95.05,138.09a110.11,110.11,0,0,1,10.42-7.79l.35-.24a107.78,107.78,0,0,0,11.58-8.81c5.77-5.22,12.31-11.14,13.41-20.28v-.12c-.7-4.3-2-8.72-7-11.92a17,17,0,0,0-9.69-2.65,56.53,56.53,0,0,0-9.8,1.19l-.25,0a64.72,64.72,0,0,1-11.44,1.34c-.91,0-1.87,0-2.83-.1a52.51,52.51,0,0,1-6.74-1.38l-.14,0a44.94,44.94,0,0,0-9.64-1.66,9.44,9.44,0,0,0-1.67.13c-3.87.59-7.92,3.89-11,6.69-5.11,4.64-9.95,9.49-10.77,13.59a22.66,22.66,0,0,0,0,5.94,47.22,47.22,0,0,0,1.36,7l.09.36a40.69,40.69,0,0,1,1.49,14.43,53,53,0,0,1-1.55,8.68,50.69,50.69,0,0,0-1.71,16.32l0,.11c3.51,12.17,7.67,21.41,12.71,28.25a25.86,25.86,0,0,0,4.48,4.89,16.64,16.64,0,0,0,10.1,3.39,11.6,11.6,0,0,0,9-3.65c2.28-2.59,3.13-6.3,2.52-11a42.85,42.85,0,0,0-2.22-7.94,39.39,39.39,0,0,1-2.16-7.72C82.59,155.37,86.76,145.27,95.05,138.09ZM82.73,165.27A42,42,0,0,0,85,173.22a39.43,39.43,0,0,1,2.15,7.72c.59,4.34-.16,7.73-2.24,10.08a10.41,10.41,0,0,1-8.05,3.24,15.54,15.54,0,0,1-9.36-3.13,25.2,25.2,0,0,1-4.27-4.68c-4.93-6.66-9-15.75-12.51-27.81a48.82,48.82,0,0,1,1.71-15.88,54.1,54.1,0,0,0,1.55-8.87,42,42,0,0,0-1.52-14.84l0-.14a47.24,47.24,0,0,1-1.36-7,22.73,22.73,0,0,1,0-5.59c.75-3.74,5.45-8.44,10.41-12.95,3-2.69,6.84-5.85,10.39-6.41a10.43,10.43,0,0,1,1.49-.09c2.77,0,6.35.89,9.57,1.68a52.72,52.72,0,0,0,6.83,1.37c.94.08,1.94.13,3,.13a64.46,64.46,0,0,0,11.71-1.4l.39-.06a54.39,54.39,0,0,1,9.39-1.13,16,16,0,0,1,9.06,2.47c4.52,2.93,5.76,7,6.42,11-1.07,8.55-7.41,14.32-13,19.4a107.08,107.08,0,0,1-11.5,8.71,116,116,0,0,0-10.85,8.12C85.68,144.63,81.36,155.12,82.73,165.27Z"/><path class="cls-1" d="M99.57,126.48a102.85,102.85,0,0,0,12.42-9.4,8.9,8.9,0,0,0,2.9-2.74l.15-.18a10.23,10.23,0,0,1,1.77-1.89l.09-.09c3.56-4.45,4.72-9.68,3-13.32-1.12-2.33-3.88-5.1-10.71-5.1-.81,0-1.73,0-2.82.14-2.06.21-4.34.62-7.11,1.13l-.12,0c-2.79.51-5.94,1.08-9.1,1.42l-.54,0L88,96.68c-8.42.84-14,1.39-19.34,7.68-3.75,4.45-5.76,9.94-6.33,17.29a118,118,0,0,0,.17,14.23c.13,2.33.24,4.4.26,6.25l0,.1c.16.68.27,1.38.39,2.11l.07.42c.49,3.15,1.11,7.07,4.66,8.94l.23.05h.06c4.2-.29,6.77-3.91,9.52-7.78l.31-.42c.85-1.18,1.72-2.4,2.65-3.46,5.79-6.71,12.35-11.17,18.77-15.54ZM68.32,152.55c-2.85-1.59-3.37-4.82-3.87-8l-.09-.54c-.12-.7-.22-1.36-.36-2,0-1.49-.11-3.13-.2-4.86l-.08-1.54a112.69,112.69,0,0,1-.15-13.89c.53-7.06,2.45-12.33,6-16.59,5-5.91,9.78-6.41,18.55-7.31l1.36-.13.6-.07c3.24-.34,6.43-.92,9.31-1.44l.79-.15c2.24-.4,4.36-.79,6.23-1a26.94,26.94,0,0,1,2.71-.15c6.21,0,8.68,2.41,9.66,4.43,1.54,3.25.45,7.95-2.78,12a13.58,13.58,0,0,0-2,2.15l-.06.08a7.46,7.46,0,0,1-2.59,2.47l-.11.08a99.92,99.92,0,0,1-12.49,9.45c-6.41,4.36-13,8.88-19,15.72A44.71,44.71,0,0,0,77,145l-.24.34C74.25,148.86,71.87,152.21,68.32,152.55Z"/><path class="cls-1" d="M182.7,120.08c1.43,13.27,2.77,25.8,13.19,34.83,7,6,18.25,12.46,29.08,12.46a20.47,20.47,0,0,0,16.3-7.36c3.58-4.26,5.46-9.36,7.45-14.76.13-.36.26-.72.4-1.09l.29-.79,1.28-3.39c2.29-6,4.44-11.71,5-16.48,1.23-10.69-2.66-15-7.47-19.19-7.43-6.44-17-6.92-27.23-7.44-2.48-.13-5.52-.41-8.18-.65-4.16-.38-9.87-.91-14.5-.91-5,0-8.13.56-9.93,1.77-7.36,4.87-6.53,16.63-5.84,21.44ZM225,166.2c-10.51,0-21.51-6.3-28.3-12.2-10.08-8.7-11.39-21-12.78-34.06l-.18-1.57c-.68-4.6-1.52-15.77,5.31-20.3,1.59-1.06,4.62-1.58,9.28-1.58,4.44,0,9.73.49,14.4.92l1,.09c2.61.23,5.07.45,7.19.55,10,.49,19.37,1,26.52,7.15,4.56,3.94,8.24,8,7.07,18.17-.52,4.58-2.63,10.15-4.86,16.06l-.48,1.26c-.28.76-.57,1.51-.84,2.26s-.49,1.27-.71,1.91c-2.05,5.53-3.81,10.31-7.26,14.39A19.24,19.24,0,0,1,225,166.2Z"/><path class="cls-1" d="M235.46,107.06c-6-4.18-13.53-4.59-21.5-5l-.71,0c-1.47-.07-3-.14-4.49-.14-5.1,0-11.38.65-14.67,5.74-1.87,3.82-1.74,8.37-1.62,12.37l.05,2.29c1.24,11.47,2.32,21.36,11.67,28.76,4.34,3.45,12.16,7.47,19.95,7.47a15.7,15.7,0,0,0,9.84-3c7.31-5.66,10.49-17.38,11-25.69C245.56,120.09,242,111.6,235.46,107.06Zm-26.7-4c1.84,0,3.63.1,5.15.19H214c7.75.42,15.07.82,20.76,4.78,6.19,4.32,9.55,12.42,9,21.66-.48,8.07-3.52,19.42-10.53,24.84a14.57,14.57,0,0,1-9.11,2.81c-7.45,0-15-3.9-19.23-7.24-9-7.12-10-16.33-11.2-27.94,0-.73,0-1.46-.07-2.27-.1-4.06-.2-8.26,1.48-11.7C198.08,103.62,204,103,208.76,103Z"/><path class="cls-1" d="M80.29,121.35l.12.13a3.88,3.88,0,0,0,1,.85l0,0,.22.08h.13a37.77,37.77,0,0,0,15.82-7.21c1.8-1.42,3.91-3.37,4.34-5.86l-.09-.48a5.71,5.71,0,0,0-.72-.82l-.25-.26a8.21,8.21,0,0,1-.59-.59l0,0-.34-.24c-.78-.08-1.66-.13-2.52-.13-4.68,0-11.06,1.42-14.92,5.41a10.74,10.74,0,0,0-3.06,8.12l.26.45A3,3,0,0,1,80.29,121.35Zm1.53-.17a3.91,3.91,0,0,1-.6-.57,6.94,6.94,0,0,0-.61-.6,9.58,9.58,0,0,1,2.74-7c3.57-3.72,9.6-5,14.06-5,.75,0,1.48,0,2.17.1.17.19.36.38.54.56a4.79,4.79,0,0,1,.62.65c-.45,2-2.29,3.69-3.85,4.93A36.53,36.53,0,0,1,81.82,121.18Z"/><path class="cls-1" d="M212,145.88A18.71,18.71,0,0,0,222,149a12.72,12.72,0,0,0,10.64-5.48c6-8.23,3.27-23.76-5.26-30.2a19.31,19.31,0,0,0-12-3.89,24.14,24.14,0,0,0-4.07.35c-6.11,1-9.29,5.81-9.19,13.83C202.21,129.61,203.6,140.44,212,145.88Zm-8.67-22.25c-.1-7.34,2.73-11.71,8.2-12.64a23.43,23.43,0,0,1,3.87-.33,18.48,18.48,0,0,1,11.26,3.63c3.84,2.92,6.61,7.94,7.6,13.76s0,11.22-2.62,14.83a11.51,11.51,0,0,1-9.66,5,17.52,17.52,0,0,1-9.33-3C204.71,139.75,203.4,129.37,203.31,123.63Z"/><path class="cls-1" d="M12.12,190.15a12.34,12.34,0,0,1,2-.18c5.08,0,7.09,3.63,9.23,7.49a27.43,27.43,0,0,0,2.46,3.91c1.07,1.4,3.07,4,5.88,4a5.62,5.62,0,0,0,.7-.05,8.91,8.91,0,0,0,6.83-10.06c-.61-4.49-3.59-7.76-9.38-10.29l-.44-.2-.66-.28c-2.61-1.1-5.08-2.13-6.15-4.45-1.2-5-1.44-11.75-1.7-18.91v-.27a161.68,161.68,0,0,0-1.25-17.71c-1.6-10.51-7-16.78-16.48-19.18a22.74,22.74,0,0,0-2.62-.54l-.57.5v.19l.43.5a21.21,21.21,0,0,1,2.47.5c9,2.25,14.08,8.2,15.6,18.21a160.18,160.18,0,0,1,1.23,17.34v.23c.24,7,.49,14.18,1.77,19.54,1.29,2.83,4,3.95,6.81,5.14l.48.21.62.26c5.36,2.34,8.11,5.31,8.65,9.37a7.66,7.66,0,0,1-5.81,8.71,3.12,3.12,0,0,1-.52,0c-2.2,0-3.93-2.18-5-3.54a29,29,0,0,1-2.32-3.73c-2.2-4-4.48-8.1-10.23-8.1a12.89,12.89,0,0,0-2.26.2c-3.42.55-7.25,2.35-11.72,5.5L0,194.9v.23l.79.41C5.15,192.44,8.86,190.68,12.12,190.15Z"/><path class="cls-1" d="M5.47,173c4.19-4.62,6.43-11.44,6.15-18.72-.28-7-2.93-13.44-7.12-17.24a11.35,11.35,0,0,0-3.88-1.83l-.62.49v.18l.37.48a10.75,10.75,0,0,1,3.38,1.58c3.92,3.56,6.42,9.69,6.69,16.38.27,7-1.85,13.49-5.83,17.89a25.83,25.83,0,0,1-4.4,3.77l-.21.41v.22l.78.41A24.89,24.89,0,0,0,5.47,173Z"/><path class="cls-1" d="M128.62,174a38.4,38.4,0,0,0,5.34,7.29c5.16,5.15,14.1,8.75,21.75,8.75a17.24,17.24,0,0,0,10.64-3.19c4.68-3.55,6.64-8,5.82-13.12a19.49,19.49,0,0,0-1.25-4c-3.95-9.83-13.18-20.09-19.89-25.89-4.66-4-8.53-6.36-11.51-7a9.51,9.51,0,0,0-2.12-.22c-8.17,0-18.21,8.34-18.84,15.74a6.47,6.47,0,0,0,.22,1.1l0,.2a4.24,4.24,0,0,1,.15,1.35l.08.19h0A144.3,144.3,0,0,0,128.62,174Zm27.09,14.85c-7.36,0-16-3.46-20.91-8.41a37.07,37.07,0,0,1-5.18-7.05,145.94,145.94,0,0,1-9.46-18.47,5.42,5.42,0,0,0-.24-1.7c-.07-.29-.15-.6-.19-.89.65-6.78,10-14.49,17.67-14.49a10,10,0,0,1,1.89.17c2.81.59,6.5,2.84,11,6.71,6.61,5.75,15.7,15.86,19.55,25.45a18.79,18.79,0,0,1,1.21,3.74c.73,4.7-1.09,8.74-5.4,12A16,16,0,0,1,155.71,188.87Z"/><path class="cls-1" d="M154.61,157.87c-4.08-3.73-9-6.42-12.72-7a12.21,12.21,0,0,0-2.09-.19,7.78,7.78,0,0,0-5.86,2.29c-1.68,1.74-2.53,4.46-2.39,7.75,1.65,7.08,3.31,12.82,8.34,16.91a20.63,20.63,0,0,0,12.42,4.32c5.35,0,9.06-2.47,10.17-6.79a12.29,12.29,0,0,0,.08-4.35C161.94,166.64,159,161.93,154.61,157.87Zm-2.3,22.87a19.57,19.57,0,0,1-11.68-4c-4.72-3.86-6.32-9.4-7.91-16.16a9.19,9.19,0,0,1,2.08-6.79,6.66,6.66,0,0,1,5-1.89,11.57,11.57,0,0,1,1.89.16c7.52,1.2,18.43,10.61,19.72,18.94a11,11,0,0,1-.09,3.88C160.36,178.6,157.07,180.74,152.31,180.74Z"/><path class="cls-1" d="M170.54,232.59c-4.16,2.93-8.47,5.95-9.55,11a11.78,11.78,0,0,0,2.72,9.93c3.37,4,9.52,6.62,15.66,6.62a16.9,16.9,0,0,0,10.26-3.11,23.28,23.28,0,0,0,5.05-6l.26-.41c1.5-3,2-6.48,2.53-10.29a52,52,0,0,1,2.06-9.79c.66-1.89,1.36-3.51,2.08-5.14,2.14-4.88,4-9.1,3.1-19.58-.51-6-1.58-13.31-5.51-16.41l-.09-.05-.14,0a11.13,11.13,0,0,0-1.53-.1,12.17,12.17,0,0,0-3.36.5c-6,1.75-12,7-14.05,12.11-1.43,3.64-.85,7.6-.28,11.52.5,3.42,1,6.65.05,9.42C178.34,227.13,174.4,229.89,170.54,232.59Zm10.39-19.39c-.55-3.69-1.13-7.5.21-10.9,1.88-4.84,7.58-9.74,13.26-11.4a10.77,10.77,0,0,1,3-.45,9.76,9.76,0,0,1,1.22.07c3.41,2.85,4.4,9.73,4.89,15.43.84,10.18-1,14.27-3,19l-.07.18c-.68,1.54-1.37,3.14-2,5.06a53.26,53.26,0,0,0-2.06,9.77l0,.25c-.52,3.64-1,7.09-2.39,9.87l-.2.32a22.24,22.24,0,0,1-4.8,5.74,15.55,15.55,0,0,1-9.54,2.85c-5.81,0-11.6-2.42-14.75-6.17a10.67,10.67,0,0,1-2.46-9c1-4.61,4.89-7.36,9.1-10.31,3.78-2.65,8.06-5.65,9.65-10.35C182,220.14,181.46,216.77,180.93,213.2Z"/><path class="cls-1" d="M25.37,225c-2,0-4.19,1.22-6,3.36-2.22,2.6-3.46,6-3.07,8.5a8.26,8.26,0,0,0,8.07,6.44,6.93,6.93,0,0,0,5.74-2.87c2.71-3.72,2-11.26-1.36-14.14A5,5,0,0,0,25.37,225Zm3.76,14.72a5.77,5.77,0,0,1-4.8,2.39,7.07,7.07,0,0,1-6.91-5.47c-.33-2.15.81-5.17,2.83-7.52,1.56-1.83,3.48-2.93,5.12-2.93a3.82,3.82,0,0,1,2.57,1C30.79,229.6,31.44,236.51,29.13,239.69Z"/><path class="cls-1" d="M96.25,250.68A3.14,3.14,0,0,1,96,250l-.07-.17-.15-.19a4.75,4.75,0,0,0-2.73-.89A5.67,5.67,0,0,0,89,250.65a5.12,5.12,0,0,0-1.4,3.85l.07.21a3.92,3.92,0,0,0,3.62,2.3,5.85,5.85,0,0,0,5.56-4.94V252a3.74,3.74,0,0,0-.48-1.16Zm-5,5.14a2.72,2.72,0,0,1-2.5-1.54,3.81,3.81,0,0,1,1.08-2.84A4.51,4.51,0,0,1,93,250a3.47,3.47,0,0,1,1.86.57,4.18,4.18,0,0,0,.38.8l.1.2a2.2,2.2,0,0,1,.24.56A4.66,4.66,0,0,1,91.25,255.82Z"/><path class="cls-1" d="M346,4.38a18.64,18.64,0,0,0,8.08,1.85h0A16.9,16.9,0,0,0,360.51,5,14.55,14.55,0,0,0,366.17.82L365.78,0h-.22l-.38.18a12.76,12.76,0,0,1-5.1,3.71,15.76,15.76,0,0,1-6,1.17,17.26,17.26,0,0,1-7.54-1.74A12.67,12.67,0,0,1,342.56.17L342.19,0h-.25l-.38.82A13.63,13.63,0,0,0,346,4.38Z"/><path class="cls-1" d="M181.76,8.31c1.77,1.17,3.59,2.38,5.35,3.63,1.6,1.14,3.14,2.34,4.62,3.51l.38.29c3.73,2.92,7.59,6,11.7,7.32A29.78,29.78,0,0,0,217,26.51a22,22,0,0,0,10-2.4c7.86-3.95,14-12.73,16.5-23.5L243.08,0h-.2l-.49.39C240,10.81,234,19.29,226.53,23.05a20.79,20.79,0,0,1-9.48,2.27A28.88,28.88,0,0,1,204.26,22c-4-1.32-7.59-4.17-11.43-7.18l-.38-.3c-1.49-1.16-3-2.36-4.66-3.51-2-1.4-4-2.76-5.76-3.91l-.19-.13A110.75,110.75,0,0,1,172.3.12L172,0h-.3l-.33.88a109.84,109.84,0,0,0,10,7.18Z"/><path class="cls-1" d="M397.29,54.11l0,.19c-1,5-1.92,9.62-3.29,12.94-5.23,12.66-20.66,18.51-29.39,20.87a31.55,31.55,0,0,1-8.35,1.23c-9.94,0-15.37-6.45-21.12-13.29-1.18-1.38-2.4-2.8-3.69-4.28l-.11-.13c-3.65-4.23-7.42-8.61-10.24-12.54a123.85,123.85,0,0,1-7.6-12.75l-.07-.13c-2-3.67-4.24-7.83-6.8-11.63-.2-.3-.44-.63-.66-.91-3.71-4.8-9.31-7.23-14.73-9.58-1.09-.48-2.2-1-3.26-1.44a38.92,38.92,0,0,0-8.86-2.49L277,19.74c-.79-.17-1.61-.41-2.41-.63l-.34-.1a19.2,19.2,0,0,0-5.31-1,9.85,9.85,0,0,0-1.38.1h-.1a38,38,0,0,1-6.2.66c-4,0-6.55-1.31-7.66-4-1.2-2.88-.79-7.88-.42-12.29l0-.39c.05-.54.09-1,.12-1.56l-.5-.53h-.19l-.5.47c0,.62-.08,1.25-.14,1.92-.36,4.3-.8,9.66.5,12.82S256.64,20,261.22,20a39.47,39.47,0,0,0,6.34-.68h.14a7.07,7.07,0,0,1,1.2-.09,18.91,18.91,0,0,1,5.07,1c.83.25,1.8.53,2.72.72.43.1.86.18,1.28.26l.88.18a38.33,38.33,0,0,1,8.59,2.39c1.08.5,2.2,1,3.28,1.45C296,27.47,301.48,29.83,305,34.4l.4.56.2.29a129.5,129.5,0,0,1,6.74,11.53,121,121,0,0,0,7.77,13c2.84,4,6.65,8.41,10.4,12.75,1.29,1.5,2.49,2.91,3.67,4.3,5.95,7,11.57,13.69,22,13.69h0a33.13,33.13,0,0,0,8.64-1.27c8.94-2.4,24.74-8.4,30.18-21.55,1.43-3.46,2.37-8.22,3.37-13.27l-.49-.1.52,0c.75-3.79,1.54-7.71,2.53-11l0-.15v-.62l-1-.16A111.93,111.93,0,0,0,397.29,54.11Z"/><path class="cls-1" d="M329.2,6.48c5.59,7.58,15.51,12.1,26.53,12.1a37,37,0,0,0,7.9-.83c10.6-2.34,13.28-10,14.5-17.17L377.64,0h-.18l-.5.42a29.31,29.31,0,0,1-1.92,7c-2.16,5-5.86,7.92-11.65,9.2a35.54,35.54,0,0,1-7.66.81c-10.6,0-20.15-4.32-25.54-11.57A45.42,45.42,0,0,1,328.62.38L328.13,0h-.19l-.49.62a48.09,48.09,0,0,0,1.67,5.73Z"/><path class="cls-1" d="M276.9,10.58a89.72,89.72,0,0,1,14,3.55c2.61.82,5.85,1.84,9,2.61,1.87.45,3.84.83,5.69,1.11a33.08,33.08,0,0,0,4.72.41c2.93,0,4.64-.64,5.23-2C317,13.22,318.07,6.72,318.12.5l-.5-.5h-.18l-.5.5c-.05,5.93-1.06,12.37-2.41,15.32-.37.82-1.82,1.25-4.17,1.25a32.07,32.07,0,0,1-4.54-.38c-1.81-.28-3.74-.66-5.59-1.11-3-.73-6-1.66-8.94-2.58l-.12,0a90.47,90.47,0,0,0-14.11-3.57c-4.64-.66-8.41-3.89-10.61-9.08L266,0h-.21l-.46.69C267.69,6.32,271.8,9.83,276.9,10.58Z"/><path class="cls-1" d="M393.9,28.44c-2.14,2.67-2.3,7.88-2.42,12.06l0,1c0,.6,0,1.17-.06,1.72-.49,10.2-1.59,20.83-8.9,28.74-7.16,6.06-15.51,9.53-22.9,9.53a20.64,20.64,0,0,1-16-7.25,130.49,130.49,0,0,1-8.12-10.47c-1.53-2.13-3.2-4.41-5-6.67-8.54-11-12.38-19.86-13.24-30.73-.28-2.51.36-5.45,3-6.26,5.4.33,11.39,2.22,16.67,3.88l.18.06c6.31,2,12.83,4,19,4a28.61,28.61,0,0,0,3.33-.21c.55-.08,1.14-.15,1.74-.22,6.09-.77,14.43-1.83,19.27-5.58s5-9.72,5.3-16.73l0-1c0-1.13.08-2.28.14-3.37a1.24,1.24,0,0,0,0-.33V.55L385.53,0h-.2l-.5.5s0,.31,0,.35c-.11,1.48-.17,2.93-.22,4.43-.25,6.7-.46,12.49-4.81,15.83-4.63,3.58-12.78,4.59-18.73,5.33l-.18,0-1.57.21a24.58,24.58,0,0,1-3.16.2c-6,0-12.44-2-18.67-4l-.49-.15c-5.57-1.74-11.33-3.53-16.79-3.85l-.14.06v0c-3.41,1-4.28,4.55-3.95,7.55.89,11.12,4.8,20.2,13.49,31.34,1.73,2.21,3.39,4.51,4.93,6.66l.46.63c2.54,3.48,4.94,6.77,7.73,9.9a21.77,21.77,0,0,0,16.88,7.64c7.69,0,16.33-3.58,23.72-9.85,7.61-8.25,8.76-19.11,9.27-29.53,0-.57.05-1.15.06-1.76l0-.89c.11-4,.24-9.07,2.16-11.47a27.76,27.76,0,0,1,6-5.4l.21-.41v-.22l-.79-.41A29.12,29.12,0,0,0,393.9,28.44Z"/><path class="cls-1" d="M396.16,92.06l-.1,0a39.89,39.89,0,0,0-8.32,4.61l-.1.06c-1.28,1-3.41,2.71-3.18,5.11l0,.14.2.28a6.78,6.78,0,0,1,1,.91l.38.26a35.95,35.95,0,0,0,14.56,0l.4-.49v-.19l-.6-.49a34.75,34.75,0,0,1-7.14.74,34.39,34.39,0,0,1-6.8-.67,10.52,10.52,0,0,0-.82-.81c0-1.61,1.49-2.83,2.76-3.87a41.05,41.05,0,0,1,8.26-4.51c1.46-.66,2.79-1.29,4.06-1.92l.28-.45v-.21l-.72-.44C399,90.75,397.68,91.38,396.16,92.06Z"/><path class="cls-1" d="M400.5,6.21c-1.83,0-3.58-2-3.76-4.21a7.91,7.91,0,0,1,0-1.46l-.5-.54h-.18l-.5.46a9.06,9.06,0,0,0,0,1.65c.23,2.82,2.54,5.3,4.95,5.3l.5-.5v-.2Z"/><path class="cls-1" d="M370.19,35.89a20.55,20.55,0,0,0-3.89.4c-2.83.56-5.84,1.44-9.11,2.4l-.27.07a96.4,96.4,0,0,1-10.57,2.69c-3.56.65-5.16,2.34-4.75,5l0,.22a67.69,67.69,0,0,1,2.92,7.8l0,.12c2.05,6.31,4.16,12.84,9.45,16.31a16.05,16.05,0,0,0,8.77,2.48,21.1,21.1,0,0,0,14.38-5.87c3.1-3,5.36-8,6.05-13.2.74-5.53-.38-10.78-3.07-14.4C378.35,37.43,374.52,35.89,370.19,35.89Zm0,1.2c3.95,0,7.42,1.35,9,3.53,5.56,7.43,3,20.31-2.86,26a19.82,19.82,0,0,1-13.54,5.55,14.74,14.74,0,0,1-8.13-2.31c-4.9-3.2-7-9.48-8.95-15.56l-.06-.17a68.72,68.72,0,0,0-2.92-7.91c-.18-1.36.12-3,3.79-3.6a108.06,108.06,0,0,0,11-2.8c3.45-1,6.31-1.85,9-2.38A19.57,19.57,0,0,1,370.19,37.09Z"/><path class="cls-1" d="M248.68,178.82c5.87-3,7.46-8.32,9.17-14,.18-.58.36-1.16.52-1.74,2.39-7.75,5.82-15.6,14.73-20.49l.17-.17.14-.15,5.56-2.95,2.86-1.51c2.36-1.24,4.75-2.51,7.13-3.73.72-.37,1.43-.75,2.14-1.13l2.15-1.13c2-1.07,4.33-2.32,6.69-3.5a25.83,25.83,0,0,0,4.08-2.62l1.29-1a18.07,18.07,0,0,1,4.11-2.4c2.83-1.11,6-1.26,9.06-1.41h.19a35.3,35.3,0,0,0,8.35-1c2.55-.74,4.47-1.44,6-3.75,4.92-7.16,2.47-12.48-1.53-19.21a47.93,47.93,0,0,0-15-16.1,26,26,0,0,0-3.29-1.72,23.51,23.51,0,0,1-3.48-1.89c-1.31-.9-2.59-1.9-3.72-2.78l-.68-.53c-.77-.6-1.54-1.2-2.34-1.78-4.22-3-9.29-6.42-14.89-8.39a17.78,17.78,0,0,0-5.75-.8,24.89,24.89,0,0,0-4.62.41,15.65,15.65,0,0,0-4.76,2c-.62.34-1.28.7-1.93,1s-1.35.53-2,.76l-.21.08a17.67,17.67,0,0,0-3,1.23c-2.22,1.22-4.32,2.6-6.63,4.14-1.93,1.27-4.11,2.72-6.32,4-10.2,5.73-18.94,9-27.51,10.22a52.34,52.34,0,0,1-7.65.57,50.42,50.42,0,0,1-9.4-.87c-2.46-.45-5-1.17-7.33-1.82-4.23-1.18-8.6-2.4-12.92-2.4a19,19,0,0,0-6.66,1.12c-4.16,1.54-7.83,4.67-11.71,8l-.18.15c-1.9,1.62-3.87,3.3-6,4.88-.49.36-1.11.79-1.82,1.27l-.44.32c-1.53,1.07-3.25,2.29-4.8,3.6-3.25,2.79-4.18,5.47-3.1,9a52.93,52.93,0,0,0,4,8.67c.93,1.77,1.9,3.6,2.71,5.43.64,1.41,1.29,2.89,1.93,4.34l.27.62c4.31,9.79,8.76,19.91,15.26,28.06a103.64,103.64,0,0,0,7.91,8.53l.54.55a93.49,93.49,0,0,1,7.44,7.92,37.43,37.43,0,0,1,2.71,3.91c1.82,2.82,3.54,5.48,6.48,7.36l0,0,.27,0,.8,0c10.76-.64,20.05-1.19,30-3C240.85,181.64,245.88,180.26,248.68,178.82Zm-45.61,6c-2.63-1.73-4.23-4.23-5.93-6.87a43.3,43.3,0,0,0-2.78-4,99.89,99.89,0,0,0-7.55-8l-.53-.53a102.45,102.45,0,0,1-7.81-8.44C172,148.8,167.59,138.72,163.3,129l-.33-.76c-.6-1.37-1.21-2.75-1.81-4.07-.83-1.83-1.77-3.65-2.75-5.5l-.19-.36a51.6,51.6,0,0,1-3.69-8.13c-.94-3.07-.18-5.23,2.73-7.7,1.57-1.33,3.33-2.57,4.89-3.67l.27-.18c.71-.49,1.33-.93,1.83-1.3,2.16-1.59,4.14-3.28,6.05-4.91l.2-.18c3.78-3.24,7.35-6.3,11.34-7.78a18.09,18.09,0,0,1,6.26-1.06c4.21,0,8.51,1.21,12.67,2.39,2.29.64,4.89,1.37,7.38,1.84a53,53,0,0,0,9.6.87,52.34,52.34,0,0,0,7.8-.58c8.68-1.25,17.55-4.55,27.95-10.37,1.9-1.07,3.77-2.29,5.57-3.46l.82-.54c1.94-1.3,4.23-2.8,6.54-4.08a17.82,17.82,0,0,1,2.85-1.17,20.27,20.27,0,0,0,2.26-.88c.54-.25,1.07-.53,1.57-.81l.61-.32A14.37,14.37,0,0,1,278,64.5a24.16,24.16,0,0,1,4.4-.4,17.34,17.34,0,0,1,5.36.76c5.52,1.94,10.47,5.25,14.58,8.23,1.07.78,2.08,1.54,3,2.28l.65.5c1,.77,2.05,1.57,3.12,2.32a25.71,25.71,0,0,0,3.66,2l.09,0a23.24,23.24,0,0,1,3,1.6A46.56,46.56,0,0,1,330.5,97.51c3.78,6.36,6.1,11.37,1.58,18-1.34,2-2.93,2.55-5.38,3.27a33.09,33.09,0,0,1-7.69,1l-.38,0c-3.05.12-6.49.25-9.66,1.49a19.2,19.2,0,0,0-4.33,2.52c-.27.18-.52.37-.76.56l-.4.3a28.19,28.19,0,0,1-4.05,2.65c-2.21,1.08-4.41,2.25-6.54,3.38l-1,.53c-1.15.62-2.33,1.25-3.5,1.85-3.34,1.73-6.73,3.51-10,5.24-1.88,1-3.75,2-5.65,3l-.16.12-.19.21c-9.17,5.11-12.71,13.18-15.16,21.13-.18.58-.36,1.17-.53,1.74-1.61,5.39-3.14,10.49-8.58,13.27-2.74,1.42-7.65,2.77-14.59,4-9.9,1.81-19.17,2.35-29.9,3Z"/><path class="cls-1" d="M253.92,151.32c5.18-12.42,14.22-28.5,27.94-34.51a22.43,22.43,0,0,1,7.34-1.52c1-.08,2.05-.2,3.08-.33,4-.56,8.36-1.37,13.44-2.47.73-.15,1.46-.31,2.18-.48,3.86-.86,9-3.3,10.67-7.36A8.34,8.34,0,0,0,318,96.4c-4.64-7-20.41-9.35-26.9-9.36H291a85,85,0,0,0-8.58.58l-.56.06c-1.4.15-2.85.3-4.24.39a15.92,15.92,0,0,0-7.81,2.72,16.44,16.44,0,0,1-9.13,2.5,52.79,52.79,0,0,1-8.07-.86l-.19,0c-.82-.15-1.67-.27-2.51-.4l-.21,0a88.56,88.56,0,0,0-12.9-.81c-3.16,0-6.37.11-9.19.2l-.84,0c-2.69.08-5.48.16-8.21.16a80.89,80.89,0,0,1-13.93-1c-1.1-.21-2.29-.49-3.56-.78l-.3-.07a41.79,41.79,0,0,0-9.69-1.52,17.65,17.65,0,0,0-5.19.72c-7.9,2.38-14.51,12-15.72,19.54a27.09,27.09,0,0,0,.19,9.07c.89,5.08,2.09,9.51,3.35,14.19l.36,1.38c3.8,14.13,9.43,22.47,20.76,30.78l.28.22.14.1c6,4.43,11.27,8.25,17.12,10.1a34.55,34.55,0,0,0,10.44,1.45h0a39,39,0,0,0,14-2.39C246.47,169.3,249.92,161,253.92,151.32Zm-62.82-62a41.27,41.27,0,0,1,9.45,1.49c1.19.29,2.58.62,3.9.86a79.93,79.93,0,0,0,14.13,1c3.08,0,6.18-.09,9.08-.18s6-.2,9.16-.2a89.22,89.22,0,0,1,12.72.8l1.86.3.84.13a54.84,54.84,0,0,0,8.46.9,17.73,17.73,0,0,0,9.77-2.66,14.77,14.77,0,0,1,7.26-2.54c1.59-.13,3.23-.28,4.83-.45a80.77,80.77,0,0,1,8.46-.58h.12c6.28,0,21.53,2.26,25.9,8.82a7.25,7.25,0,0,1,.43,7.15c-1.52,3.63-6.25,5.86-9.82,6.67l-.52.11c-.54.11-1.09.23-1.63.36-5.14,1.1-9.52,1.9-13.39,2.45-1,.14-2.1.24-3,.31H289a23.51,23.51,0,0,0-7.59,1.61c-14.06,6.15-23.3,22.51-28.57,35.15-3.91,9.41-7.29,17.54-16.45,21.32a37.73,37.73,0,0,1-13.54,2.3,34.17,34.17,0,0,1-10.08-1.38c-5.67-1.79-10.82-5.56-16.79-9.94l-.13-.09-.28-.22c-11.09-8.15-16.6-16.31-20.31-30.13l-.36-1.38c-1.2-4.4-2.44-8.95-3.32-14.09a25.31,25.31,0,0,1-.19-8.68c1.15-7.16,7.4-16.33,14.86-18.59A17,17,0,0,1,191.1,89.31Z"/><path class="cls-1" d="M396.56,123.1a20.6,20.6,0,0,0-13.32,4.64l-.09.1-.06.09c-.44.81-.87,1.49-1.2,2a14,14,0,0,0-2.56,7,57.2,57.2,0,0,0-.09,8.36v.13a46.82,46.82,0,0,1-.29,9.6c-1.89,11.47-11,23.28-21.21,27.47a20.9,20.9,0,0,1-3.21,1.08,12.09,12.09,0,0,1-2,.2c-5.69,0-7-5.79-8.34-11.39l-.22-.88c-.24-1-.49-2-.77-3-1.42-4.85-3.33-8.07-6.21-10.47s-6.74-3.89-12.5-5A34.16,34.16,0,0,0,305.15,155a6.72,6.72,0,0,0-.64.23c-2.67.91-5.18,1.77-6.93,4.47-3.19,5-5.78,13.08-4.54,18.83s5.56,7,9.74,8.12c.82.22,1.63.46,2.44.7a17.32,17.32,0,0,1,3.13,1.34,170,170,0,0,0,22.23,10.23c7.25,2.8,10.8,9,14.24,15l.07.12c3.42,5.95,7,12.11,14.06,15.07a9.69,9.69,0,0,0,3.76.72,16.12,16.12,0,0,0,5.23-1c5.09-1.77,9.62-7.18,13-11.75,5.18-6.94,11.62-15.58,19.19-21.09l.61-.42.22-.42v-.23l-.79-.41-.73.52c-7.71,5.61-14.22,14.33-19.5,21.4-3.25,4.37-7.6,9.61-12.42,11.29a15.09,15.09,0,0,1-4.85.92,8.62,8.62,0,0,1-3.3-.62c-6.78-2.84-10.21-8.84-13.53-14.65-3.53-6.18-7.19-12.57-14.88-15.55a167.1,167.1,0,0,1-22.07-10.17,17.31,17.31,0,0,0-3.35-1.41c-.68-.22-1.39-.42-2.07-.61l-.42-.11c-4.19-1.16-7.81-2.15-8.9-7.24-1.16-5.45,1.34-13.15,4.4-17.95,1.52-2.37,3.84-3.15,6.33-4,.19-.08.39-.14.61-.21a35.46,35.46,0,0,1,12.37-2.43,34.54,34.54,0,0,1,6.33.62c10.71,2,15.2,5.65,17.8,14.59.37,1.26.69,2.63,1,3.8,1.35,5.77,2.88,12.3,9.51,12.3a11.74,11.74,0,0,0,2.24-.21,20,20,0,0,0,3.46-1.15,35.89,35.89,0,0,0,14.32-11.48,39.19,39.19,0,0,0,7.62-16.89,49.8,49.8,0,0,0,.28-10,52.26,52.26,0,0,1,.1-8.2,12.8,12.8,0,0,1,2.38-6.56l.32-.52.86-1.42a19.38,19.38,0,0,1,12.48-4.32,23.55,23.55,0,0,1,3.86.32l.58-.49v-.19l-.42-.5A26.05,26.05,0,0,0,396.56,123.1Z"/><path class="cls-1" d="M398.45,134.91c-3.9,0-7.33,2.65-8.74,6.74a34.06,34.06,0,0,0-1.37,9.13v.16c-.06,1.1-.13,2.25-.25,3.49-.46,5.19-1.52,10.76-2.37,15.23l0,.29a104.89,104.89,0,0,0-1.94,13.22l.25.43a3.82,3.82,0,0,0,2.24.94,1.65,1.65,0,0,0,.56-.08l.11-.05c1.85-1.06,3.83-2,5.74-3a66,66,0,0,0,8.16-4.45l.22-.42v-.22l-.78-.41a64.75,64.75,0,0,1-8.11,4.44l-.17.09c-1.86.9-3.77,1.84-5.56,2.88h-.15a2.43,2.43,0,0,1-1.3-.51,111.4,111.4,0,0,1,1.95-13c.95-5,1.94-10.21,2.39-15.34.13-1.38.2-2.63.25-3.67a32.72,32.72,0,0,1,1.32-8.83c1.23-3.62,4.22-5.95,7.61-5.95a8.35,8.35,0,0,1,1.93.24l.62-.48v-.18l-.38-.49A9.33,9.33,0,0,0,398.45,134.91Z"/><path class="cls-1" d="M318.49,166.34c-3.73,0-7.52,1.87-7.55,6.09l0,.13c1.12,3.93,6.58,8.73,11.33,8.73a6.08,6.08,0,0,0,3.31-.93,5.88,5.88,0,0,0,2.59-4,8.73,8.73,0,0,0-1.6-6.43A10.07,10.07,0,0,0,318.49,166.34Zm0,1.19a8.93,8.93,0,0,1,7.16,3.15,7.53,7.53,0,0,1,1.38,5.51,4.71,4.71,0,0,1-4.74,3.92c-4.24,0-9.11-4.26-10.17-7.78C312.2,169,315.37,167.53,318.49,167.53Z"/><path class="cls-1" d="M378.32,189.17c-1.7,0-3.44,1-5.13,2l-.24.13c-.53.3-1.06.6-1.59.87l-1.05.52c-5.48,2.68-13,6.35-12.44,15.26l0,.1c.78,2.85,3.17,5.72,6.73,5.72a6.43,6.43,0,0,0,1-.09l.1,0c6.16-2.55,9.81-9.63,12.3-15.5l.2-.44c1.13-2.67,2.41-5.69,1.67-8l-.35-.34A3.81,3.81,0,0,0,378.32,189.17Zm-13.7,23.4c-2.9,0-4.89-2.38-5.58-4.76-.45-8,6.6-11.5,11.79-14.06l.41-.2.65-.32c.46-.22.92-.48,1.38-.74l.52-.29c1.45-.86,3.1-1.83,4.53-1.83a2.63,2.63,0,0,1,.57,0c.39,1.84-.73,4.47-1.74,6.84l-.18.42c-2.41,5.66-5.91,12.45-11.59,14.84A6.61,6.61,0,0,1,364.62,212.57Z"/><path class="cls-1" d="M308.4,252.52c-4.35,0-7.23,4.86-7.83,9.66a35,35,0,0,0,.27,10.47c.61,3.19,2,4.88,4.65,5.81a18.5,18.5,0,0,0,2.16.56,18.82,18.82,0,0,0,3.72.42c3.1,0,5.38-1.09,6.77-3.23,1.92-3,1.05-9.94.95-10.73A17.55,17.55,0,0,0,314,255.12,8.41,8.41,0,0,0,308.4,252.52Zm8.73,23c-1.14,1.78-3.08,2.68-5.76,2.68a16.45,16.45,0,0,1-3.48-.4,14.34,14.34,0,0,1-2-.52c-2.31-.79-3.32-2.07-3.85-4.92a32.64,32.64,0,0,1-.26-10.07c.53-4.29,3-8.63,6.64-8.63a7.24,7.24,0,0,1,4.79,2.28,16.27,16.27,0,0,1,4.71,9.64C318.3,268.55,318.41,273.6,317.13,275.57Z"/><path class="cls-1" d="M10.34,319.24l.59-.08c3-.4,6.15-.82,9.22-1.38,1.56-.28,2.89-.6,4.18-.91l.8-.19c1.7-.41,3.3-.8,5.35-1.11s4-.44,5.95-.59h.12c4.6-.3,9.35-.61,13.49-2.78,5.33-2.79,5.9-9.78,4.1-15.48-3-9.43-6.78-16-11.69-20A70.59,70.59,0,0,1,37,271.7c-3.49-3.47-7.11-7.06-11.85-9a95.5,95.5,0,0,0-11.69-3.57c-2.35-.61-4.83-1.26-7.19-2-1.2-.36-2.5-.85-3.51-1.23l-2.12-.75-.66.47v.2l.33.47,2.57.93c1.07.39,2.09.76,3,1.05,2.42.74,4.9,1.39,7.31,2a98.29,98.29,0,0,1,11.49,3.51c4.51,1.84,8,5.33,11.49,8.77a71.81,71.81,0,0,0,5.48,5.09c4.72,3.84,8.42,10.19,11.3,19.41,1.65,5.23,1.2,11.6-3.51,14.05-3.88,2-8.5,2.35-13,2.67-1.89.12-4.08.27-6.17.59s-3.93.76-5.69,1.18c-1.45.37-2.9.72-4.66,1-3.3.58-6.63,1-9.77,1.44l-.15,0c-3.39.45-6.59.89-9.62,1.45L0,320v.2l.59.49C3.62,320.13,6.93,319.68,10.34,319.24Z"/><path class="cls-1" d="M9.35,308.52c1.87-.6,3.93-1.21,6.66-2l.2-.06a97.19,97.19,0,0,0,12.58-4.2c4.18-1.81,8.42-3.94,10.34-8.3,2.49-5.71.09-11.81-6.42-16.33-.95-.66-1.86-1.32-2.74-2l-.38-.28c-4.25-3.12-8.27-6.06-14.14-7.2A103.88,103.88,0,0,0,.51,267l-.51.5v.2l.49.5a94.92,94.92,0,0,1,14.75,1.24c5.59,1.09,9.5,4,13.65,7l.44.33c.88.63,1.77,1.28,2.7,1.93,6,4.17,8.26,9.73,6,14.87-1.74,4-5.75,6-9.71,7.69a96.34,96.34,0,0,1-12.53,4.17l-.1,0c-1.85.52-4.29,1.2-6.71,2a71.91,71.91,0,0,1-8.57,2L0,309.9v.19l.65.48A71.62,71.62,0,0,0,9.35,308.52Z"/><path class="cls-1" d="M8.22,328.49c1.94,0,3.89.07,5.95.13h.34c2.1.08,4.33.16,6.55.16a62.56,62.56,0,0,0,6.44-.29,89.53,89.53,0,0,0,11.12-2l1.23-.27,1.4-.31c.65-.15,1.28-.29,1.94-.42l.18,0c6.67-1.43,13.57-2.9,19.23-6.76,6.8-4.62,7.68-14.23,4.59-20.87-2.76-6-7.36-10.68-11.82-15.24-3.64-3.69-7.41-7.52-10.15-12.12-1.19-1.58-2.18-3.12-3.13-4.61l-.12-.18c-3.28-5.09-5.86-9.1-12.81-10.73-12.83-3-23.91-5.58-25.95-18.21-.71-4.46.27-8,1.24-11.45a25,25,0,0,0,1.36-8.45l0-.16-.18-.21,0,0c-.34-.32-.67-.64-1-1a11.33,11.33,0,0,0-1.39-1.3L2.8,214a15.54,15.54,0,0,0-2.41.34l-.39.49V215l.6.49a14.69,14.69,0,0,1,2.05-.3,14.49,14.49,0,0,1,1.13,1.08l.22.22c.2.21.41.42.63.62A24.7,24.7,0,0,1,3.29,225c-1,3.53-2,7.17-1.25,11.89C4.2,250.34,15.64,253,28.89,256.1c6.49,1.5,9,5.34,12.07,10.2.89,1.39,2,3.06,3.28,4.81,2.72,4.59,6.51,8.46,10.18,12.21l.23.24c4.33,4.43,8.82,9,11.49,14.75,2.84,6.19,2,15.15-4.2,19.41-5.62,3.8-12.72,5.29-19,6.61l-.78.17-1.19.25c-.88.19-1.76.38-2.63.59l-.35.08a91.68,91.68,0,0,1-10.64,1.91,60,60,0,0,1-6.18.28c-2.15,0-4.33-.08-6.44-.15l-.36,0c-2.16-.07-4.21-.14-6.25-.14a51,51,0,0,0-7.72.5l-.42.5v.19l.58.5A49.42,49.42,0,0,1,8.22,328.49Z"/><path class="cls-1" d="M143.64,286.52l.27.13a8.22,8.22,0,0,1,1.45.81,25.81,25.81,0,0,1,5.11,5.19A30.71,30.71,0,0,1,156.29,305c1.67,7.09,6.08,9.88,13.13,12.32a39.62,39.62,0,0,0,12.79,2.12,37.16,37.16,0,0,0,6.44-.56c7.67-1.37,12.58-6,13.48-12.79.21-1.43.48-3,.69-4.14,1-5.63,2.09-11.46-1.23-16.76-2.77-4.37-7.9-5-13-5l-1.89,0-1,0c-.91,0-1.85.06-2.73.06a29.8,29.8,0,0,1-4.19-.26c-4.09-.66-8.31-1.7-11.7-2.54l-.4-.1c-6.19-1.51-12-2.94-17.92-2.94a36.07,36.07,0,0,0-3.75.21c-1.7.21-3.2,1.6-4.1,3.82-.74,1.87-1.1,4.65.31,6.36A7.34,7.34,0,0,0,143.64,286.52Zm5.11-10.83c5.89,0,11.79,1.45,18,3,3.82.94,7.78,1.91,11.81,2.54a26.51,26.51,0,0,0,4.38.27l2.65,0h.11c.93,0,1.89,0,2.84,0,4.8,0,9.57.53,12,4.41,3.07,4.89,2.06,10.49,1.08,15.9l-.07.38c-.23,1.27-.47,2.57-.63,3.82-.84,6.2-5.4,10.5-12.52,11.79a34.46,34.46,0,0,1-6.23.53,38.81,38.81,0,0,1-12.41-2c-6.66-2.31-10.82-4.93-12.36-11.5a31.74,31.74,0,0,0-6-12.8,26.87,26.87,0,0,0-5.32-5.42,9.48,9.48,0,0,0-1.39-.8l-.36-.18a6.79,6.79,0,0,1-2.2-1.39c-.85-1-.9-3.19-.12-5.17.71-1.78,1.88-2.93,3.11-3.07A33.48,33.48,0,0,1,148.75,275.69Z"/><path class="cls-1" d="M178.26,311.66a21.84,21.84,0,0,0,5.75-.76c.34-.12.69-.25,1-.39a5.07,5.07,0,0,0,3.17-4.49,6,6,0,0,0-1.76-4.27,5.76,5.76,0,0,0-5.87-1.56c-2,.62-6.63,3.13-8,6.09a3.64,3.64,0,0,0-.19,3.06C173.1,311.26,176,311.66,178.26,311.66Zm7.3-9.09A4.78,4.78,0,0,1,187,306a3.85,3.85,0,0,1-2.49,3.43,8,8,0,0,1-.85.35,20.39,20.39,0,0,1-5.38.7c-2.68,0-4.45-.57-4.85-1.57a2.49,2.49,0,0,1,.14-2.1c1.23-2.53,5.42-4.91,7.32-5.47a4.61,4.61,0,0,1,4.69,1.24Z"/><path class="cls-1" d="M236.15,380a11.19,11.19,0,0,0,0-1.52,59.31,59.31,0,0,0-2.83-10.5l-.08-.25a81.29,81.29,0,0,1-3.33-12c-.24-1.56-.42-3.24-.59-4.86l0-.31c-.55-5.75-1.12-11.71-5.27-14.44-1.86-1.24-4.56-1.82-8.49-1.82-2,0-4.16.15-6.25.29l-3.11.21c-7.86.48-24.24,2.53-30,6.9-7.93,6-8.86,16.22-8.74,25.46.91,11.33,8.16,17.62,17.55,24.66l.3.1h.3l.3-.9c-9.25-6.93-16.39-13.1-17.28-23.92-.11-8.9.79-18.77,8.3-24.45,5.53-4.21,21.61-6.2,29.33-6.67.53,0,1.05-.06,1.58-.1l1.08-.08c2.08-.15,4.47-.32,6.64-.32,3.68,0,6.17.52,7.85,1.63,3.65,2.4,4.2,8,4.75,13.57.14,1.62.33,3.5.61,5.24a81,81,0,0,0,3.41,12.27,56.59,56.59,0,0,1,2.82,10.4,10.56,10.56,0,0,1,0,1.37,9.64,9.64,0,0,0,0,1.43,25.44,25.44,0,0,1-1,9.9l.48.63h.19l.48-.36a26.52,26.52,0,0,0,1-10.29A9.13,9.13,0,0,1,236.15,380Z"/><path class="cls-1" d="M27.05,364.05c-1.7-7.57-11.14-12.94-19.4-15.45A19,19,0,0,0,2,347.73c-.52,0-1,0-1.57.06l-.46.5v.18l.54.5c.47,0,.94-.06,1.4-.06a18.23,18.23,0,0,1,5.37.83c7.94,2.41,17,7.5,18.59,14.56.66,2.9.54,6.54.41,10.48-.1,2.67-.18,5.29,0,7.9a55.43,55.43,0,0,1-.28,8.7l.5.55h.19l.5-.44a57,57,0,0,0,.27-8.85c-.11-2.63,0-5.31.06-7.9C27.62,370.81,27.74,367.09,27.05,364.05Z"/><path class="cls-1" d="M224.8,373.23l-.1-.34a78.34,78.34,0,0,1-2.58-10.48c-.13-.86-.24-1.68-.35-2.47l-.09-.65c-.92-6.62-1.64-11.84-6.15-15.37-3.05-2.39-8.71-3.81-15.14-3.81-7.8,0-15.07,2-19.45,5.3-7.24,5.48-7.55,15.08-6.52,22.21,1.58,7.58,7,11.45,13.74,16.34l.08.06a102.82,102.82,0,0,1,9.7,7.57l.07.06.21.19.3.09h.27l.3-.9a1.12,1.12,0,0,1-.2-.18l-.19-.16a104.89,104.89,0,0,0-9.56-7.51L189,383c-6.63-4.74-11.87-8.49-13.37-15.64-1-6.76-.74-15.9,6.09-21,4.16-3.16,11.16-5.05,18.72-5.05,6.17,0,11.56,1.33,14.42,3.56,4.12,3.21,4.8,8.19,5.67,14.49l0,.12c.06.45.13.91.19,1.38s.16,1.15.25,1.72a79.44,79.44,0,0,0,2.74,11,63.39,63.39,0,0,1,1.64,6.13,24.33,24.33,0,0,1-.72,11.55l.48.64h.19l.48-.35a25.54,25.54,0,0,0,.75-12.05C226.15,377.72,225.5,375.55,224.8,373.23Z"/><path class="cls-1" d="M96.46,381.27a121.1,121.1,0,0,1-4.74-12.82,33.92,33.92,0,0,1-.91-11.23,17,17,0,0,1,.48-2.27c.73-2.86,1.73-6.79-2.16-9.58l-.1-.06-.17,0a12.19,12.19,0,0,0-1.34-.08c-6.22,0-10.09,5.23-13.5,9.85-.9,1.23-1.79,2.43-2.69,3.51-3.19,3.34-7.57,5.77-12.21,8.34L59,367c-7.38,4.1-15,8.34-18.62,16.66a78.91,78.91,0,0,0-2.76,7.65l.47.65h.19l.48-.34c.91-2.8,1.74-5.29,2.69-7.48,3.47-8,10.89-12.09,18.08-16.07l-.25-.44h0l.38.36c4.74-2.62,9.21-5.1,12.55-8.63.84-1,1.64-2,2.48-3.17l.34-.45c3.24-4.38,6.91-9.34,12.52-9.34a9.2,9.2,0,0,1,1,.06c3.08,2.31,2.32,5.32,1.59,8.23a19.4,19.4,0,0,0-.54,2.43,35.2,35.2,0,0,0,1,11.67,118.27,118.27,0,0,0,4.38,12l.39,1c1.29,3.12,2.65,6.45,3.85,9.87l.47.33h.19l.47-.66c-1-3-2.26-6-3.43-8.9Z"/><path class="cls-1" d="M197.39,345.72a19.15,19.15,0,0,0-11.26,3.38c-3.66,2.74-5.84,6-5.43,14.09,2.46,10.1,13.39,15.55,22.42,15.55a20,20,0,0,0,3.38-.27l.33-.12a21.24,21.24,0,0,0,3.58-3.84l.09-.18c3.29-10.18,3.12-18.68-.48-23.31C207.43,347.65,202.83,345.72,197.39,345.72Zm12,28.16a22.14,22.14,0,0,1-3.19,3.45,23.13,23.13,0,0,1-3.1.23c-8.59,0-19-5.13-21.24-14.53-.38-7.42,1.61-10.47,5-13a18.07,18.07,0,0,1,10.56-3.13c5.05,0,9.31,1.76,11.69,4.82C212.42,356,212.54,364.09,209.41,373.88Z"/><path class="cls-1" d="M158.16,390.82c-3.37-4.92-4.63-11.09-5.86-17.07l0-.11c-1.41-6.74-2.86-13.72-7.3-19.31a9,9,0,0,0-7.35-3.74,11.09,11.09,0,0,0-1.7.13c-7.44,1.11-16.11,7.74-20.83,11.35-5.31,5.53-7.32,12.22-6.14,20.46a74.94,74.94,0,0,0,2.08,9l.48.36h.2l.48-.63a66,66,0,0,1-2-8.94c-1.13-7.85.76-14.23,5.74-19.42l.08-.06c4.57-3.48,13.08-9.95,20.14-11a10.36,10.36,0,0,1,1.53-.12,7.84,7.84,0,0,1,6.4,3.29c4.31,5.42,5.73,12.28,7.11,18.95,1.24,6.07,2.53,12.36,6,17.43a1.4,1.4,0,0,0,.25.34l.35.14H158l.39-.82-.15-.2Z"/><path class="cls-1" d="M198.71,358.64a4.05,4.05,0,0,0-3.4-2.12,3.19,3.19,0,0,0-1.3.27l-.12.07a3.7,3.7,0,0,0-1.46,2.5,2.4,2.4,0,0,0,.67,1.93,7,7,0,0,1,.7.68l.21.08v0a3.53,3.53,0,0,0,1.27.24,4,4,0,0,0,3.43-2.12l.06-.13,0-.12c0-.27,0-.55,0-.8v-.23Zm-1.1.48c0,.19,0,.4,0,.6a2.72,2.72,0,0,1-2.33,1.41,2.9,2.9,0,0,1-.75-.11,4.81,4.81,0,0,0-.6-.56,1.24,1.24,0,0,1-.31-1,2.67,2.67,0,0,1,.91-1.63,2.38,2.38,0,0,1,.79-.13A2.85,2.85,0,0,1,197.61,359.12Z"/><path class="cls-1" d="M10.09,366.9c-2.39-2.94-4.7-4.17-9.5-5.07l-.59.49v.19l.41.49c4.51.85,6.56,1.94,8.77,4.64,4,4.9,6.41,14.05,7,20.47.11,1.18.16,2.3.16,3.32l.5.5H17l.5-.5c0-1.16-.05-2.31-.15-3.42C16.77,381.41,14.23,372,10.09,366.9Z"/><path class="cls-1" d="M142.43,386.47c-2.52-8.11-5.37-17.32-13.43-17.32a8.43,8.43,0,0,0-.86,0,9.87,9.87,0,0,0-6.81,3.58c-2.52,3-3.64,7.52-3.15,12.77a46.59,46.59,0,0,0,.95,6l.49.39h.18l.49-.6a48.75,48.75,0,0,1-.94-5.9c-.44-4.95.58-9.18,2.88-11.92a8.75,8.75,0,0,1,6.08-3.17l.69,0c7.16,0,9.89,8.76,12.3,16.54.52,1.68,1,3.27,1.54,4.74l.47.33h.21l.47-.67c-.46-1.24-.88-2.6-1.33-4Z"/><path class="cls-1" d="M77.94,376.62a27.27,27.27,0,0,0-3.88-.27,28.56,28.56,0,0,0-14.72,4.08,27.92,27.92,0,0,0-10.2,10.77l.44.73h.21l.44-.26a26.9,26.9,0,0,1,23.83-14.14,31.69,31.69,0,0,1,3.73.24c5.33.73,10.59,5.18,14.42,12.21.3.53.6,1.1.86,1.66l.46.29h.19l.45-.71c-.26-.57-.57-1.18-.91-1.8C89.23,382.05,83.64,377.38,77.94,376.62Z"/><path class="cls-1" d="M.76,384.54a1.88,1.88,0,0,0-.34,0l-.42.5v.16l.5.5H.76a3.31,3.31,0,0,1,2.9,2.33,9,9,0,0,1,.61,3.38l.5.5H5l.5-.5a9.92,9.92,0,0,0-.74-3.84C3.89,385.62,2.48,384.54.76,384.54Z"/><path class="cls-1" d="M63.15,391l.29.9h.32l.28-.08a17.55,17.55,0,0,1,9.86-3.08,15,15,0,0,1,9.23,3.06l.3.1h.31l.31-.89a16.14,16.14,0,0,0-10.15-3.45A18.7,18.7,0,0,0,63.15,391Z"/><path class="cls-1" d="M332.85,373.66l-.41-.74a133.5,133.5,0,0,1-6.11-12.2c-1-2.4-1.95-5.07-2.84-7.65-4.13-11.86-8.81-25.31-23.48-25.31h-.58A34.42,34.42,0,0,0,286,331.25c-.78.35-1.59.73-2.39,1.11-2.28,1-4.87,2.23-7.14,3.49-6.38,3.52-13.72,5.26-20.82,6.94l-.17,0-.15,0c-.6.15-1.24.3-1.94.43-4.94,1.05-11.1,2.36-13.1,8.25-1.5,4.44-.16,10,1.16,15.47.44,1.84.9,3.74,1.21,5.51a48.75,48.75,0,0,1,.2,16.79c-.12.66-.26,1.33-.42,2l.48.61h.2l.48-.38c.17-.69.3-1.36.42-2a50.09,50.09,0,0,0-.19-17.2c-.33-1.84-.79-3.77-1.23-5.59-1.22-5-2.6-10.64-1.19-14.82,1.78-5.23,7.56-6.46,12.24-7.45l.36-.08,1.56-.35.14,0c7.24-1.69,14.73-3.45,21.34-7.1,2.23-1.24,4.79-2.42,7-3.46.63-.28,1.24-.57,1.84-.85l.56-.26a33.83,33.83,0,0,1,13-3.38,4.26,4.26,0,0,1,.5,0h0c13.8,0,18.34,13,22.36,24.55,1,3,1.89,5.42,2.86,7.73a140.47,140.47,0,0,0,6.32,12.57l.18.34c1.8,3.3,3.5,6.41,5,9.63a34.21,34.21,0,0,0,4.86,8l.38.17h.25l.37-.83a31.62,31.62,0,0,1-4.8-7.84C336.31,380.05,334.63,377,332.85,373.66Z"/><path class="cls-1" d="M399.91,336.67l-.57.09a30.6,30.6,0,0,0-4.15,1.15c-11.95,4.51-19.92,13-23.05,24.64a97.59,97.59,0,0,0-2,10.69l-.09.6c-.73,4.88-1.49,9.92-2.71,13.41a12.54,12.54,0,0,1-2.17,3.86l.38.82h.22l.39-.18a13.81,13.81,0,0,0,2.29-4.1c1.26-3.55,2-8.58,2.74-13.44l.07-.47a106.34,106.34,0,0,1,2-10.89c3-11.22,10.76-19.47,22.33-23.84a31.9,31.9,0,0,1,4-1.08l.31-.06.68-.11.44-.49v-.2l-.59-.49Z"/><path class="cls-1" d="M388.71,252.76a22.77,22.77,0,0,0-4.9.52,48.44,48.44,0,0,0-11,4.5l-.12.06c-3.45,1.74-7,3.54-10.65,4.31a13,13,0,0,1-2.76.31c-7.27,0-10.38-7.4-13.12-13.92l-.55-1.28-.77-1.81a66.11,66.11,0,0,0-6.15-10.76A56.65,56.65,0,0,0,323,219.47c-5.41-3.41-10-5.27-14.34-5.85a25,25,0,0,0-3.31-.22c-5.45,0-9.68,1.83-14.6,4l-.3.13c-1.14.5-2.32,1-3.53,1.5-3.83,1.55-8.18,3.31-11.19,7.19a52.41,52.41,0,0,0-5.49,9.66l-.37.75a187.32,187.32,0,0,0-7.43,18.58c-.51,1.44-1,2.91-1.52,4.36l-.06.15c-1.35,3.89-2.75,7.92-4.45,11.72a39,39,0,0,1-5,7.77l-.1.14c-1,1.31-2.16,2.79-3.14,4.33-2.44,3.72-6.25,6.94-9.94,10.07l-.51.43c-1.16,1-2.26,1.94-3.3,2.9-.75.66-1.54,1.35-2.4,2.07-3.91,3.38-8.34,7.2-9.53,12.15l-.33,1.43-.1.46c-1.21,5.24-2.25,9.77-7.45,13-5,3.13-11.07,4.14-16.45,5-2,.35-4.11.63-6.12.9l-1.54.21a105.78,105.78,0,0,0-13.08,2.23c-9.3,2.48-15,8.93-16.85,19.18-1.81,9.92,0,22,2.08,26.94,1.65,4,4.41,7.54,8.69,11.15l.33.11h.3l.32-.88c-4.22-3.5-6.93-6.95-8.55-10.84-2-4.81-3.77-16.61-2-26.27s7.19-15.9,16-18.23a102.51,102.51,0,0,1,12.77-2.21l.16,0c2.52-.32,5.12-.65,7.7-1.08l.11,0c5.45-.92,11.63-2,16.78-5.2,5.58-3.49,6.68-8.21,8-13.75.15-.61.31-1.26.44-1.89,1.09-4.52,5.31-8.17,9-11.4l.65-.56c.67-.57,1.31-1.12,1.89-1.66,1.16-1.06,2.41-2.14,3.8-3.31l.16-.13c3.69-3.15,7.51-6.4,10-10.19.92-1.39,1.95-2.75,2.95-4.06l.22-.29a41.74,41.74,0,0,0,5.19-8c1.71-3.84,3.12-7.89,4.47-11.81l.53-1.5c.35-1,.7-2,1.07-3A186.42,186.42,0,0,1,271,237.1l.34-.74a52.33,52.33,0,0,1,5.4-9.46c2.8-3.61,7-5.3,10.68-6.79l2.7-1.15,1.15-.49c4.78-2.1,8.91-3.9,14.16-3.9a24.12,24.12,0,0,1,3.14.21c4.22.57,8.62,2.38,13.85,5.69a55.09,55.09,0,0,1,15.33,14.92,65,65,0,0,1,6,10.56c.4.87.78,1.79,1.19,2.76l.22.51c1.52,3.58,3.25,7.64,5.79,10.49a10.84,10.84,0,0,0,8.39,3.94,14.12,14.12,0,0,0,3-.33c3.77-.81,7.42-2.65,10.94-4.44l.3-.15a46.73,46.73,0,0,1,10.56-4.28,21.31,21.31,0,0,1,4.68-.51,34.93,34.93,0,0,1,11.58,2.39l.67-.47v-.2l-.33-.47A36.13,36.13,0,0,0,388.71,252.76Z"/><path class="cls-1" d="M388.41,312.6c-5.92,2.48-10.29,6.71-14.53,10.8l-.1.1c-4.34,4.22-8.45,8.21-13.77,9.75a11.54,11.54,0,0,1-3.25.49c-5.75,0-10.5-4.64-15.09-9.11l-1-1a53.72,53.72,0,0,0-9.6-6.88,71.94,71.94,0,0,1-6.81-4.54c-1.69-1.33-3.49-2.56-5.07-3.65l-1.2-.84c-.74-.52-1.49-1-2.2-1.57-1.77-1.29-3-3.37-4.28-5.42l-.17-.29a30.52,30.52,0,0,0-2-3c-2.18-2.8-5.22-4.9-8.18-6.95-5.25-3.62-10.21-7-10.56-14a37.83,37.83,0,0,1,2.63-14.5,42.8,42.8,0,0,1,9.3-14c2.53-2.57,5.08-3.87,7.58-3.87l.59,0c4.85.42,9.07,5.66,12.21,10.18a24.67,24.67,0,0,1,3.34,7.94,46.38,46.38,0,0,0,1.67,5.06c.61,1.5,1.35,3,2.05,4.41l.37.76a46.62,46.62,0,0,1,3.49,8.13c1.39,4.74,1.67,11.59-.46,15.53s-1.18,10.93,1.15,14.54c2.12,3.28,7.29,5.33,11.48,7,.72.28,1.39.56,2,.82l.51.21.49.22.61.27.37.17a17,17,0,0,0,3.47,1.24,14.1,14.1,0,0,0,2.82.3c5.17,0,8.82-3.25,11.16-9.95,2.86-8.16.87-15.6-5.59-20.94a40.61,40.61,0,0,0-6.3-4c-1-.52-1.95-1.08-2.89-1.64l-.27-.16-.49-.3c-2.73-1.62-6.12-3.64-8-6a50.13,50.13,0,0,1-6.87-11.4c-.88-2.07-1.59-4.22-2.31-6.42-.54-1.62-1.1-3.29-1.74-5a42.73,42.73,0,0,0-5.32-9.59c-3-4.14-8.53-9.69-14-11.72a12,12,0,0,0-4.16-.72c-8.64,0-17.84,7.83-21.91,12.46-3.17,3.6-5.25,8.12-6.87,12.07-.19.45-.37.91-.55,1.37s-.48,1.21-.73,1.81c-2.29,5.76-4.46,11.21-8.12,16.29a49.45,49.45,0,0,0-3.07,5l-.39.7c-.57,1-1.16,2.06-1.8,3.05-1.9,3-4.83,4.77-7.72,6.26-1,.54-2.08,1-3.11,1.53l-1,.47c-3.76,1.75-8,3.73-11.45,7-2.23,2.11-3.12,4.38-2.64,6.74.78,3.83,4.93,6.63,8.55,8a32.62,32.62,0,0,0,11.46,1.81,100,100,0,0,0,11.89-.94l1-.09,1.76-.2c3.33-.33,6.47-.65,9.67-2.48L286,313c4.63-2.64,8.63-4.92,13.91-6.09a19.28,19.28,0,0,1,4.18-.44,13.33,13.33,0,0,1,6.93,1.61c1.39.86,2,2.17,2.68,3.69a15.18,15.18,0,0,0,1.55,2.87c2.59,3.38,6.06,6,9.41,8.6l.12.09c3.27,2.49,6.66,5.07,9.21,8.31a45.78,45.78,0,0,1,3.86,6.3l.18.34a44.43,44.43,0,0,0,4.09,6.69,11,11,0,0,0,8.66,4.42,12.51,12.51,0,0,0,3.65-.58c4-1.26,8.4-4.62,12.68-7.89l.73-.55q.58-.47,1.17-.9c2.22-1.68,4.37-3.43,6.45-5.12,5.68-4.62,11.05-9,17.07-11.42a43.08,43.08,0,0,1,8-2.22l.41-.49V320l-.6-.49a43.91,43.91,0,0,0-8.28,2.3c-6.12,2.47-11.51,6.84-17.21,11.46l-.18.15c-2.25,1.83-4.29,3.48-6.41,5.08-.62.47-1.26,1-1.88,1.46l-.14.1c-4.13,3.15-8.4,6.41-12.2,7.59a11,11,0,0,1-3.29.52,9.74,9.74,0,0,1-7.73-4,43.83,43.83,0,0,1-4-6.48,47.78,47.78,0,0,0-4.17-6.83c-2.68-3.4-6.26-6.12-9.42-8.53-3.32-2.54-6.76-5.17-9.29-8.47a14,14,0,0,1-1.35-2.46l-.09-.2a8.9,8.9,0,0,0-3.1-4.19,14.66,14.66,0,0,0-7.59-1.79,20.8,20.8,0,0,0-4.42.47c-5.55,1.25-9.83,3.7-14.34,6.29-.49.26-1,.55-1.47.84-3,1.68-6,2-9.23,2.32l-1.77.19-1,.13a101.16,101.16,0,0,1-11.65.9,31.42,31.42,0,0,1-11.09-1.74c-4.18-1.55-7.24-4.34-7.79-7.1-.39-1.93.38-3.83,2.31-5.64,3.21-3,7.22-4.93,11.1-6.76,1.65-.74,3-1.38,4.19-2,3-1.57,6.11-3.46,8.17-6.7.8-1.25,1.54-2.56,2.19-3.74a51.54,51.54,0,0,1,3-5c3.7-5.11,5.89-10.61,8.22-16.43l.05-.14c.42-1,.83-2.1,1.27-3.18,1.68-4,3.65-8.28,6.65-11.71,5.11-5.81,13.86-12.06,21-12.06a10.72,10.72,0,0,1,3.76.65c5.22,1.93,10.49,7.3,13.43,11.32a39.93,39.93,0,0,1,5.19,9.29c.63,1.66,1.17,3.29,1.71,4.94.76,2.35,1.47,4.47,2.36,6.52a52.19,52.19,0,0,0,7,11.68c2,2.47,5.46,4.56,8.31,6.27.25.13.49.28.75.44.65.39,1.33.77,2,1.14l.93.52a38.48,38.48,0,0,1,6.11,3.86c6.05,5,7.91,12,5.24,19.65-2.16,6.15-5.46,9.14-10.08,9.14a13,13,0,0,1-2.56-.27,17.66,17.66,0,0,1-3.6-1.33c-.34-.15-.71-.31-1.09-.5s-.87-.35-1.34-.54l-1.23-.49-.1,0c-4-1.58-8.94-3.54-10.83-6.49-2.13-3.33-3.11-9.62-1.11-13.33,2.28-4.2,2-11.45.56-16.43a48.34,48.34,0,0,0-3.37-8l-.17-.35c-.77-1.51-1.66-3.3-2.4-5.09a43.55,43.55,0,0,1-1.63-4.92,25.43,25.43,0,0,0-3.51-8.31c-3.3-4.73-7.77-10.22-13.08-10.66q-.36,0-.72,0c-2.81,0-5.63,1.41-8.39,4.21a43.76,43.76,0,0,0-9.56,14.4,39.07,39.07,0,0,0-2.71,15c.37,7.56,5.8,11.31,11.06,14.94,2.87,2,5.85,4,7.93,6.71a29,29,0,0,1,2.15,3.27,19.3,19.3,0,0,0,4.53,5.68c1.13.82,2.31,1.64,3.43,2.42l.38.26c1.54,1.08,3.13,2.2,4.64,3.36a67.87,67.87,0,0,0,7.05,4.67,51.8,51.8,0,0,1,9.27,6.68c.36.33.67.64,1.06,1,4.75,4.62,9.67,9.41,15.88,9.41a12.51,12.51,0,0,0,3.59-.54c5.62-1.63,9.84-5.73,14.3-10.06,4.15-4.05,8.45-8.23,14.23-10.66a62.89,62.89,0,0,1,11.72-3.25l.4-.49v-.2l-.6-.49A63.2,63.2,0,0,0,388.41,312.6Z"/><path class="cls-1" d="M397.08,266.93a88,88,0,0,0-16.2,1.14,42.33,42.33,0,0,0-9.27,3.7l-.26.13c-4.2,2.07-8.55,4.2-12.61,4.2a10.33,10.33,0,0,1-3.08-.45c-9-2.8-12.5-12.48-15.61-21.06l-.34-.92c-.52-1.44-1-2.81-1.56-4.14a46.91,46.91,0,0,0-5.4-9.91c-3.36-4.67-7.41-7.5-11.71-10.5l-1-.72-.91-.63C315.77,225.4,311.75,223,307,223a13.81,13.81,0,0,0-1.93.14,17.5,17.5,0,0,0-5.23,2,26.29,26.29,0,0,1-3,1.38l-2.2.82c-5.45,2-11.62,4.18-15.77,8.9a31,31,0,0,0-3.11,4.66l-.06.1c-.49.86-1,1.66-1.44,2.42a56.23,56.23,0,0,0-5.2,10.15,78.76,78.76,0,0,0-3.31,12.27l0,.13a70.37,70.37,0,0,1-3.62,12.87c-1.76,4.13-6.49,7.11-10.66,9.74l-.13.08c-1.11.71-2.16,1.38-3.1,2.06a60.51,60.51,0,0,0-7.86,6.84l-.24.24c-1.5,1.46-3,3-4.68,4.34-4.13,3.49-6,9.45-4.87,15.56,2,10.62,6.34,12.47,15.12,13.93a54.41,54.41,0,0,0,8.71.67,87.66,87.66,0,0,0,15.12-1.45c5.41-.95,10.49-4.39,15.41-7.72l.09-.06c1.82-1.25,3.46-2.36,5.1-3.33a16.87,16.87,0,0,1,8.85-2.53,19.43,19.43,0,0,1,12.39,4.81l2.67,2.13c5.09,4.07,9.9,7.92,12.44,14a60.63,60.63,0,0,1,2.57,8.15l0,.17a61.88,61.88,0,0,0,2.57,8.3,34.41,34.41,0,0,0,8.65,11.8c2.46,2.17,6.25,4.76,10.35,4.76a9.41,9.41,0,0,0,2.64-.37c4.6-1.35,7.23-6.42,10.06-11.84a54.18,54.18,0,0,1,5.92-9.63,67,67,0,0,1,10.09-9.32l.4-.32c6.06-4.7,11.79-9.13,19.32-10.63a13.52,13.52,0,0,1,1.44-.25l.43-.5v-.19l-.58-.5-1.56.27C391,329.63,385.2,334.18,379,339l-.33.25a67.45,67.45,0,0,0-10.27,9.49,53.76,53.76,0,0,0-5.84,9.45l-.2.4c-2.68,5.16-5.21,10-9.35,11.24a8.11,8.11,0,0,1-2.31.33c-3.71,0-7.24-2.42-9.56-4.46a33.15,33.15,0,0,1-8.32-11.38,59.34,59.34,0,0,1-2.53-8.14l-.06-.23a61,61,0,0,0-2.6-8.25c-2.66-6.34-7.83-10.47-12.86-14.49l-.59-.47c-.66-.53-1.34-1.07-2-1.62A20.72,20.72,0,0,0,299,316.06a18.21,18.21,0,0,0-9.47,2.69c-1.69,1-3.39,2.17-5.12,3.35-4.85,3.29-9.87,6.69-15.07,7.6a84.41,84.41,0,0,1-14.85,1.45,51.76,51.76,0,0,1-8.58-.67c-8.59-1.42-12.27-3-14.15-13-1.06-5.67.65-11.19,4.47-14.41,1.71-1.47,3.34-3,5-4.66l.11-.1a60.5,60.5,0,0,1,7.58-6.63c.71-.5,1.51-1,2.34-1.54l.85-.55c4.32-2.73,9.21-5.82,11.12-10.26a71.64,71.64,0,0,0,3.68-13.06l.13-.59a73.21,73.21,0,0,1,3.17-11.65,55.63,55.63,0,0,1,5.08-10c.44-.68.86-1.39,1.29-2.15l.23-.39a30.09,30.09,0,0,1,3-4.5c3.92-4.45,9.69-6.55,15.29-8.59l2.22-.8a27,27,0,0,0,2.79-1.32l.27-.13a16.86,16.86,0,0,1,4.86-1.92,12.87,12.87,0,0,1,1.75-.12c4.35,0,8.21,2.3,11.4,4.55.67.48,1.3.91,1.95,1.35l.13.09c4.17,2.93,8.12,5.7,11.3,10.13a46.37,46.37,0,0,1,5.26,9.69c.51,1.27,1,2.59,1.51,4l.38,1c3.19,8.79,6.8,18.76,16.38,21.75a11.64,11.64,0,0,0,3.42.5c4.37,0,8.86-2.22,13.2-4.36a41.76,41.76,0,0,1,9.17-3.7,84.88,84.88,0,0,1,15.63-1.12c1.25,0,2.5,0,3.75.05l.51-.5v-.2l-.49-.5C399.37,266.94,398.22,266.93,397.08,266.93Z"/><path class="cls-1" d="M398.28,114.25c-8.67,0-16.06,2-21.37,5.65a21.39,21.39,0,0,0-9.22,15.1,31.63,31.63,0,0,0,.19,7.85,30.37,30.37,0,0,1,.17,8c-.45,2.88-2,5.47-3.94,6.6a4.59,4.59,0,0,1-2.36.67,5.62,5.62,0,0,1-1.84-.34c-5.48-6.36-10-10.59-16.76-13.35-1.94-.78-3.89-1.47-6.33-2.22l-3.52-1.13c-6.15-2-12.52-4.11-21.83-4.11-1.78,0-3.64.07-5.53.23-6,.49-10.56,1.61-14.56,5.65a47,47,0,0,0-6.42,8.82l-.33.54a65.3,65.3,0,0,1-4,5.85c-.79,1-1.72,2-2.68,3l-.21.22a31.07,31.07,0,0,0-3.72,4.47c-2.24,3.56-2.36,9.47-1.52,13.45,1.11,5.19,4.39,9.58,7.66,13.62.59.75,1.17,1.56,1.78,2.42l.58.8c2.09,3,4.45,6.39,7.71,8.13a17.33,17.33,0,0,0,8.31,1.73c.94,0,1.95,0,3.17-.12a20.63,20.63,0,0,0,3.65-.7l.46-.13a17.33,17.33,0,0,1,4.31-.78,6.39,6.39,0,0,1,1.18.11c6.68,1.19,14.23,5.85,19.07,9.8a46.32,46.32,0,0,1,7.09,7.19c1.59,2,3.08,4,4.87,6.41,2.71,3.63,5.77,7.74,9.19,11.71,2.28,2.68,5.5,5.75,10.07,5.75a12.35,12.35,0,0,0,4-.72,38,38,0,0,0,9.77-5.62c4.36-3.22,8.24-7.66,12-12,3.23-3.72,6.58-7.57,9.8-9.85a9,9,0,0,1,3.38-1.51L401,215v-.18l-.61-.49a10.17,10.17,0,0,0-3.85,1.7c-3.31,2.34-6.57,6.09-10.06,10.09-3.7,4.25-7.53,8.64-11.76,11.73a35.4,35.4,0,0,1-9.45,5.44,11,11,0,0,1-3.63.66c-4.08,0-6.93-2.69-9.19-5.32-3.41-4-6.45-8.07-9.13-11.66-1.73-2.32-3.3-4.41-4.9-6.43a46.57,46.57,0,0,0-7.27-7.38c-5-4.06-12.75-8.83-19.61-10.05a7.82,7.82,0,0,0-1.39-.12,17.9,17.9,0,0,0-4.67.84l-.28.07a20.3,20.3,0,0,1-3.54.69c-1.22.08-2.22.12-3.14.12a16,16,0,0,1-7.71-1.59c-3-1.57-5.15-4.69-7.3-7.74-.7-1-1.54-2.22-2.41-3.31-3.18-3.94-6.38-8.2-7.41-13.12-.79-3.75-.69-9.29,1.38-12.57a28.92,28.92,0,0,1,3.79-4.53c.93-1,1.9-2,2.72-3a65.62,65.62,0,0,0,4.37-6.51l.07-.11a46.42,46.42,0,0,1,6.21-8.5c3.75-3.78,8.06-4.84,13.8-5.31,1.85-.15,3.67-.23,5.41-.23,9.18,0,15.44,2.06,21.5,4.06l3.53,1.14c2.48.77,4.4,1.44,6.22,2.19,6.62,2.68,11,6.84,16.44,13.16l.21.14a6.87,6.87,0,0,0,2.39.45,6,6,0,0,0,3-.81c2.23-1.31,4-4.23,4.51-7.45a32.29,32.29,0,0,0-.17-8.27l-.5,0h0l.49-.15a31.8,31.8,0,0,1-.19-7.52,20.33,20.33,0,0,1,8.72-14.31c5.11-3.55,12.25-5.43,20.63-5.43.75,0,1.5,0,2.27,0l.52-.5v-.2l-.48-.5C399.76,114.27,399,114.25,398.28,114.25Z"/><path class="cls-1" d="M390.91,82.81a140.09,140.09,0,0,1-18,9.94,84.7,84.7,0,0,1-10.26,4,32.45,32.45,0,0,1-8.87,1.42,20.83,20.83,0,0,1-5.95-.85c-6.2-1.83-11.05-7.58-16.21-13.71l-.25-.29a93.72,93.72,0,0,0-8.44-9.14c-2.47-2.25-4.64-4.18-7.19-6.41a61.73,61.73,0,0,1-4.65-6.16l-.25-.38a56.62,56.62,0,0,0-6-7.76c-1.05-1.06-2.07-2.23-3-3.3a31.79,31.79,0,0,0-7-6.57c-3.93-2.48-8.21-3.14-12.36-3.79l-.24,0a49.33,49.33,0,0,1-7.46-1.6,9.1,9.1,0,0,0-2.85-.47c-5.57,0-10.08,5.28-13.38,9.13a133.5,133.5,0,0,0-8.26,11.2l-.12.18c-5.57,8.19-11.33,16.66-20.42,21.21a25.52,25.52,0,0,1-12.22,3.06c-5.35,0-10.52-1.53-15.54-3-2.78-.82-5.4-1.59-8.06-2.13a35.8,35.8,0,0,0-6.83-.71c-8,0-13,3.32-17.85,6.53-3.46,2.31-6.73,4.49-11,5.44a12.87,12.87,0,0,1-2.9.34,15.26,15.26,0,0,1-2.06-.15c-4.59-.6-8.86-3.57-13-6.46a51.73,51.73,0,0,0-10.5-6.07,44.71,44.71,0,0,0-15.84-2.55c-1.18,0-2.4,0-3.63.1-1.85.11-3.77.22-5.65.22-6.25,0-12.89-1.11-14.65-9.3-1.78-8.36,4.19-14.72,10-20.91,4.22-4.51,8.6-9.17,10.12-14.66.9-3.18.62-7.72.22-11a106.76,106.76,0,0,0-3.77-16.08q-.24-.89-.51-1.8L105.45,0h-.2l-.48.64.66,2.26A100.43,100.43,0,0,1,109,18.39c.31,2.57.71,7.35-.17,10.49-1.45,5.2-5.69,9.74-9.79,14.12l-.09.09C93,49.47,86.8,56.05,88.73,65c1,4.88,3.7,7.91,8.1,9.28a25.42,25.42,0,0,0,7.72,1c1.72,0,3.52-.08,5.7-.2,1.21-.07,2.41-.1,3.58-.1a43.59,43.59,0,0,1,15.4,2.46,51.16,51.16,0,0,1,10.31,6c4.45,3.06,8.65,6,13.46,6.61a17.43,17.43,0,0,0,2.2.15,14.21,14.21,0,0,0,3.19-.37c4.52-1,7.88-3.24,11.47-5.64,4.67-3.11,9.5-6.31,17.16-6.31a34.14,34.14,0,0,1,6.6.69c2.48.49,4.94,1.22,7.55,2l.44.13c5.07,1.5,10.31,3,15.83,3a26.66,26.66,0,0,0,12.76-3.2c9.39-4.72,15.23-13.29,20.87-21.58l.08-.11a128.14,128.14,0,0,1,8.26-11.23c3.32-3.86,7.46-8.66,12.43-8.66a7.91,7.91,0,0,1,2.48.41A52.36,52.36,0,0,0,282.25,41c4,.64,8.18,1.3,11.88,3.63A31.8,31.8,0,0,1,300.9,51c.86,1,1.93,2.21,3,3.31a52.32,52.32,0,0,1,5.81,7.49l.09.12a63.41,63.41,0,0,0,5.06,6.71l.83.73c2.16,1.91,4.14,3.65,6.4,5.69a101.47,101.47,0,0,1,8.46,9.2l.1.13c5.26,6.24,10.22,12.15,16.78,14.07a21.6,21.6,0,0,0,6.31.91,33.34,33.34,0,0,0,9.17-1.46,89.52,89.52,0,0,0,10.44-4.1,140.45,140.45,0,0,0,18.17-10A25.32,25.32,0,0,0,401,72.37l0-.19v-.49l-1-.18A24.1,24.1,0,0,1,390.91,82.81Z"/><path class="cls-1" d="M398.52,348c-10.08,1.73-16.72,9.61-19.18,22.79-.68,3.64-1,7.39-1.32,11l0,.58c-.27,3.15-.52,6.13-1,8.94l.5.58h.18l.49-.41c.5-2.92.78-6.07,1.05-9.32l.06-.67c.31-3.47.63-7,1.27-10.5,2.36-12.64,8.66-20.19,18.22-21.83a17.94,17.94,0,0,1,1.82-.23l.45-.5v-.18l-.53-.5A16.5,16.5,0,0,0,398.52,348Z"/><path class="cls-1" d="M326.17,381a90.32,90.32,0,0,0-4.54-11.62l-.29-.64c-1.06-2.43-1.92-4.95-2.93-8-1.94-5.85-4-11.9-8-16.32-3.6-3.93-9.47-6.19-16.09-6.19a25.32,25.32,0,0,0-10.29,2.08,30,30,0,0,0-8.84,5.81c-1.82,1.77-4.53,2.74-7.15,3.67l-.23.09a32.45,32.45,0,0,0-5.5,2.27c-5.16,2.93-8.39,7.05-9.36,11.89-.9,4.46-.8,10.15-.7,15.65v1.1c0,3,.08,6-.05,8.84,0,.54-.07,1.15-.13,1.74l.5.54h.19l.5-.47c0-.6.09-1.19.11-1.76.16-3.23.1-6.83,0-10-.09-5.17-.2-11,.68-15.41s3.95-8.35,8.79-11.1A33.77,33.77,0,0,1,268.3,351c2.79-1,5.67-2,7.73-4a29,29,0,0,1,8.51-5.59,24.32,24.32,0,0,1,9.8-2c6.29,0,11.83,2.12,15.22,5.82,3.89,4.26,5.84,10.17,7.73,15.89l.25.75c.87,2.58,1.69,5,2.72,7.33l.35.77A89.91,89.91,0,0,1,325,381.34c.6,2.1,1.12,4.44,1.64,6.79l.17.75c.2.91.4,1.81.61,2.67l.49.38h.19l.49-.61c-.27-1.1-.53-2.26-.79-3.44C327.31,385.48,326.79,383.15,326.17,381Z"/><path class="cls-1" d="M315.48,374.9a14.43,14.43,0,0,0-2-3.33,18.53,18.53,0,0,1-1.54-2.31,33.18,33.18,0,0,1-1.73-4c-1.65-4.21-3.35-8.57-8.13-9.84a17.26,17.26,0,0,0-4.45-.43c-1.92,0-3.93.14-5.81.3-.73,0-1.4.1-2,.16a33.63,33.63,0,0,0-17.14,6.12c-5.79,4.22-7.45,11.28-8.2,16.23-.88,5.52-.66,9.88.68,13.33.07.16.14.33.21.52l.46.31H266l.47-.68c0-.12-.1-.22-.15-.33l-.12-.28c-1.63-4.21-1.12-9.27-.6-12.7.72-4.74,2.31-11.5,7.74-15.45a32.72,32.72,0,0,1,16.5-5.91c.52,0,1.07-.06,1.65-.11l.38,0c1.68-.14,3.77-.32,5.73-.32a16.09,16.09,0,0,1,4.15.43c4.2,1.11,5.78,5.16,7.33,9.14a37.77,37.77,0,0,0,1.79,4.13,17.91,17.91,0,0,0,1.57,2.36l.11.15a14.68,14.68,0,0,1,1.85,3,41.66,41.66,0,0,1,2.13,9.26,45.36,45.36,0,0,1,.42,6.84l.5.5h.18l.5-.49a45.61,45.61,0,0,0-.43-7A42.28,42.28,0,0,0,315.48,374.9Z"/><path class="cls-1" d="M400.3,361.79h0c-9.06.82-14.11,10.5-15.44,29.61l.5.53h.2l.5-.46c1.26-18.34,5.93-27.66,14.26-28.49l.21,0,.5-.5v-.18l-.34-.47A.9.9,0,0,0,400.3,361.79Z"/><path class="cls-1" d="M397.9,385.45l-.13.11-.07.08a13.57,13.57,0,0,0-2.15,5.75l.5.54h.18l.5-.45a12.55,12.55,0,0,1,1.92-5.09,4.84,4.84,0,0,1,1.9-.67l.45-.5v-.16l-.54-.5A5.83,5.83,0,0,0,397.9,385.45Z"/><path class="cls-1" d="M103.33,366.57c1.4-4.56,3.82-7.38,7.65-11.61.45-.51.93-1,1.44-1.54l.51-.53c2.8-2.89,6-6.17,6.69-9.67,1.46-7.07-3.09-11.25-7.22-14.1a50.15,50.15,0,0,0-6.82-3.75,38.46,38.46,0,0,1-8.43-5.05,27.67,27.67,0,0,1-6.77-9.7,24.44,24.44,0,0,1-1.53-5.42l-.06-.33a26.29,26.29,0,0,0-1.57-5.82c-3.75-8.39-8.66-17.86-16.64-24.49-3.39-2.8-7.67-7.25-8.78-12.47-.73-3.43.29-6.43,1.12-8.86l.14-.43c1.85-5.52,7.42-18.71,19-22a69.27,69.27,0,0,1,6.87-1.44l.5-.09a56.17,56.17,0,0,0,9.67-2.19,37.12,37.12,0,0,0,10.13-6l.45-.34c2.66-2,6-4.6,10.18-4.6.27,0,.53,0,.79,0,4.07.35,8.66,2.46,12.62,5.81s6.71,7.47,7.4,11.24c.42,2.4.63,4.32.84,6.41l.08.8c.15,1.41.29,2.75.56,4.24a32,32,0,0,0,12.66,21c5.57,4.1,13,7,22,8.52a40,40,0,0,0,6.86.58,45.22,45.22,0,0,0,18.62-4.11c6-2.81,12.31-9.45,17.76-15.46s8.39-9.63,9-19.21a57.07,57.07,0,0,0-.26-8.73l-.12-1.4c-.05-.71-.11-1.42-.16-2.13s-.11-1.68-.19-2.57a33.66,33.66,0,0,1,0-8.75c1-5.47,3.89-8.13,9-8.13.52,0,1.07,0,1.64.08a21.67,21.67,0,0,1,18.2,13.81c2.26,6,.44,12.38-1,17.5l-.28,1c-2.46,8.57-5.8,15.27-10.22,20.47-2.53,2.95-5.32,5.72-8,8.4-1,1-2,2-3,3a58.84,58.84,0,0,1-4.47,4,50.73,50.73,0,0,0-5.6,5.2,45.74,45.74,0,0,0-5.63,8.41,118.43,118.43,0,0,0-9.94,23.09,19.44,19.44,0,0,1-13.08,12.93,46,46,0,0,1-13.47,1.76,111.53,111.53,0,0,1-22.45-2.69c-7.4-1.56-11.79-5.79-13.05-12.56-1.52-8.18-7-12.21-12.78-16.48-1.36-1-2.94-2.17-4.43-3.37-5.71-4.67-2.95-9,.28-14a26.38,26.38,0,0,0,3.56-7c1-3.78-.26-7.7-1.55-11.57a37.87,37.87,0,0,1-1.55-5.52c-1.49-8.76-3-15.69-7.56-18.6a9.31,9.31,0,0,0-5.06-1.38,17,17,0,0,0-4.58.71c-.64.15-1.34.36-2.08.59-1.49.44-3.19.94-4.57,1.24a73.73,73.73,0,0,1-7.58,1.18l-.28,0c-2.76.35-5.61.71-8.75,1.37a24,24,0,0,0-12.72,7,22.93,22.93,0,0,0-6,12.62,13.25,13.25,0,0,0,.21,5.79c1.66,5.61,6.67,9.51,11.12,13,1.09.84,2,1.53,2.87,2.26l.15.13c4.15,3.42,9.31,7.69,9.12,13.42-.21,6.22.59,10.76,2.67,15.17,3.28,6.93,7.89,11.13,15.92,14.48l1.79.73a72.65,72.65,0,0,1,8,3.7,20.66,20.66,0,0,1,4.93,4.18c.79.83,1.68,1.77,2.71,2.67a29.71,29.71,0,0,1,3.42,3.78c2.73,3.37,5.82,7.2,10.43,7.2a9.2,9.2,0,0,0,1.64-.16c2.75-.53,5.4-2.37,8.21-4.31l.1-.07a38.3,38.3,0,0,1,7.7-4.54c4.7-1.84,11.37-2.29,18.44-2.76l.18,0c4.36-.29,8.86-.59,13-1.24,9.51-1.5,15.95-4.86,19.69-10.25a24.1,24.1,0,0,0,2.56-5.13,28.8,28.8,0,0,1,1.76-3.88,9.12,9.12,0,0,1,1.94-2.19l.11-.1a16.5,16.5,0,0,0,1.36-1.31c.77-.86,1.53-1.78,2.19-2.58l.14-.17c.73-.89,1.48-1.81,2.28-2.67,1.17-1.27,2.48-2.46,3.76-3.61l.6-.54c1.32-1.21,2.7-2.45,4-3.79a29.62,29.62,0,0,0,2.76-3.54l.07-.1a24.43,24.43,0,0,1,3-3.74,52.12,52.12,0,0,0,6.21-7.08,23.43,23.43,0,0,0,2.91-6.41l.13-.38c.22-.75.45-1.45.71-2.15a21.15,21.15,0,0,1,2.48-4.52l.07-.11c.62-.93,1.21-1.85,1.71-2.77a88.22,88.22,0,0,0,4.87-10.4c.21-.56.41-1.11.61-1.66s.29-.82.44-1.23c.07-.2.36-1,.42-1.18.65-1.8,1.35-3.63,2-5.4l.14-.38a109.72,109.72,0,0,0,4.88-15c.68-3.14,1.28-6.48.54-9.86-2.44-11.34-13.46-23.19-23.58-25.37a35.38,35.38,0,0,0-7.26-.69,50.4,50.4,0,0,0-9.24.89c-10.13,1.9-13.88,6.79-13.37,17.45.09,1.89.25,3.81.41,5.67l.14,1.56c.46,5.08.91,9.87.37,14.49a24.3,24.3,0,0,1-1.81,6.49A121.09,121.09,0,0,1,205,253c-4,6.24-9.33,10.78-14.69,12.48a28.24,28.24,0,0,1-8.56,1.25c-8.64,0-17.54-3.34-23.24-8.73-4-3.72-8.17-10.07-5.83-19.2a12.17,12.17,0,0,1,.63-1.66,12.62,12.62,0,0,0,.85-2.34,46,46,0,0,1,4.27-5.88c3.5-4.34,6.81-8.44,5.52-14.4a20.25,20.25,0,0,0-1.18-3.36l0-.11c-1-2.33-1.94-4.73-.9-6a86.76,86.76,0,0,1,8.09-8.31c5.38-5.13,11-10.42,12.56-15.49s-1.67-10.23-3.1-12.38c-1.23-1.86-2.6-3.74-4-5.74l-1.24-1.71c-1.32-1.8-2.68-3.66-4-5.51l-2.77-4-1.53-2.19c-2.19-3.16-4.26-6.13-6.39-9.32-.68-1-1.35-2.07-2-3.12l-.93-1.46c-1.58-2.5-3.21-5.08-4.86-7.28-3.13-4.2-6.65-6.32-10.46-6.32a10.77,10.77,0,0,0-2.16.22c-4.46.91-9.13,4.21-13.53,7.5-.57.42-1.13.84-1.68,1.27l-.12.09c-7.75,5.82-16.55,12.42-18.9,19.85-2.06,6.55,1.86,9.69,5.66,12.72.41.33.82.66,1.23,1a47.73,47.73,0,0,1,6,6,73.82,73.82,0,0,1,5.83,8.37l.25.41c1.21,1.92,2.35,3.74,3.5,5.24,4.24,5.56,9.69,8,15,10.39l.19.09c5,2.24,10.25,4.56,14.18,9.63,0,0,0,.54,0,.54a4.89,4.89,0,0,1-.07,1.23,14.33,14.33,0,0,1-10.89,5,21.41,21.41,0,0,1-6.69-1.19,43.79,43.79,0,0,1-6.82-3.24c-4.17-2.26-8.49-4.6-13.3-4.6a14.69,14.69,0,0,0-4.25.64c-4.66,1.4-7.86,4.65-11,7.82-3,3-6,6.17-10.46,7.71A37,37,0,0,1,84,220.4c-9.82.74-14.59,1.89-18.68,7.08A128.78,128.78,0,0,0,51.59,250.9a30.6,30.6,0,0,0-1.51,4.56c-1.72,8.67,3.57,15.46,8.38,20.41,1.11,1.13,2.35,2.2,3.63,3.29l.15.13c1,.88,2.09,1.79,3.07,2.74a45.83,45.83,0,0,1,5.36,7l.58.85c.64.95,1.31,1.93,2,2.87,6.4,8.52,8.33,15.95,6.28,24.09C78,322.63,74.65,330,66.94,332a69.52,69.52,0,0,1-9.35,1.49l-.69.08a85.57,85.57,0,0,0-8.81,1.38c-2.79.64-5.42,1.46-7.88,2.24l-.5.16a57,57,0,0,1-9.66,2.39,28,28,0,0,1-3.8.25,54,54,0,0,1-12.2-1.81l-.31-.07a47.78,47.78,0,0,0-10.67-1.67,20.67,20.67,0,0,0-2.64.17l-.43.49v.2l.57.49a18.92,18.92,0,0,1,2.54-.16,46.88,46.88,0,0,1,10.36,1.62,55.21,55.21,0,0,0,12.79,1.92,30.35,30.35,0,0,0,3.95-.26,60.6,60.6,0,0,0,10.16-2.53l.19-.07c2.45-.77,5.07-1.58,7.81-2.2a87.9,87.9,0,0,1,9.35-1.43l.15,0a70.67,70.67,0,0,0,9.36-1.51c6.57-1.7,11.22-7.24,13.44-16,2.16-8.51.17-16.25-6.46-25.12-.75-1-1.47-2.07-2.17-3.1l-.46-.67a44.7,44.7,0,0,0-5.45-7c-1-1-2.07-1.93-3.26-2.94l-.11-.09c-1.16-1-2.36-2-3.45-3.15-4.61-4.72-9.69-11.18-8.05-19.35a27.25,27.25,0,0,1,1.44-4.33,126.43,126.43,0,0,1,13.57-23.13c3.82-4.85,8.39-5.94,17.85-6.66a36.29,36.29,0,0,0,9.4-1.51c4.63-1.59,7.79-4.79,10.84-7.88l.09-.09c3.12-3.19,6.08-6.21,10.47-7.52a13.35,13.35,0,0,1,3.9-.58c4.53,0,8.71,2.26,12.76,4.45l.38.2a44.19,44.19,0,0,0,6.62,3.12,22.6,22.6,0,0,0,7.07,1.25,15.59,15.59,0,0,0,11.88-5.44l.13-.25a5.53,5.53,0,0,0,.11-1.83v-.63l-.13-.33c-4.13-5.43-9.55-7.85-14.79-10.19s-10.53-4.68-14.64-10.07c-1.17-1.55-2.37-3.45-3.7-5.58a74.2,74.2,0,0,0-5.93-8.51,49.94,49.94,0,0,0-6.14-6.18l-.67-.55-.58-.46c-3.8-3-7.09-5.69-5.26-11.45,2.23-7.05,10.84-13.52,18.43-19.23l.14-.11c.57-.41,1.15-.85,1.7-1.28,4.07-3.06,8.76-6.41,13-7.28a9.79,9.79,0,0,1,1.92-.2c3.43,0,6.64,2,9.53,5.85,1.46,1.93,2.92,4.23,4.33,6.45l.8,1.27c.85,1.35,1.73,2.75,2.62,4.08,2.09,3.14,4.13,6.07,6.29,9.18l1.08,1.55c.59.83,1.18,1.68,1.78,2.54l1.57,2.25c1.52,2.21,3.14,4.41,4.22,5.88l.14.18c1.76,2.41,3.43,4.69,4.88,6.88,1.33,2,4.44,6.73,3,11.36s-6.88,9.84-12.08,14.79L169,196a90.11,90.11,0,0,0-8,8.29c-1.48,1.87-.29,4.71.76,7.21l.05.12a19.07,19.07,0,0,1,1.09,3.14c1.18,5.41-2,9.29-5.31,13.43l-.1.12a46.3,46.3,0,0,0-4.33,6.06l0,.09a10.89,10.89,0,0,1-.81,2.21l-.17.41a9.27,9.27,0,0,0-.5,1.42c-1.94,7.56.26,14.79,6.17,20.36s15.11,9.05,24.06,9.05a29.68,29.68,0,0,0,8.92-1.29c5.62-1.81,11.19-6.53,15.3-13a119.46,119.46,0,0,0,8.92-16,25.45,25.45,0,0,0,1.89-6.8c.54-4.68.12-9.48-.34-14.55v-.18c-.23-2.44-.45-4.82-.56-7.17-.24-5.13.53-8.69,2.42-11.2s5.12-4.14,10-5a49.26,49.26,0,0,1,9-.87,33.41,33.41,0,0,1,7,.68C254.05,194.62,264.64,206,267,217c.68,3.11.11,6.33-.53,9.36a108,108,0,0,1-4.87,14.9l-.63,1.67c-.5,1.35-1,2.71-1.49,4l-.45,1.23c-.32.93-.68,1.9-1,2.84a85.81,85.81,0,0,1-4.79,10.25c-.41.76-.92,1.54-1.41,2.3l-.36.56a21.94,21.94,0,0,0-2.58,4.72l-.46,1.34-.28.85a22.78,22.78,0,0,1-2.85,6.45,50.92,50.92,0,0,1-6.09,6.92,26.89,26.89,0,0,0-3.13,3.88l-.08.12a27.1,27.1,0,0,1-2.65,3.42c-1.25,1.34-2.66,2.61-4,3.8l-.1.09c-1.43,1.29-2.9,2.62-4.25,4.08-.87,1-1.7,1.94-2.45,2.87s-1.43,1.73-2.15,2.53c-.41.45-.87.88-1.27,1.24a10.65,10.65,0,0,0-2.28,2.58,28.51,28.51,0,0,0-1.85,4,25,25,0,0,1-2.4,4.91c-3.55,5.11-9.74,8.3-18.93,9.74-4.14.66-8.81,1-12.93,1.25h-.16c-7.17.48-13.94.93-18.82,2.85a39.07,39.07,0,0,0-7.95,4.64c-2.72,1.91-5.3,3.71-7.83,4.19a7.76,7.76,0,0,1-1.42.14c-4,0-6.94-3.57-9.53-6.74l-.2-.26a28.88,28.88,0,0,0-3.35-3.67,36.17,36.17,0,0,1-2.63-2.61l-.08-.08a21.43,21.43,0,0,0-5.12-4.31,76.59,76.59,0,0,0-8.2-3.77l-.88-.35-.88-.36c-7.75-3.25-12.18-7.27-15.29-13.88-2-4.22-2.76-8.6-2.56-14.65.21-6.28-5.2-10.76-9.59-14.4l-.12-.08c-1-.82-2-1.63-2.9-2.31-4.5-3.5-9.15-7.12-10.71-12.35a12.26,12.26,0,0,1-.15-5.3c1.3-9.45,8.11-16.56,17.78-18.57,2.89-.61,5.55-1,8.12-1.28l.81-.1c2.77-.35,5.27-.68,7.7-1.22,1.46-.31,3.23-.83,4.65-1.25.72-.22,1.4-.43,2-.6a16.17,16.17,0,0,1,4.25-.65,8.08,8.08,0,0,1,4.47,1.2c4.15,2.62,5.58,9.31,7,17.78a37.28,37.28,0,0,0,1.57,5.65l.47-.16-.43.29c1.21,3.62,2.46,7.37,1.53,10.8a25.61,25.61,0,0,1-3.37,6.54l-.1.16c-3.2,5-6.52,10.18,0,15.5,1.55,1.27,3.13,2.44,4.48,3.42,5.6,4.12,10.88,8,12.32,15.75,1.37,7.3,6.07,11.83,14,13.49a111.86,111.86,0,0,0,22.71,2.72,46.81,46.81,0,0,0,13.79-1.81A20.59,20.59,0,0,0,210,309.6a116.28,116.28,0,0,1,9.86-22.88,45,45,0,0,1,5.47-8.18,48.16,48.16,0,0,1,5.49-5.08l.31-.26c1.41-1.19,2.88-2.43,4.22-3.78,1-1,2-2.06,3-3,2.43-2.41,5.45-5.4,8.08-8.48,4.53-5.31,7.94-12.15,10.44-20.91l.25-.86c1.54-5.3,3.46-11.89,1-18.36A22.93,22.93,0,0,0,239,203.19c-.59-.05-1.17-.08-1.72-.08-5.71,0-9.13,3.07-10.15,9.12a33.86,33.86,0,0,0,0,9.05l0,.3c.07.78.12,1.51.17,2.25.09,1.15.17,2.28.27,3.38v.11a58.37,58.37,0,0,1,.28,8.61c-.64,9.2-3.43,12.67-8.73,18.5s-11.67,12.49-17.39,15.16a44.43,44.43,0,0,1-18.15,4,38.57,38.57,0,0,1-6.64-.57c-19.61-3.39-30.94-13-33.67-28.55-.27-1.65-.44-3.18-.6-5l-.06-.51c-.19-1.81-.39-3.68-.81-6-.72-4-3.56-8.36-7.79-11.94s-9-5.72-13.29-6.06c-.31,0-.61,0-.91,0-4.6,0-8.08,2.68-10.89,4.84l-.42.33A36.45,36.45,0,0,1,98.66,226,58.59,58.59,0,0,1,89.59,228l-.41.07a74.33,74.33,0,0,0-7.48,1.54c-12.06,3.45-17.85,17.07-19.78,22.78l-.13.44c-.82,2.4-1.95,5.69-1.15,9.47,1.18,5.57,5.65,10.22,9.19,13.15,7.88,6.53,12.66,15.83,16.31,24.06a25.35,25.35,0,0,1,1.49,5.54l.06.31a24.83,24.83,0,0,0,1.61,5.72,28.84,28.84,0,0,0,7.07,10.1,37.71,37.71,0,0,0,8.52,5.11l.43.22a47.88,47.88,0,0,1,6.4,3.54c4.07,2.83,8.06,6.57,6.73,12.9-.66,3.22-3.83,6.46-6.37,9.07-.71.74-1.37,1.43-2,2.12-3.9,4.28-6.37,7.15-7.87,12-1.1,3.63-1.19,10.09-.19,14.71.84,3.92,1.87,7.58,2.75,10.64l.48.36h.2l.48-.63c-.89-3.08-1.91-6.74-2.75-10.62C102.22,376.21,102.29,370,103.33,366.57Z"/></g></g></svg>
