<svg xmlns="http://www.w3.org/2000/svg" viewBox="0 0 400 398.63"><defs><style>.cls-1{fill:#292933;}</style></defs><title>topography.svg</title><g id="Layer_2" data-name="Layer 2"><g id="Layer_1-2" data-name="Layer 1"><path class="cls-1" d="M7.72,70c3.68,1.67,7.49,3.38,13.74,1.78,6-1.55,18.93-9,20.45-14.38a11,11,0,0,0-.44-6.18A17.4,17.4,0,0,1,41,49.24c-.51-3-.78-5.25-1.1-7.88-.11-1-.25-2.13-.39-3.32-.73-5.7-1.85-11-3-16.72-.35-1.75-.73-3.56-1.1-5.39-.45-2.27-1.11-4.49-1.74-6.65-.59-2-1.19-4-1.63-6.08A28.94,28.94,0,0,1,31.52,0H30.39a26.08,26.08,0,0,0,.52,3.42c.44,2.11,1.06,4.17,1.65,6.19s1.26,4.31,1.71,6.55c.38,1.82.75,3.62,1.13,5.4,1.16,5.64,2.26,11,3,16.62.15,1.19.28,2.27.4,3.32.3,2.51.58,4.9,1.1,7.92.11.67.31,1.36.5,2.07A10,10,0,0,1,40.83,57c-1.31,4.64-13.39,12-19.65,13.61-5.88,1.51-9.49-.11-13-1.7C5.73,67.83,3.2,66.68,0,66.7v1.12C3,67.82,5.28,68.86,7.72,70Z"/><path class="cls-1" d="M15.27,115.41c2.89.62,5.88,1.26,8.42,2,5,1.36,7.58,3.74,8.34,7.65A45.64,45.64,0,0,1,32.3,135a66.84,66.84,0,0,0,.11,10.58c1.25,11.14,8.57,12.28,15.65,13.36A83.52,83.52,0,0,0,61,160.18c7.3,0,12.84-2,14.32-8.81,1.19-5.55.36-12.15-.51-19.17-.42-3.34-.85-6.8-1.06-10.22a67.27,67.27,0,0,0-.76-7.55c-1-5.73-3.65-9.56-6.18-13.28S62,94.08,61,89c-1.27-6.64-1.32-12-.2-15.8,1.24-4.17,5.1-3.9,10-3.59a43,43,0,0,0,6.23.08h.24a29,29,0,0,0,5.09-.75c8.27-2.2,7.54-8.94,6-16.24-.16-.66-.31-1.33-.48-2-.59-2.34-1.16-4.6-.46-6.68a17.76,17.76,0,0,1,3.07-5.23,20.8,20.8,0,0,0,3.67-6.38c.12-.43.28-.84.4-1.27.35-1.07.68-2.09,1.08-3.19A40.56,40.56,0,0,1,99,21.35a40.07,40.07,0,0,0,3.34-6.51,6.14,6.14,0,0,0,.18-3C101,6.53,87.92,3,87.37,2.85A39.37,39.37,0,0,0,82.23,2,29.6,29.6,0,0,1,78,1.22C76.72.91,75.4.49,74,0H70.86a61.17,61.17,0,0,0,6.81,2.32,40.13,40.13,0,0,0,4.41.75,38.61,38.61,0,0,1,5,.86c5.23,1.39,13.37,4.74,14.36,8.25a4.74,4.74,0,0,1-.17,2.29A37.51,37.51,0,0,1,98,20.79a41,41,0,0,0-3.48,6.75c-.41,1.12-.73,2.15-1.09,3.24-.13.41-.27.84-.42,1.28a20.18,20.18,0,0,1-3.49,6,18.78,18.78,0,0,0-3.24,5.54c-.81,2.39-.19,4.79.45,7.31.14.65.31,1.31.46,1.95,1.52,7,2.17,13-5.17,14.92a30.8,30.8,0,0,1-4.89.72H76.9a42.1,42.1,0,0,1-6.05-.1c-4.95-.32-9.63-.61-11.12,4.38-1.19,4-1.15,9.53.16,16.35,1,5.32,3.55,9,6,12.59s5,7.37,6,12.86a72.62,72.62,0,0,1,.75,7.41c.19,3.45.63,6.93,1,10.29.86,6.92,1.68,13.43.52,18.79-2,9.54-13.45,8.6-25.95,6.67-8.45-1.32-13.64-2.81-14.72-12.38a69.88,69.88,0,0,1-.1-10.43,46.89,46.89,0,0,0-.28-10.2c-.86-4.4-3.68-7-9.17-8.52-2.54-.68-5.56-1.34-8.46-2-1.54-.32-3.14-.67-4.65-1C8.15,112.66,4.52,112,0,111.36v1.13q6.63,1,10.61,1.9C12.11,114.72,13.73,115.06,15.27,115.41Z"/><path class="cls-1" d="M7.31,45.21c.77,0,1.7,0,2.7.1,1.22,0,2.59.14,4,.14,3,0,7.33-.28,10.39-2.63,3.7-2.83,5-7.09,4.32-13.79-.52-4.76-2-9.35-3.52-14.22A82.05,82.05,0,0,1,21.53,0h-.76a82.41,82.41,0,0,0,3.74,15A71.72,71.72,0,0,1,28,29.11c.69,6.41-.56,10.47-4,13.12-2.86,2.21-7,2.46-9.92,2.46-1.4,0-2.78-.07-4-.13-1-.05-1.93-.1-2.72-.1a9.29,9.29,0,0,0-1.56.1A17.35,17.35,0,0,0,0,46.68v.86a17,17,0,0,1,5.88-2.25A10.33,10.33,0,0,1,7.31,45.21Z"/><path class="cls-1" d="M137.28,10.22c.08.62.17,1.19.21,1.72,1.49,6.77,5.4,10.19,11.67,10.19h0a20.14,20.14,0,0,0,3.19-.26c6.12-1,19-4.62,24.39-7.88,5.79-3.48,8.66-9.37,10.11-14h-.39c-1.42,4.53-4.28,10.3-9.9,13.67-5.37,3.24-18.16,6.86-24.26,7.82a19.86,19.86,0,0,1-3.14.28h0c-6.06,0-9.88-3.34-11.31-9.88,0-.51-.11-1.1-.21-1.71A21,21,0,0,1,137.46,4a14.86,14.86,0,0,1,1.38-4h-.41a14.91,14.91,0,0,0-1.35,4A22,22,0,0,0,137.28,10.22Z"/><path class="cls-1" d="M2.6,18.92c2.73,0,6.41-.52,8.43-3C13.4,13.05,14.39,6.46,14.08,0h-.34c.3,6.34-.67,12.86-3,15.69-1.5,1.84-4.4,2.85-8.14,2.85h0A22.28,22.28,0,0,1,0,18.39v.36a20.64,20.64,0,0,0,2.6.17Z"/><path class="cls-1" d="M2.22,4.14A5.08,5.08,0,0,0,4.1,0H3.72A4.7,4.7,0,0,1,2,3.85a3.26,3.26,0,0,1-2,.64H0v.36s0,0,0,0A3.8,3.8,0,0,0,2.22,4.14Z"/><path class="cls-1" d="M52.1,35.78a5.12,5.12,0,0,0,3.27,1.39h0a4.46,4.46,0,0,0,3.27-1.59c2.37-2.44,3.68-7.17,3.58-10.39-.23-1-.44-2.16-.65-3.38C60.73,17,59.68,11,55.73,8.2c-2.54-1.79-4.89-1.62-6.66.46-2.14,2.48-3.17,7.47-2.49,11.9.31,1.25.55,2.6.77,3.9C48.08,28.67,48.84,33,52.1,35.78ZM49.35,8.91a4,4,0,0,1,3.07-1.57,5.47,5.47,0,0,1,3.09,1.15c3.82,2.68,4.86,8.61,5.7,13.38.21,1.23.4,2.38.63,3.37.11,3.1-1.17,7.73-3.47,10.09a4.22,4.22,0,0,1-3,1.46h0a4.76,4.76,0,0,1-3-1.29c-3.16-2.66-3.9-6.95-4.62-11.11-.23-1.3-.46-2.65-.77-3.91C46.29,16.18,47.3,11.31,49.35,8.91Z"/><path class="cls-1" d="M187.58,37.54c-3.38-2.79-7.61-5.39-15.68-5.39-1.3,0-2.72.09-4.19.22-7.72.7-18.35,5.2-25.46,9.38-1.74,1-7,4.1-5.11,8.79a37.4,37.4,0,0,0,16.17,15.75,33,33,0,0,0,11.43,3.48c.54,0,1.09.07,1.63.07h0c6.46,0,14.37-3.1,20.66-8.09a16,16,0,0,0,6.4-12.3A15.17,15.17,0,0,0,187.58,37.54Zm-.79,23.93c-6.21,4.93-14,8-20.42,8-.54,0-1.08,0-1.6-.07A32.38,32.38,0,0,1,153.46,66a37.14,37.14,0,0,1-16-15.58c-1.78-4.35,3.29-7.32,5-8.29,7.09-4.14,17.65-8.63,25.32-9.33a40.87,40.87,0,0,1,4.15-.22c8,0,12.13,2.54,15.44,5.32a14.67,14.67,0,0,1,5.71,11.58A15.68,15.68,0,0,1,186.79,61.47Z"/><path class="cls-1" d="M177.32,41.11A14.11,14.11,0,0,0,169,38.78c-7,0-15.15,3.55-16.83,9.49A7.69,7.69,0,0,0,152,51a10.17,10.17,0,0,1,.07,1.65v0l0,0c2.3,6.88,9,9.33,14.48,9.33h0c6.86,0,14.72-3.8,15.72-12.14h0v0A13.32,13.32,0,0,0,177.32,41.11ZM166.6,61.73h0c-5.34,0-11.86-2.39-14.13-9.07a15.44,15.44,0,0,0-.06-1.67,7.36,7.36,0,0,1,.09-2.62c1.64-5.76,9.65-9.21,16.48-9.21a13.91,13.91,0,0,1,8.14,2.24,12.93,12.93,0,0,1,4.84,8.54C181,58,173.31,61.73,166.6,61.73Z"/><path class="cls-1" d="M250.27,47.85A9.12,9.12,0,0,0,245,46.32a11.17,11.17,0,0,0-6.4,1.91,56.43,56.43,0,0,0-5.13,4.67,55.35,55.35,0,0,1-4.6,4.29,92.64,92.64,0,0,1-21.29,12.35,73.68,73.68,0,0,0-10.64,5.76c-1.95,1.26-3.76,2.62-5.5,3.93s-3.3,2.48-5,3.56a63.76,63.76,0,0,1-9.7,4.86A45.7,45.7,0,0,1,168,90.32a21.27,21.27,0,0,1-2.58.18,19.93,19.93,0,0,1-6.52-1.25,24.08,24.08,0,0,0-4.32-1.11,10.58,10.58,0,0,0-1.47-.1c-6.15,0-8.62,5.88-10.11,9.39l-.23.56a58.08,58.08,0,0,0-4.23,26c.32,6.74,0,10.12-2.88,13.61a50.4,50.4,0,0,1-4.5,4.68c-3.44,3.25-6.39,6-6.88,11-1,5.45,1,11.86,5.11,16.75a19.26,19.26,0,0,0,14.54,7.29h0a18.61,18.61,0,0,0,6-1.06c6.06-2.19,15.77-12.73,19.17-19.48l1.33-2.73c2.71-5.5,5-10.27,9.48-14.09a38.16,38.16,0,0,1,10.94-6.89c3.68-1.51,8-2.09,12.58-2.69,6.12-.82,12.42-1.65,17.11-4.93,7.42-6.15,16.59-14.27,21.49-22.53a110.6,110.6,0,0,0,6.83-14.83c1.46-3.93.66-10-.14-16-.21-1.53-.41-3.12-.58-4.61a20.42,20.42,0,0,0,.36-2.19,21.24,21.24,0,0,1,1.27-5.3,16.81,16.81,0,0,1,.76-1.66C252.07,55.31,254.36,50.71,250.27,47.85ZM250.2,58.2c-.32.65-.59,1.21-.78,1.67a22.63,22.63,0,0,0-1.27,5.42c-.12.76-.21,1.47-.36,2.19v.06c.16,1.5.37,3.1.59,4.66.77,5.85,1.57,11.91.14,15.76a108,108,0,0,1-6.78,14.78c-4.9,8.21-14,16.31-21.41,22.43-4.59,3.21-10.86,4-16.94,4.85-4.6.61-8.94,1.18-12.67,2.73a38.51,38.51,0,0,0-11.05,6.93c-4.49,3.89-6.83,8.69-9.56,14.23-.43.87-.86,1.78-1.33,2.71-3.38,6.69-13,17.14-19,19.28a17.27,17.27,0,0,1-5.87,1h0a18.87,18.87,0,0,1-14.26-7.14c-4-4.8-6-11.09-5-16.45.47-4.82,3.38-7.58,6.76-10.77a48.72,48.72,0,0,0,4.56-4.7c2.95-3.59,3.29-7,2.95-13.87-.48-9.62.88-18.09,4.2-25.86l.25-.58c1.43-3.42,3.83-9.16,9.74-9.16a8.86,8.86,0,0,1,1.43.11,22.26,22.26,0,0,1,4.24,1.08,19.76,19.76,0,0,0,6.64,1.26,18.9,18.9,0,0,0,2.64-.18A45.37,45.37,0,0,0,176.91,88a65.5,65.5,0,0,0,9.76-4.89c1.68-1.08,3.28-2.29,5-3.56s3.55-2.66,5.49-3.92a72.44,72.44,0,0,1,10.58-5.74c8.82-3.86,15.61-7.79,21.38-12.41a59.27,59.27,0,0,0,4.63-4.29,53,53,0,0,1,5.08-4.66A11,11,0,0,1,245,46.7a8.79,8.79,0,0,1,5.06,1.45C253.88,50.84,251.66,55.27,250.2,58.2Z"/><path class="cls-1" d="M95.09,93.32h0A6.19,6.19,0,0,0,99.86,91c1.66-2.11,2.09-5.59,1.09-8.66a6.54,6.54,0,0,0-4.12-4.59,3.87,3.87,0,0,0-4.23,1.2C90.4,81.47,90,86.78,90.36,89.8A4.85,4.85,0,0,0,95.09,93.32ZM92.88,79.19a3.41,3.41,0,0,1,2.64-1.28,4.08,4.08,0,0,1,1.21.18,6.2,6.2,0,0,1,3.87,4.34c1,3,.55,6.3-1,8.32A5.82,5.82,0,0,1,95.09,93h0a4.49,4.49,0,0,1-4.37-3.25C90.33,86.79,90.75,81.63,92.88,79.19Z"/><path class="cls-1" d="M220.06,78.41a13.36,13.36,0,0,0-2.15-.18c-4.94,0-11.3,2.51-15.41,6.09-.93.82-1.71,1.59-2.5,2.33s-1.8,1.74-2.93,2.71a54.89,54.89,0,0,1-11,6.74c-4.63,2.33-9,4.55-11.82,8.21a10.88,10.88,0,0,0-2.33,7.49l0,.06c.12.35.25.7.38,1.07,1.83,5.26,3.76,10.73,11.76,10.73h.52a45.55,45.55,0,0,0,6-.8c2.39-.41,5.1-.87,7.9-1.07,10.33-.7,15.08-1.65,20.4-8.36a27.92,27.92,0,0,0,5.34-11.52,48.47,48.47,0,0,0,.37-7.85c0-1.57,0-3.06,0-4.45l0-.81C224.93,83.26,225.11,79.26,220.06,78.41Zm4.21,10.36-.06.82c-.07,1.4-.06,2.89-.06,4.46a44.63,44.63,0,0,1-.33,7.79,27.68,27.68,0,0,1-5.29,11.35c-5.22,6.59-9.9,7.53-20.12,8.23a68.08,68.08,0,0,0-7.94,1.08,44.72,44.72,0,0,1-5.91.77l-.5,0c-7.74,0-9.6-5.34-11.41-10.5-.12-.34-.26-.69-.37-1a10.47,10.47,0,0,1,2.25-7.21c2.75-3.59,7.1-5.81,11.69-8.11a54.76,54.76,0,0,0,11.09-6.8c1.15-1,2.07-1.85,3-2.72s1.56-1.52,2.47-2.3c4-3.54,10.3-6,15.17-6a11.45,11.45,0,0,1,2.08.17C224.73,79.58,224.53,83.23,224.27,88.77Z"/><path class="cls-1" d="M18.53,105.28c7.55.74,12.52,1.16,20.39,1.56a5.2,5.2,0,0,0,1.94.35,15.47,15.47,0,0,0,3.18-.48c.47-.11.9-.21,1.34-.28l.07,0a6.59,6.59,0,0,0,.73-.67c.18-.19.35-.35.53-.51l.07,0v-.07c.71-4.28,1.58-14.78-5.63-19.86l-.07,0a30.46,30.46,0,0,0-6.82-.74,72.89,72.89,0,0,0-13.87,1.81A73.79,73.79,0,0,1,6.88,88.11,44.67,44.67,0,0,1,.7,87.19,7.18,7.18,0,0,1,0,87v.39l.62.13a45.54,45.54,0,0,0,6.24.93,74.63,74.63,0,0,0,13.62-1.83,72.66,72.66,0,0,1,13.78-1.81,29.49,29.49,0,0,1,6.71.73c7,5,6.15,15.16,5.44,19.41-.18.16-.33.33-.5.49a5.78,5.78,0,0,1-.65.59c-.4.09-.84.17-1.29.29a15.08,15.08,0,0,1-3.11.46,4.66,4.66,0,0,1-1.83-.34H39c-7.89-.38-12.87-.8-20.43-1.55a54.54,54.54,0,0,1-11.31-2.79A72.16,72.16,0,0,0,0,100.07v.39a67.51,67.51,0,0,1,7.13,2A52.65,52.65,0,0,0,18.53,105.28Z"/><path class="cls-1" d="M44,142.16c1.38,5.11,8,8.28,13.32,8.28h0a9.72,9.72,0,0,0,7.61-3.07c1.81-2.15,2.43-5.19,1.79-9.08-.86-5.36-5.65-13.5-9.82-16.75A4.82,4.82,0,0,0,54,120.27a3.08,3.08,0,0,0-1.56.42c-1.91,1-6.47,11-7.74,15.11a18.18,18.18,0,0,0-.78,6.29Zm1.15-6.24c1.25-4.12,5.76-14,7.53-14.91a3.07,3.07,0,0,1,1.39-.38,4.36,4.36,0,0,1,2.59,1.21c4.13,3.2,8.83,11.21,9.7,16.5.6,3.77,0,6.74-1.73,8.79a9.28,9.28,0,0,1-7.31,2.93h0c-5.19,0-11.61-3-12.95-8A17.32,17.32,0,0,1,45.12,135.92Z"/><path class="cls-1" d="M106.61,121.54a6.32,6.32,0,0,0-3.44-1,5.31,5.31,0,0,0-1.25.13C95,122,89.18,131.05,89.24,137.61c.26,5.61,4.25,9.81,9.26,9.81h0a8.22,8.22,0,0,0,2.41-.35c5.15-1.55,8.38-7.7,9.28-13.09S109.77,123.8,106.61,121.54Zm3.2,12.38c-.87,5.3-4,11.29-9,12.79a7.6,7.6,0,0,1-2.3.35h0c-4.8,0-8.63-4.07-8.9-9.45C89.54,131.2,95.24,122.29,102,121a7.94,7.94,0,0,1,1.18-.1,5.83,5.83,0,0,1,3.23.9C109.45,124,110.71,128.55,109.81,133.92Z"/><path class="cls-1" d="M6.75,156.38c2.75-8.44,1.52-15.3-3.76-21a12,12,0,0,0-3-2.15v.42a10.56,10.56,0,0,1,2.71,2c5.18,5.58,6.38,12.3,3.69,20.59a39.68,39.68,0,0,1-5.15,9.41c-.42.64-.84,1.26-1.25,1.91v.68c.51-.8,1-1.6,1.56-2.38C3.57,162.88,5.66,159.76,6.75,156.38Z"/><path class="cls-1" d="M267,193.76a7.07,7.07,0,0,0-5,2.06c-1.54,1.44-2.52,3.69-3,6.85-.76,3-.68,7.13,1.22,9.55a5,5,0,0,0,4.15,2h.3c2.38-.1,5.09-1.6,7.25-4s3.4-5.46,3.22-8C274.71,196.7,270.61,193.76,267,193.76Zm4.63,16.15c-2.09,2.34-4.7,3.79-7,3.9l-.28,0h0a4.7,4.7,0,0,1-3.86-1.84c-1.81-2.32-1.88-6.32-1.13-9.25.47-3.08,1.43-5.25,2.9-6.65a6.77,6.77,0,0,1,4.73-2c3.48,0,7.38,2.82,7.76,8.09C274.91,204.65,273.73,207.52,271.59,209.91Z"/><path class="cls-1" d="M173,209.28c.86,1.19,1.76,2.43,2.56,3.73.56.93,1.12,2.11,1.74,3.34,1.95,4,4.15,8.54,7.76,8.54h0c1.56,0,3.22-.86,5-2.63,3.87-3.77,7.09-11.34,5.71-16.57a7.09,7.09,0,0,0-5.37-5.25,15.65,15.65,0,0,0-4-.43l-1.69,0c-.54,0-1.1,0-1.65,0-.86,0-1.55,0-2.18-.1a20.3,20.3,0,0,1-4.12-1.08,15.33,15.33,0,0,0-4.93-1.08A7.08,7.08,0,0,0,170,198l-.07,0a3.69,3.69,0,0,0-1.42,3.17v0C169.35,204.21,171.1,206.67,173,209.28Zm-2.8-10.91a7.3,7.3,0,0,1,1.64-.18,14.94,14.94,0,0,1,4.8,1.07,20.63,20.63,0,0,0,4.21,1.08,18.06,18.06,0,0,0,2.22.11l1.68,0,1.66,0a15.57,15.57,0,0,1,3.89.41,6.69,6.69,0,0,1,5.12,5c1.36,5.11-1.81,12.51-5.6,16.21-1.71,1.67-3.31,2.53-4.76,2.53h0c-3.37,0-5.53-4.44-7.44-8.34-.6-1.25-1.18-2.42-1.75-3.35-.82-1.33-1.7-2.57-2.56-3.76-1.84-2.57-3.58-5-4.35-7.89A3.26,3.26,0,0,1,170.15,198.37Z"/><path class="cls-1" d="M55.72,242l.38.14a36.38,36.38,0,0,0,12.05,2.47c5,0,8-1.78,8.66-5.17a7.42,7.42,0,0,0-1.33-6.51c-2.45-3-7.42-4.11-11.25-4.11h-.69c-3.36.12-9.6.28-13,2.87a5.65,5.65,0,0,0-2.12,3C47.37,238.7,52.8,240.86,55.72,242Zm-6.91-7.19a5.31,5.31,0,0,1,2-2.82c3.26-2.5,9.45-2.68,12.75-2.78h.69c3.76,0,8.58,1,11,4a7.08,7.08,0,0,1,1.26,6.2c-.67,3.23-3.47,4.87-8.3,4.87a36.41,36.41,0,0,1-11.93-2.44l-.36-.15C53,240.53,47.82,238.47,48.81,234.82Z"/><path class="cls-1" d="M289.14,17a66,66,0,0,0-3.67,10.74,11.89,11.89,0,0,1-5.27,7.61,6.27,6.27,0,0,1-5.36.39c-7.6-2.82-14.68-10-17.37-12.95-.44-.48-.87-1-1.3-1.46-3-3.3-6-6.7-10.22-9-3.63-2-8.76-2.19-17.52-1.77l-.47,0c-4.55.22-9.71.47-11.43-1.76-.78-1-.84-2.57-.18-4.67A15.42,15.42,0,0,1,218.61,0h-1.38a16.3,16.3,0,0,0-1.95,3.83c-.78,2.49-.67,4.34.37,5.69C217.73,12.21,223,12,228,11.71l.48,0c8.55-.41,13.52-.28,16.93,1.63,4,2.19,7,5.52,9.89,8.73l1.34,1.47c2.73,3,10,10.33,17.81,13.24a7.38,7.38,0,0,0,2.68.49,7.47,7.47,0,0,0,3.6-.94A12.92,12.92,0,0,0,286.58,28a67.41,67.41,0,0,1,3.6-10.56A69.65,69.65,0,0,0,293.78,7c.54-2.28,1-4.61,1.53-6.85,0,0,0-.09,0-.13H294.2c-.49,2.2-1,4.49-1.51,6.72A72.31,72.31,0,0,1,289.14,17Z"/><path class="cls-1" d="M272.49.45A6.13,6.13,0,0,0,274.22,0h-5A6.74,6.74,0,0,0,272.49.45Z"/><path class="cls-1" d="M366.86,13.47a37.14,37.14,0,0,0-4,9.65c-1.12,4.81.82,9.75,2.7,14.55a45.72,45.72,0,0,1,2.33,7c1.19,5.68.29,10.24-.62,15.09-.11.5-.21,1-.31,1.53a12,12,0,0,0,1.63,9.3,11.94,11.94,0,0,0,8.15,4.66,10.57,10.57,0,0,0,2,.18c3.69,0,6.62-1.71,9.72-3.53,2.78-1.62,5.67-3.32,9.38-3.93a12.92,12.92,0,0,1,2.13-.17V66.7a13.55,13.55,0,0,0-2.33.19c-3.9.63-6.88,2.39-9.75,4.06s-5.77,3.38-9.15,3.38a13.19,13.19,0,0,1-1.86-.15A11,11,0,0,1,369.52,70a10.83,10.83,0,0,1-1.45-8.45c.08-.51.2-1,.3-1.55.95-4.94,1.86-9.61.63-15.51a47.93,47.93,0,0,0-2.4-7.21c-1.83-4.63-3.68-9.4-2.66-13.88A36.5,36.5,0,0,1,367.85,14c2.21-4.1,4.3-8,3.91-14h-1.12C371,5.74,369,9.5,366.86,13.47Z"/><path class="cls-1" d="M312.65,3.65c1.26,1.63,2.55,3.33,4,4.9,3.81,4.29,8.55,6.78,13.14,9.18a46.5,46.5,0,0,1,8.09,4.88c4.56,3.72,6.89,7.37,5.37,15-1.09,5.47-3,12.88-4.83,17.09a29.53,29.53,0,0,1-5.84,8.06c-3.91,4.25-7.62,8.29-6,16.21a72.51,72.51,0,0,0,3.69,11.13c.94,2.39,1.91,4.84,2.68,7.27a88.79,88.79,0,0,1,2.19,8.83c.13.66.27,1.32.42,2,.9,4.2,3.72,6.26,8.6,6.26a31.61,31.61,0,0,0,5.73-.63c3.16-.56,5.95-1.33,8.65-2.08a59.79,59.79,0,0,1,9.27-2,44.7,44.7,0,0,1,4.72-.25,104.63,104.63,0,0,1,13.78,1.26c1.7.24,3.47.45,5.32.67,3.06.38,5.87.75,8.38,1.11v-1.13c-2.48-.36-5.22-.72-8.25-1.07l-5.31-.69a102.28,102.28,0,0,0-13.92-1.26,42.25,42.25,0,0,0-4.84.25,59.67,59.67,0,0,0-9.45,2.06c-2.68.73-5.44,1.5-8.53,2.07a31.29,31.29,0,0,1-5.55.59c-4.33,0-6.72-1.7-7.5-5.37-.16-.63-.28-1.29-.43-2A88,88,0,0,0,334,97.05c-.79-2.47-1.76-4.94-2.7-7.34a69,69,0,0,1-3.65-10.93c-1.53-7.37,1.83-11,5.72-15.24a30.56,30.56,0,0,0,6-8.37c1.86-4.29,3.8-11.79,4.9-17.32,1.62-8.16-1-12.21-5.76-16.1a49.45,49.45,0,0,0-8.28-5c-4.51-2.36-9.15-4.79-12.81-8.93-1.38-1.54-2.67-3.22-3.92-4.84-.76-1-1.53-2-2.32-3h-1.46l.15.18C310.84,1.32,311.76,2.5,312.65,3.65Z"/><path class="cls-1" d="M378.89,5.19A31,31,0,0,1,378.62,9a26.83,26.83,0,0,1-2.55,7.08c-1.77,3.75-3.61,7.6-3.35,14.89v.1c.56,1.74,1,3.9,1.54,6.19,1.58,7.15,3.36,15.23,8.82,16.84a7.8,7.8,0,0,0,2.31.3,16.13,16.13,0,0,0,2.39-.2c3.4-.55,5.94-2.37,8.65-4.31,1.15-.81,2.31-1.64,3.56-2.38v-.86a45.18,45.18,0,0,0-4,2.64c-2.63,1.87-5.12,3.65-8.35,4.17a14.47,14.47,0,0,1-2.26.19,6.87,6.87,0,0,1-2.11-.28c-5-1.47-6.74-9.33-8.29-16.26-.5-2.3-1-4.47-1.54-6.22a27.15,27.15,0,0,1,3.28-14.47,26.72,26.72,0,0,0,2.61-7.29,30.94,30.94,0,0,0,.28-3.94,24.34,24.34,0,0,1,.48-4.88l0-.09V0h-.75V.13A25.29,25.29,0,0,0,378.89,5.19Z"/><path class="cls-1" d="M331.12,9.05c2.94,1.2,10.26,4,14.09,4.58a12.08,12.08,0,0,0,1.88.14h0a9,9,0,0,0,7.42-3.38,9.17,9.17,0,0,0,1.1-8.31A4.2,4.2,0,0,0,355,1a5,5,0,0,1-.43-.76c0-.07-.09-.16-.12-.24h-.39c.06.14.1.27.16.39.14.28.3.55.47.82a3.74,3.74,0,0,1,.52,1,8.77,8.77,0,0,1-1,8,8.65,8.65,0,0,1-7.13,3.23h0a12.85,12.85,0,0,1-1.84-.13c-3.78-.56-11.05-3.36-14-4.54A30.47,30.47,0,0,1,319.58,0h-.48A30.76,30.76,0,0,0,331.12,9.05Z"/><path class="cls-1" d="M392,16.11c1.55,1.28,4.7,2.28,8,2.64v-.36c-3.4-.4-6.41-1.49-7.72-2.56-4.86-3.91-6.12-10.17-5.61-15.83h-.38C385.78,5.74,387.09,12.13,392,16.11Z"/><path class="cls-1" d="M396.11,1.87a4.23,4.23,0,0,0,3.89,3V4.48a3.84,3.84,0,0,1-3.52-2.71,6.33,6.33,0,0,1-.2-1.77h-.38A6.67,6.67,0,0,0,396.11,1.87Z"/><path class="cls-1" d="M293.22,27c-.71,2.13-1.35,4.35-1.94,6.49A62.14,62.14,0,0,1,287,45.68c-4.17,8-8.64,13.25-13.67,16-6.12,3.36-9,9.27-7.28,15.06,1.61,5.37,7.51,10.24,12.33,12.51,5.22,2.44,11,3.9,16.57,5.3,1.24.33,2.45.62,3.67,1s2.4.66,3.67,1,2.8.81,4.21,1.18a35.68,35.68,0,0,0,8.65,1.37h.2a5.71,5.71,0,0,0,4.54-1.67c1.68-1.89,1.52-5,1.17-7.81-.17-1.34-.38-2.67-.59-4.09-1-6.23-2-12.7.45-18.45,1.39-3.27,3.72-5.8,6.2-8.49s5-5.49,6.53-9.1c1-2.4,2.61-8.35,1.71-13.66-1.18-6.87-6-9.74-11.21-12.77a49.34,49.34,0,0,1-6.49-4.31,36.24,36.24,0,0,1-2.54-3.53c-2.69-4.06-6.06-9.1-9.75-9.1a4.57,4.57,0,0,0-3,1.21c-4.16,3.59-6.3,10.55-8,16.12C294,24.69,293.59,25.9,293.22,27Zm9.63-19.11a3.75,3.75,0,0,1,2.5-1c3.28,0,6.66,5.06,9.12,8.75a35.64,35.64,0,0,0,2.64,3.65l0,0a48.69,48.69,0,0,0,6.6,4.38c5,3,9.74,5.74,10.86,12.27.8,4.76-.56,10.54-1.67,13.25-1.43,3.47-4,6.22-6.38,8.86s-4.9,5.31-6.35,8.72c-2.51,6-1.47,12.52-.49,18.86.2,1.4.41,2.75.59,4.07.31,2.49.48,5.54-1,7.22a5,5,0,0,1-4,1.42h-.19A35.54,35.54,0,0,1,306.68,97c-1.42-.35-2.83-.77-4.2-1.17l-3.7-1-3.66-.94c-5.55-1.39-11.29-2.85-16.44-5.27-4.83-2.26-10.47-7.1-11.93-12-1.6-5.43,1.11-11,6.92-14.19,5.17-2.82,9.74-8.16,14-16.32A63.73,63.73,0,0,0,292,33.66c.58-2.12,1.21-4.33,1.91-6.45.37-1.1.75-2.28,1.14-3.57C296.74,18.16,298.85,11.33,302.85,7.87Z"/><path class="cls-1" d="M305.78,38.68c.35.23.7.45,1.07.67,2.22,1.37,4.29,2.67,5.32,5.67.18.62.32,1.31.45,2,.41,1.94.8,3.92,2.79,4.73a4,4,0,0,0,.86.08l0-.19v.19h0c3.09-.35,6.27-3.17,7.38-6.55a6.8,6.8,0,0,0-1.84-7.48,12.39,12.39,0,0,0-3.48-2.1,10.87,10.87,0,0,1-4.19-2.9,23.89,23.89,0,0,1-2.6-5.36c-.13-.34-.25-.66-.37-1-.25-.6-.5-1.44-.78-2.33-.68-2.27-1.56-5.12-2.89-6.26a2.15,2.15,0,0,0-1.35-.56c-1.56,0-2.88,2.09-3.71,3.85-1.82,3.87-2.7,9.91-.35,14A10.44,10.44,0,0,0,305.78,38.68Zm-3-17.37c.65-1.37,1.92-3.64,3.37-3.64a1.78,1.78,0,0,1,1.11.46c1.26,1.07,2.09,3.86,2.78,6.1.26.88.53,1.74.77,2.35.13.31.25.62.38.94A23.32,23.32,0,0,0,313.89,33a11.17,11.17,0,0,0,4.33,3,12.68,12.68,0,0,1,3.38,2,6.46,6.46,0,0,1,1.73,7.07c-1.06,3.26-4.09,6-7.06,6.3h0a3.22,3.22,0,0,1-.73,0c-1.8-.72-2.15-2.52-2.54-4.44a16.38,16.38,0,0,0-.49-2c-1-3.13-3.3-4.53-5.45-5.88q-.54-.31-1.08-.66A10.5,10.5,0,0,1,302.46,35C300.16,31,301,25.08,302.82,21.31Z"/><path class="cls-1" d="M352,55.45l.08,0a4,4,0,0,0,1.61.35h0a4.46,4.46,0,0,0,3.85-2.8c1.12-2.28,1.07-5-.15-6.64l-.05-.06a3.47,3.47,0,0,0-3.62-.1l0,0a9.57,9.57,0,0,0-1.7,9.11Zm1.95-8.91a3,3,0,0,1,3.17.1c1.12,1.51,1.15,4.06.07,6.22a4.07,4.07,0,0,1-3.5,2.61h0a3.81,3.81,0,0,1-1.38-.3A9.17,9.17,0,0,1,353.94,46.54Z"/><path class="cls-1" d="M287.31,73.18c.79,4.62,5.6,8,9.46,10.79.41.28.79.55,1.15.82,1.49,1.09,4.26,3.08,6.68,3.08a3.56,3.56,0,0,0,2.18-.68c1.77-1.32,2.23-4.21,2.6-6.56.07-.47.15-.94.22-1.33.13-.62.25-1.24.39-1.88,1.17-5.81,2.52-12.39-.35-17.63a5.44,5.44,0,0,0-3.23-2.55,12,12,0,0,0-4-.59,18,18,0,0,0-8.77,2.21A14.31,14.31,0,0,0,287.31,73.18ZM302.44,57a11.47,11.47,0,0,1,3.86.59,5.19,5.19,0,0,1,3,2.36c2.79,5.12,1.47,11.63.29,17.39-.12.63-.25,1.26-.37,1.87-.09.42-.16.88-.23,1.37-.36,2.25-.81,5.07-2.44,6.29a3.25,3.25,0,0,1-2,.61c-2.3,0-5-1.95-6.47-3L297,83.68c-3.81-2.74-8.57-6.11-9.34-10.57a14,14,0,0,1,6.22-13.94A17.73,17.73,0,0,1,302.44,57Z"/><path class="cls-1" d="M392.73,86.25a49.1,49.1,0,0,0-7.37,1.12,45.81,45.81,0,0,1-7.65,1.11c-3.7-.33-7-1.94-10.14-3.48-3.63-1.77-7.36-3.62-11.82-3.62a19.66,19.66,0,0,0-8.89,2.31l0,0,0,0a6,6,0,0,0-.47,3.66l0,.51,0,.06a2.65,2.65,0,0,1,.55.94c.08.18.14.33.22.49l0,0c4.56,5.48,11.28,5.82,17.77,6.14,4.05.2,8.23.41,11.84,1.87a32.73,32.73,0,0,0,13.31,2.89h0a27.4,27.4,0,0,0,3.78-.24,15.08,15.08,0,0,1,1.94-.12,21.69,21.69,0,0,1,4.17.45v-.37a21.64,21.64,0,0,0-4.17-.46,12.77,12.77,0,0,0-2,.14,29.85,29.85,0,0,1-3.73.24h0a32.62,32.62,0,0,1-13.17-2.87c-3.66-1.48-7.89-1.69-12-1.91-6.4-.3-13-.64-17.46-6a2.06,2.06,0,0,1-.21-.42,4,4,0,0,0-.59-1l0-.35a6.18,6.18,0,0,1,.41-3.41,19.32,19.32,0,0,1,8.66-2.23c4.36,0,8.08,1.8,11.65,3.55,3.18,1.59,6.51,3.2,10.31,3.54a44.24,44.24,0,0,0,7.72-1.14,48.78,48.78,0,0,1,7.32-1.09,30.46,30.46,0,0,1,7.25.79V87A32.13,32.13,0,0,0,392.73,86.25Z"/><path class="cls-1" d="M379.59,128.88a20.65,20.65,0,0,0-2.21-.14c-6.53,0-11,3.82-15.64,7.89l-.52.45c-1.14,1-2.3,1.85-3.41,2.72a36.34,36.34,0,0,0-7.27,6.8c-3.45,4.56-3.25,10.38-3.07,16.05a61.68,61.68,0,0,1,0,6.38l0,0,0,0a16.89,16.89,0,0,0,2.72,6.78,20.75,20.75,0,0,0,5.81,4.73,22.09,22.09,0,0,1,5.54,4.39c.72.87,1.37,1.81,2,2.8a18.22,18.22,0,0,0,17,9.23h0c5.43,0,9.92-2,12.31-5.42,1.8-2.56,2-5.74,2.29-9.09a42.21,42.21,0,0,1,.49-4.49,26.93,26.93,0,0,1,4.32-9.74v-.69c-2.09,3.19-4,6.54-4.69,10.34a44.51,44.51,0,0,0-.49,4.55c-.25,3.31-.49,6.41-2.22,8.91-2.33,3.33-6.7,5.25-12,5.25h0a20.82,20.82,0,0,1-12.25-3.86,20.14,20.14,0,0,1-4.45-5.2c-.65-1-1.32-1.94-2.05-2.83a22.48,22.48,0,0,0-5.64-4.46,20.58,20.58,0,0,1-5.72-4.64,16.76,16.76,0,0,1-2.63-6.61c.14-2.07,0-4.27,0-6.39-.2-5.59-.38-11.37,3-15.82a35,35,0,0,1,7.2-6.72c1.12-.86,2.28-1.76,3.42-2.74l.52-.45c4.63-4,9-7.8,15.4-7.8a16,16,0,0,1,2.17.15l2.61.31c5.71.69,13.17,1.56,17.84,4.09v-.42c-4.77-2.49-12.11-3.36-17.8-4.05C381.29,129.1,380.42,129,379.59,128.88Z"/><path class="cls-1" d="M305.92,157.64c-6.17-.39-8.56,5.21-10.66,10.12a33.14,33.14,0,0,1-2.25,4.65,13.28,13.28,0,0,1-6.3,5.09,12.7,12.7,0,0,1-3.12.62,13.23,13.23,0,0,0-3.3.7,16,16,0,0,0-1.85.94,8.28,8.28,0,0,1-3,1.24,16.8,16.8,0,0,1-2.41.14h-1.36a16.6,16.6,0,0,0-2.95.19,25.38,25.38,0,0,0-10,4c-4.88,3.44-7.86,9.13-9.09,17.41-.17,1.13-.4,2.34-.63,3.63-1,5.46-2.25,12.27.11,17a8.68,8.68,0,0,0,8.1,4.86,13.28,13.28,0,0,0,2.79-.32c4.46-1,7.72-3.32,11.17-5.77a50,50,0,0,1,6.7-4.25,121.09,121.09,0,0,1,15.9-6.14c1.92-.63,3.93-1.3,5.84-2,1.2-.43,2.45-.81,3.76-1.23.91-.28,1.82-.56,2.72-.89a29.49,29.49,0,0,0,8.9-4.25c8.07-6.31,10-22.47,5.91-31.25C318.33,166.75,312.06,158,305.92,157.64Zm16.12,31c-1,6.39-3.72,11.68-7.34,14.53a29.71,29.71,0,0,1-8.78,4.21c-.92.29-1.84.57-2.72.87-1.33.4-2.58.8-3.79,1.23-1.92.66-3.91,1.34-5.84,2a122.22,122.22,0,0,0-15.94,6.15,52.92,52.92,0,0,0-6.75,4.29c-3.41,2.43-6.64,4.72-11,5.7a12.46,12.46,0,0,1-2.71.31,8.31,8.31,0,0,1-7.76-4.66c-2.32-4.64-1.07-11.4-.07-16.81.23-1.28.46-2.5.61-3.65,1.22-8.16,4.14-13.76,8.94-17.14a24.79,24.79,0,0,1,9.88-3.89,15.25,15.25,0,0,1,2.9-.21H273a19.32,19.32,0,0,0,2.47-.12,8.71,8.71,0,0,0,3.15-1.3,16.27,16.27,0,0,1,1.82-.92,13,13,0,0,1,3.21-.66,13.48,13.48,0,0,0,3.2-.65,13.62,13.62,0,0,0,6.47-5.23,34.68,34.68,0,0,0,2.29-4.72c2.05-4.8,4.39-10.27,10.3-9.88s12.11,9,14.6,14.28C322.44,176.51,323,182.6,322,188.59Z"/><path class="cls-1" d="M16.81,201c3.12-.49,6.8-.74,10.33-1,5.08-.37,9.89-.71,13.31-1.65a17.48,17.48,0,0,0,10.31-8.11A12.29,12.29,0,0,0,52,180.59c-2-7-9.66-5.91-14.67-5.22-5.5.76-13.43,1.6-18.87.2-5.18-1.35-6.7-5.73-4.78-13.77a55.16,55.16,0,0,1,2-6.23c1.7-4.62,3.47-9.39,2.24-13.87a18.72,18.72,0,0,0-1.16-3.1A27.32,27.32,0,0,0,0,124.51v1.18A26.16,26.16,0,0,1,15.79,139.1,15.72,15.72,0,0,1,16.88,142c1.14,4.13-.56,8.73-2.21,13.18a56.36,56.36,0,0,0-2.09,6.37c-.75,3.18-3.05,12.86,5.6,15.11,5.62,1.46,13.72.61,19.29-.16,6.16-.85,11.81-1.15,13.46,4.42a11.34,11.34,0,0,1-1.15,8.79,16.43,16.43,0,0,1-9.64,7.56c-3.31.93-8.06,1.25-13.07,1.6-3.57.26-7.27.51-10.44,1a85,85,0,0,0-11.83,3c-1.56.48-3.17,1-4.8,1.4v1.17c1.75-.48,3.47-1,5.14-1.5A83,83,0,0,1,16.81,201Z"/><path class="cls-1" d="M16.31,241.53c8.69,4.58,15,9.21,18.76,13.81s8.3,9.25,14.53,10.37a57,57,0,0,0,10,.93A34.15,34.15,0,0,0,75,263.4a20.78,20.78,0,0,0,6.7-5.64c.91-1.13,1.78-2.29,2.64-3.44A37.16,37.16,0,0,1,90.76,247c.5-.39,1-.82,1.58-1.26,2.94-2.41,6.62-5.42,9.7-6.93a23.43,23.43,0,0,1,5.89-1.67c3.52-.68,7.16-1.38,9.4-4.51,2.46-3.39,3-9.26,3.41-14,.12-1.12.21-2.16.31-3.1,1.08-8.83-2.31-13-5.6-17.11-1.88-2.36-3.69-4.59-4.7-7.67l-.15-.47a31.36,31.36,0,0,0-1.35-3.67c-1.26-2.64-3.06-4-5.32-4-3.33,0-6.92,2.92-8.65,4.32-1.3,1-2.59,2-4,3l-2,1.5c-5,3.76-8.19,9-11.25,14.09a87.13,87.13,0,0,1-5.38,8.21,18,18,0,0,1-9.85,4.58,59.12,59.12,0,0,1-8.19.53c-1.95,0-3.95.07-6,.21-1.21.1-2.43.21-3.61.35-1.87.2-3.65.38-5.36.41a38.38,38.38,0,0,1-9.15-1.19,46.38,46.38,0,0,0-4.66-.87,21.44,21.44,0,0,0-2.56-.17,30,30,0,0,0-7.62,1.11c-1.4.39-2.87.71-4.29,1-3.88.88-7.86,1.8-11.37,3.72V224c3.51-2,7.55-2.91,11.47-3.78,1.41-.34,2.89-.66,4.28-1A28.93,28.93,0,0,1,23.28,218a18.43,18.43,0,0,1,2.5.16c1.56.19,3,.52,4.62.86a38.9,38.9,0,0,0,9.25,1.21c1.73,0,3.52-.23,5.42-.42,1.16-.13,2.37-.26,3.58-.34,2-.14,4-.18,6-.23a57.3,57.3,0,0,0,8.24-.51,18.24,18.24,0,0,0,10.05-4.72,86.87,86.87,0,0,0,5.43-8.25c3.06-5.06,6.2-10.28,11.16-14l2-1.5c1.37-1,2.66-1.93,4-3,1.7-1.39,5.23-4.25,8.42-4.25,2.1,0,3.79,1.28,5,3.76.45,1,.91,2.37,1.34,3.62l.15.48a24.84,24.84,0,0,0,4.77,7.78c3.22,4,6.57,8.15,5.52,16.82-.11.94-.21,2-.31,3.09-.42,4.69-.95,10.49-3.34,13.81-2.16,3-5.74,3.69-9.19,4.35a24,24,0,0,0-6,1.7c-3.13,1.53-6.82,4.56-9.78,7-.56.42-1.08.86-1.57,1.26A38.55,38.55,0,0,0,84,254.09c-.82,1.14-1.71,2.32-2.61,3.43a20.24,20.24,0,0,1-6.55,5.55,34.25,34.25,0,0,1-15.27,3.2,56,56,0,0,1-9.9-.92c-6.13-1.1-10.51-5.59-14.33-10.25s-10.13-9.3-18.87-13.89a52.35,52.35,0,0,0-8.61-3.29A57.47,57.47,0,0,1,0,235v.41a58.13,58.13,0,0,0,7.75,2.87A55.13,55.13,0,0,1,16.31,241.53Z"/><path class="cls-1" d="M152.08,286.09a32.34,32.34,0,0,0,5.48.45,33.27,33.27,0,0,0,6.62-.64c5.92-1.22,11.53-3.84,18.15-8.48,1.42-1,2.91-1.95,4.35-2.88,6.18-3.94,12.58-8,13.91-16.2.06-.35.11-.71.15-1.06a58.36,58.36,0,0,0-.21-12.68c-.56-6.13-1.12-12.46,1.31-18.66a22.34,22.34,0,0,1,2.67-4.51,26.36,26.36,0,0,0,2.27-3.63,38.49,38.49,0,0,0,2.75-9.67l.1-.52a34.21,34.21,0,0,1,1.37-5.77c1.76-4.49,5-5.75,8.51-7.1.31-.1.57-.23.86-.32,5.86-2.29,12-5.84,13.48-14.73a47.45,47.45,0,0,0-.95-17.36c-2-8.62-7.88-14.5-16.23-16.15a30,30,0,0,0-5.64-.56c-5.85,0-10.83,2-14,5.51-2.92,3.29-4.16,7.68-3.58,12.73.11.9.26,1.66.4,2.37s.27,1.36.35,2.11c.69,6.27-.28,11.1-2.83,13.95a8.78,8.78,0,0,1-6.84,2.82,16,16,0,0,1-3.39-.39c-1.07-.24-2.16-.57-3.2-.89a22.48,22.48,0,0,0-6.74-1.33,12.73,12.73,0,0,0-3.71.55c-5,1.51-11.66,6.94-17,11.31a22.26,22.26,0,0,0-7.37,10.1c-.77,2.38-1.54,4.8-2.28,7.16-3.22,10.12-6.52,20.59-11.86,29.9-.42.74-.92,1.51-1.43,2.31a23.14,23.14,0,0,0-3.26,6.36,16.74,16.74,0,0,0-.3,4.42,23.27,23.27,0,0,1-.15,3.55,23.58,23.58,0,0,0,0,9.17C126.91,280,142.86,284.52,152.08,286.09ZM124.6,258.26a22.21,22.21,0,0,0,.16-3.65,16.28,16.28,0,0,1,.28-4.24,22.17,22.17,0,0,1,3.16-6.14c.53-.81,1-1.58,1.46-2.33,5.39-9.39,8.7-19.91,11.91-30.05.75-2.36,1.5-4.79,2.29-7.15a21.51,21.51,0,0,1,7.13-9.77c5.28-4.32,11.83-9.69,16.72-11.17a12.22,12.22,0,0,1,3.49-.5,22.15,22.15,0,0,1,6.51,1.29c1.07.32,2.16.66,3.27.9a17.48,17.48,0,0,0,3.55.42,9.45,9.45,0,0,0,7.4-3.09c2.69-3,3.75-8,3-14.53-.1-.77-.23-1.44-.37-2.14s-.28-1.46-.38-2.35c-.56-4.81.61-9,3.37-12.11,3.05-3.41,7.81-5.28,13.46-5.28a29.46,29.46,0,0,1,5.5.55c8.05,1.59,13.74,7.27,15.64,15.58a46.58,46.58,0,0,1,.94,17.07c-1.1,6.86-4.87,11-13,14.14l-.86.34c-3.46,1.33-7.07,2.72-8.92,7.51a31.91,31.91,0,0,0-1.42,5.92l-.11.52a37.9,37.9,0,0,1-2.68,9.47,24.67,24.67,0,0,1-2.22,3.53,22.87,22.87,0,0,0-2.75,4.67c-2.49,6.36-1.93,12.79-1.36,19a58.94,58.94,0,0,1,.22,12.53c0,.34-.08.68-.14,1-1.29,7.83-7.26,11.65-13.59,15.68-1.44.93-2.94,1.88-4.37,2.89-6.55,4.59-12.05,7.17-17.86,8.37a32,32,0,0,1-6.48.63,33.11,33.11,0,0,1-5.35-.44c-9.05-1.54-24.67-6-27.61-18.19A23,23,0,0,1,124.6,258.26Z"/><path class="cls-1" d="M154.88,278.33c.71,0,1.44,0,2.15-.08,8.84-.83,14.52-5.55,20.53-10.53,1.49-1.24,3-2.51,4.63-3.73a16.51,16.51,0,0,0,5.5-7c2.43-6.16.1-13.33-6.08-18.71a61,61,0,0,0-10.2-6.68,14.59,14.59,0,0,0-2.72-1.06,16.28,16.28,0,0,1-2.5-.94,6.69,6.69,0,0,1-2.3-2,13.33,13.33,0,0,0-1.18-1.29,8.77,8.77,0,0,0-5.92-2.09,11.18,11.18,0,0,0-5.72,1.56c-2,1.2-2.77,3.11-3.55,4.94a13.76,13.76,0,0,1-2.06,3.7,23,23,0,0,1-4.87,4,25.42,25.42,0,0,0-4.77,3.78c-5.66,6.21-7.06,14-3.82,21.3A25.68,25.68,0,0,0,154.88,278.33Zm-18.78-35.9a25.41,25.41,0,0,1,4.69-3.72,24.23,24.23,0,0,0,5-4,13.65,13.65,0,0,0,2.12-3.81c.8-1.86,1.54-3.63,3.4-4.77a10.79,10.79,0,0,1,5.53-1.5,8.3,8.3,0,0,1,5.67,2c.46.45.82.87,1.15,1.26a7.34,7.34,0,0,0,2.41,2.08,15.65,15.65,0,0,0,2.54.95,13.29,13.29,0,0,1,2.67,1,59.6,59.6,0,0,1,10.13,6.64c6.06,5.27,8.35,12.28,6,18.28a16,16,0,0,1-5.38,6.84c-1.58,1.22-3.14,2.51-4.63,3.76-6,4.94-11.59,9.61-20.32,10.41a16.74,16.74,0,0,1-2.12.12,25.26,25.26,0,0,1-22.53-14.63C129.18,256.14,130.53,248.52,136.1,242.43Z"/><path class="cls-1" d="M149.38,267.34a11.5,11.5,0,0,0,2.45.25c5.42,0,11.65-3.48,12.73-9.32a10,10,0,0,0,.16-2.13c-.19-3.94-3.77-6.3-9.55-6.3-3.49,0-7.23.93-9.29,2.3-3.09,2.06-4.53,5.07-3.94,8.21C142.58,263.76,145.5,266.5,149.38,267.34Zm-3.29-14.89c2-1.33,5.64-2.23,9.08-2.23,2.09,0,8.91.43,9.17,5.94a8.82,8.82,0,0,1-.16,2.06c-1,5.57-7.2,9-12.35,9a12.14,12.14,0,0,1-2.38-.25,8.86,8.86,0,0,1-7.13-6.7C141.74,257.29,143.13,254.43,146.09,252.45Z"/><path class="cls-1" d="M50.33,389.47a73.16,73.16,0,0,0-9.11-2l-1.15-.15a9.14,9.14,0,0,0-4.32,0c-4,1.22-5.91,5.26-5.36,11.3h1.13c-.33-3.86.12-8.89,4.55-10.24a8.51,8.51,0,0,1,3.82,0c.39.06.78.13,1.18.18a65.88,65.88,0,0,1,9,2,113,113,0,0,1,14.85,5.56c2.06.87,4.08,1.74,6,2.5h3.17c-2.74-1-5.69-2.22-8.75-3.53A117.66,117.66,0,0,0,50.33,389.47Z"/><path class="cls-1" d="M21.26,391.13c0-1.5.07-2.93,0-4.34,0-.49,0-1-.07-1.48-.25-4.5-.49-8.73,1.5-10.91a5.48,5.48,0,0,1,4-1.6c3.4-.11,6.85,1.78,10.54,3.83a59,59,0,0,0,7.12,3.53,41.48,41.48,0,0,0,12.24,2.72c.43,0,.87.05,1.27.05,6.25,0,11.44-2.44,12.64-5.95a5.74,5.74,0,0,0,.14-3l-.06-.21A23.64,23.64,0,0,0,68.48,368a25.07,25.07,0,0,1-2.67-7.5c-1.11-7.61,2.3-12.27,5.36-14.83,5.57-4.72,12.52-5.55,21-6.18l1.1-.07c8.64-.62,16.82-1.21,21.06-8.49,3.45-5.91,7.53-13.66,8.27-21.18.57-5.85-1.85-9.8-4.41-14a50.35,50.35,0,0,1-3.11-5.59l0-.05,0-.06a28.71,28.71,0,0,1-4.27-6c-2.53-4.29-5.14-8.73-10-9.6a7.55,7.55,0,0,0-1.28-.1,13,13,0,0,0-4.39.86,48.46,48.46,0,0,0-5,2.37,36.38,36.38,0,0,1-7.2,3.12c-2.08.53-4.13.85-6.3,1.18a58.35,58.35,0,0,0-6.49,1.18c-4.12,1-8.12,2.19-12,3.28A187.06,187.06,0,0,1,34.19,292c-8.72,1.3-15.2,2.67-19.47,8a37.39,37.39,0,0,0-4.4,7.52,34.63,34.63,0,0,1-5,8.21c-.91,1-1.84,2-2.75,2.92S.81,320.58,0,321.53v1.17c1-1.2,2-2.32,3.16-3.47.9-.94,1.84-1.91,2.75-3A34.71,34.71,0,0,0,11,307.9a37.31,37.31,0,0,1,4.3-7.39c4.1-5.14,10.45-6.46,19-7.75a188,188,0,0,0,24-5.71c3.86-1.1,7.86-2.25,12-3.27a62.84,62.84,0,0,1,6.39-1.18A53.22,53.22,0,0,0,83,281.4a36.26,36.26,0,0,0,7.38-3.17,49.75,49.75,0,0,1,4.94-2.34,13.41,13.41,0,0,1,4.13-.8,8.53,8.53,0,0,1,1.15.08c4.54.83,7.07,5.11,9.52,9.25a29,29,0,0,0,4.32,6.16,52.59,52.59,0,0,0,3.13,5.62c2.48,4.05,4.84,7.9,4.3,13.5-.73,7.37-4.76,15-8.17,20.88-4,6.92-11.68,7.47-20.48,8.12l-1.1.07c-8.65.63-15.71,1.48-21.45,6.34-3.21,2.69-6.78,7.56-5.62,15.51a26,26,0,0,0,2.71,7.73,21.22,21.22,0,0,1,2.09,5.52l0,.21a4.79,4.79,0,0,1-.11,2.65c-1.08,3.2-6,5.46-11.92,5.46-.39,0-.81,0-1.23-.06a40.35,40.35,0,0,1-12-2.68,57.62,57.62,0,0,1-7-3.48c-3.76-2.09-7.31-4.05-10.92-3.91a6.17,6.17,0,0,0-4.54,1.82c-2.22,2.42-2,6.81-1.7,11.45,0,.52.06,1,.07,1.52.07,1.36,0,2.76,0,4.25s-.07,3.13,0,4.69c0,.95.13,1.89.24,2.84h.76c-.11-.95-.21-1.9-.25-2.87C21.21,394.22,21.23,392.66,21.26,391.13Z"/><path class="cls-1" d="M272,315.3a6.24,6.24,0,0,0,3.31,1.07,4.9,4.9,0,0,0,1.69-.3c2.17-.77,4.18-3.07,6-6.85,6.57-13.68,7.57-24,2.9-29.78a5.61,5.61,0,0,0-4.52-2.26c-5.35,0-11.36,6.71-13.08,10.31-2.74,5.68-2.36,12.88-2.08,15.68C266.61,307.07,267.64,312.56,272,315.3Zm-3.38-27.64c1.65-3.43,7.65-10.11,12.76-10.11a5.29,5.29,0,0,1,4.24,2.13c4.56,5.67,3.55,15.83-2.95,29.36-1.78,3.71-3.72,5.95-5.79,6.68a5.25,5.25,0,0,1-4.68-.73c-4.23-2.65-5.22-8-5.6-11.85C266.3,300.35,265.94,293.25,268.62,287.66Z"/><path class="cls-1" d="M239.05,278.05h-.14c-2.71.07-5.15,2.92-5.77,5.56-.75,1.11.08,2.73.91,3.54l0,0h0a3.18,3.18,0,0,0,.94.1h.38l0,0c2.5-2,4.7-5.66,3.62-9.07Zm-3.75,8.88h-.24a3,3,0,0,1-.79-.08c-.7-.72-1.43-2.13-.8-3.05l0-.05c.54-2.42,2.81-5.14,5.27-5.31C239.71,281.62,237.64,285,235.3,286.93Z"/><path class="cls-1" d="M4.41,355.51h0a11.5,11.5,0,0,0,1.67-.13,35.9,35.9,0,0,0,5.74-1.54,35.3,35.3,0,0,1,7.1-1.77c.83-.08,1.63-.14,2.38-.14,7.51,0,11.09,4.16,14.88,8.56,3.1,3.58,6.31,7.29,11.82,8.73l0,0h0c4.21-.14,4.43-3.91,4.67-8.23a39,39,0,0,1,.53-5.12c1-5,4.59-11.57,9.6-17.48l.13-.18a21.07,21.07,0,0,1,3.34-3.34c4.93-3.72,11.45-3.73,18.36-3.73a69.43,69.43,0,0,0,10-.48c4.71-.67,8.1-2.41,10.37-5.33a22.55,22.55,0,0,0,4.5-17.17,13,13,0,0,0-6-9.13c-5.66-3.48-14.26-7.33-19.75-8a44.85,44.85,0,0,0-4.6-.21,35,35,0,0,0-4,.18c-5,.52-10.44,2.36-16.22,4.34-6,2.05-12.23,4.15-17.86,4.61-1.2.12-2.45.19-3.66.24-4.84.27-9.85.56-13,2.94-3.39,2.59-4.84,6.05-6.51,10.07-.46,1.11-.94,2.29-1.49,3.47a53.93,53.93,0,0,1-4.07,5.92c-2.31,3.13-4.74,6.35-5.93,9.73-.54,1.56-1,3.2-1.42,4.81A37.11,37.11,0,0,1,2,345.91l-.55.86A9.67,9.67,0,0,0,0,349.88v3.45C.72,354.77,2.23,355.51,4.41,355.51ZM1.78,347a7.64,7.64,0,0,0,.55-.89,35,35,0,0,0,3.2-8.8c.43-1.6.88-3.25,1.42-4.77,1.18-3.34,3.58-6.54,5.89-9.64a53.4,53.4,0,0,0,4.1-6c.55-1.19,1-2.37,1.5-3.51,1.64-4,3.08-7.37,6.37-9.89,3.05-2.33,8-2.6,12.78-2.87,1.22-.05,2.47-.14,3.69-.22,5.65-.48,11.9-2.61,17.93-4.66,5.76-1.95,11.2-3.82,16.13-4.32,1.08-.1,2.44-.17,3.93-.17a44,44,0,0,1,4.56.21c5.43.62,14,4.45,19.58,7.9a12.68,12.68,0,0,1,5.83,8.87,22.36,22.36,0,0,1-4.43,16.87c-2.23,2.85-5.54,4.55-10.14,5.22a73.2,73.2,0,0,1-10,.46c-6.67,0-13.56,0-18.58,3.81a20.93,20.93,0,0,0-3.4,3.39l-.14.17c-5,6-8.66,12.56-9.67,17.64a38.74,38.74,0,0,0-.55,5.2c-.22,4.31-.42,7.7-4.29,7.87-5.38-1.43-8.54-5.09-11.6-8.62-3.83-4.47-7.48-8.68-15.16-8.68-.77,0-1.58,0-2.41.12a37,37,0,0,0-7.18,1.8A36.19,36.19,0,0,1,6,355a13.4,13.4,0,0,1-1.6.13h0c-2.18,0-3.62-.81-4.23-2.29A8,8,0,0,1,1.78,347Z"/><path class="cls-1" d="M206.23,312A93.56,93.56,0,0,0,201,299.24c-1-1.85-2.55-3.74-5.84-3.74a9.36,9.36,0,0,0-1.16.07,70.12,70.12,0,0,0-8.62,1.88A83.68,83.68,0,0,1,172.87,300c-6.36.67-14.55,1.25-21.94,1.56a10.63,10.63,0,0,0-7.28,4.48,10.5,10.5,0,0,0-1.67,8.39v0c.19.32.4.63.59,1,.33.52.66,1.05.94,1.6l0,0,0,0c2.82,1.79,6.47,2.49,10.33,3.23,4.24.82,8.59,1.67,12.55,4a49.58,49.58,0,0,1,5.86,4.18,39.77,39.77,0,0,0,22,9.26,21.63,21.63,0,0,0,2.42.16h0c3.11,0,5.18-.89,6.74-2.87,3.48-4.43,4.6-14,3.87-18.89C207.29,315.69,206.6,313.1,206.23,312Zm-3,22.81c-1.49,1.9-3.41,2.72-6.43,2.72-.72,0-1.52-.06-2.37-.14a39.44,39.44,0,0,1-21.83-9.18,47.88,47.88,0,0,0-5.92-4.22c-4-2.36-8.39-3.21-12.67-4-3.79-.75-7.39-1.45-10.14-3.16-.26-.55-.61-1.08-.92-1.6-.2-.3-.4-.62-.57-.91a10.11,10.11,0,0,1,1.62-8.07,10.23,10.23,0,0,1,7-4.33c7.36-.29,15.56-.87,21.93-1.54a86.53,86.53,0,0,0,12.55-2.57,73.49,73.49,0,0,1,8.56-1.87,7.29,7.29,0,0,1,1.12-.08c3.09,0,4.52,1.81,5.52,3.57a98.59,98.59,0,0,1,5.21,12.71,39.22,39.22,0,0,1,1.12,4.09C207.79,321.59,206.3,330.88,203.19,334.84Z"/><path class="cls-1" d="M72.41,318.44h0a21.31,21.31,0,0,0,9.09-1.81c2.82-1.36,4.3-3.35,4.3-5.77,0-5.3-5.07-7.2-9.81-7.2a20.5,20.5,0,0,0-11.74,3.64c-1.81,1.37-3.73,3.12-3.45,6.37C61.68,317,67.42,318.44,72.41,318.44Zm-7.93-10.83A20,20,0,0,1,76,304c5.9,0,9.43,2.54,9.43,6.82,0,2.87-2.22,4.52-4.09,5.43a20.64,20.64,0,0,1-8.92,1.77h0c-5.91,0-10.54-1.83-11.23-4.45C60.91,310.58,62.74,308.91,64.48,307.61Z"/><path class="cls-1" d="M189.84,312a12.36,12.36,0,0,0-8.58-3.06,18,18,0,0,0-9.6,2.82l-.07.06v.07a1.09,1.09,0,0,1-.34.64l0,.06a1.91,1.91,0,0,0,.11,1.6,2.86,2.86,0,0,1,.23,1v.07l0,.05c2.79,3.55,8,10.21,14,10.21h0a9,9,0,0,0,2.83-.48,6.18,6.18,0,0,0,4.24-4.67A9.25,9.25,0,0,0,189.84,312Zm2.5,8.25a5.73,5.73,0,0,1-4,4.39,7.83,7.83,0,0,1-2.72.47h0c-5.84,0-11-6.47-13.73-10a2.57,2.57,0,0,0-.25-1,1.54,1.54,0,0,1-.1-1.29,1.7,1.7,0,0,0,.38-.73,17.48,17.48,0,0,1,9.33-2.74,12.06,12.06,0,0,1,8.33,3A8.89,8.89,0,0,1,192.34,320.21Z"/><path class="cls-1" d="M155.56,336.8a24.64,24.64,0,0,0-4.3-.84,70.74,70.74,0,0,0-7.12-.37c-13.85,0-24.58,4.1-28.65,11a82,82,0,0,0-4,7.76c-2.44,5.24-4.53,9.75-10.23,14.67a39.07,39.07,0,0,1-4.42,3.17c-1,.67-2.08,1.37-3.06,2.09-1.91,1.4-3.87,2.86-3.83,5.95v.1a23.4,23.4,0,0,0,7.54,8.62c3.69,2.47,11.4,5,17.5,5.72a33.67,33.67,0,0,0,3.65.24h0c7.79,0,11.78-3.52,16-7.23,1.17-1,2.37-2.09,3.68-3.08.69-.54,1.4-1.07,2.12-1.62,7.39-5.64,15.79-12,23.18-20.8a14.75,14.75,0,0,0,3.2-5.84C168.53,348.25,162.05,338.85,155.56,336.8Zm10.95,19.45a14.86,14.86,0,0,1-3.14,5.67c-7.36,8.73-15.72,15.11-23.12,20.76-.73.54-1.43,1.08-2.12,1.6-1.32,1-2.52,2.08-3.7,3.1-4.17,3.67-8.1,7.12-15.75,7.12a28.58,28.58,0,0,1-3.61-.23c-6.06-.73-13.67-3.19-17.33-5.65a23,23,0,0,1-7.4-8.45c0-2.89,1.87-4.27,3.7-5.6.95-.72,2-1.42,3-2.08a41.18,41.18,0,0,0,4.45-3.2c5.77-5,7.89-9.51,10.33-14.79a75.79,75.79,0,0,1,3.94-7.75c4-6.75,14.63-10.78,28.34-10.78,2.36,0,4.74.12,7.07.35a26.51,26.51,0,0,1,4.26.85C161.8,339.16,168.14,348.37,166.51,356.25Z"/><path class="cls-1" d="M142.61,344.63c-6.22,0-12.6,2.35-15.52,5.7s-5,8.48-6.89,13.29c-.94,2.43-1.93,4.94-3,7.16a6.51,6.51,0,0,0,0,6.37,5.61,5.61,0,0,0,4.93,2.63h0a5.83,5.83,0,0,0,1.08-.09,11.64,11.64,0,0,0,3.07-1.12c2.71-1.26,5.84-2.86,9.15-4.55l3.57-1.81a36.31,36.31,0,0,0,8.24-5.92c3-3,6.26-7.54,7-11.09a8,8,0,0,0-1.37-6.92C150.85,345.94,147.24,344.63,142.61,344.63Zm11.19,10.5c-.7,3.48-4,8-6.87,10.89a35.51,35.51,0,0,1-8.15,5.85l-3.55,1.81c-3.33,1.69-6.46,3.28-9.15,4.55a12.91,12.91,0,0,1-3,1.1,7.29,7.29,0,0,1-1,.07h0a5.19,5.19,0,0,1-4.59-2.44,6,6,0,0,1,0-6c1.09-2.25,2.07-4.76,3-7.19,1.88-4.8,3.81-9.75,6.82-13.19,2.85-3.27,9.12-5.56,15.24-5.56,4.51,0,8,1.25,9.88,3.51A7.65,7.65,0,0,1,153.8,355.13Z"/><path class="cls-1" d="M97.43,358.81c1.18-1.34,2.77-4.09,2.58-6.05-.3-3.3-3.14-5.18-7.77-5.18-5.31,0-11.8,2.61-13.08,6.51a4.35,4.35,0,0,0-.1,2,9.94,9.94,0,0,1,.06,1.63v0l0,.05c1.46,3.27,4.58,5.15,8.54,5.15h0A13.54,13.54,0,0,0,97.43,358.81Zm-9.75,3.82c-3.79,0-6.77-1.79-8.17-4.9a10.09,10.09,0,0,0-.08-1.66,3.91,3.91,0,0,1,.09-1.85c1.2-3.69,7.65-6.28,12.72-6.28,2.09,0,7,.48,7.41,4.86.17,1.82-1.39,4.52-2.5,5.76A13.12,13.12,0,0,1,87.68,362.63Z"/><path class="cls-1" d="M269.18,370.19l0,.06a3.34,3.34,0,0,0,2.41,1.19A2.45,2.45,0,0,0,273,371l0-.05a2.16,2.16,0,0,0,.45-1.8,5,5,0,0,0-2.15-2.83l0,0h0a2.22,2.22,0,0,0-1.26.13c-1.37.81-1.07,2.56-.88,3.73Zm1-3.45a2.41,2.41,0,0,1,1-.09,4.41,4.41,0,0,1,2,2.56,1.9,1.9,0,0,1-.38,1.49,2,2,0,0,1-1.18.38,2.93,2.93,0,0,1-2.08-1C269.35,368.91,269.09,367.41,270.2,366.74Z"/><path class="cls-1" d="M190.51,382.29c.34-3.15,0-6.13-.87-7.27-2.07-2.79-8.1-3.79-13.06-3.79a25.49,25.49,0,0,0-8.27,1.15c-3.65,1.35-7.66,4.95-10.89,7.86-1.86,1.64-3.95,3.3-5.95,4.91-5.18,4.11-10.5,8.34-13,13.48h.41c2.55-5,7.77-9.16,12.87-13.2,2-1.6,4.09-3.24,6-4.91,3.2-2.89,7.19-6.47,10.78-7.79a25.15,25.15,0,0,1,8.13-1.14c4.64,0,10.76,1,12.77,3.64.77,1,1.11,4,.8,7a116.09,116.09,0,0,1-3.43,15.51c-.09.29-.18.57-.26.87h.38c.09-.26.16-.51.23-.76A113.47,113.47,0,0,0,190.51,382.29Z"/><path class="cls-1" d="M2.36,380.58a11.14,11.14,0,0,0-2.36.25v.39a11.18,11.18,0,0,1,2.36-.28,9.59,9.59,0,0,1,7.79,4c2.12,2.75,3.34,8.14,3.59,13.66h.34c-.26-5.6-1.48-11.08-3.62-13.9A10.06,10.06,0,0,0,2.36,380.58Z"/><path class="cls-1" d="M171,392.37a.88.88,0,0,1-.25-.47,1.1,1.1,0,0,0-.39-.64l-.06,0a3.63,3.63,0,0,0-1.21-.21c-2.69,0-5.1,3-5.41,5.64l0,.1.1.08a1,1,0,0,1,.23.37.75.75,0,0,0,.11.28l0,.06h0a3.88,3.88,0,0,0,1.77.42h0a5.53,5.53,0,0,0,5.13-5.47v-.09ZM169.31,396a4.81,4.81,0,0,1-3.37,1.6h0a3.53,3.53,0,0,1-1.55-.36c0-.05,0-.1-.07-.16a1.2,1.2,0,0,0-.26-.48c.32-2.42,2.55-5.22,5-5.22a3.88,3.88,0,0,1,1.06.19.86.86,0,0,1,.25.46,1.08,1.08,0,0,0,.31.56A4.86,4.86,0,0,1,169.31,396Z"/><path class="cls-1" d="M2.25,394.46a3.66,3.66,0,0,0-2.08-.68l-.17,0v.38H.17a3.26,3.26,0,0,1,1.85.57,4.57,4.57,0,0,1,1.71,3.74c0,.05,0,.09,0,.14H4.1v-.14A4.83,4.83,0,0,0,2.25,394.46Z"/><path class="cls-1" d="M390.36,215.61c-6.92,2.5-12.42,8.69-13.05,14.68-.36,3.13.46,7.65,6.21,11.25.38.23.72.45,1.08.66,3.11,1.93,5.76,3.58,7.58,6.9,2.12,3.85,1.73,7.29,1.28,11.28-.11,1.05-.24,2.15-.31,3.26-.34,5.06,3,8.49,6.85,11.81V274c-3.28-2.92-6-6-5.74-10.26.08-1.08.2-2.15.32-3.18.45-4,.86-7.78-1.41-11.95-2-3.58-4.76-5.32-8-7.31l-1-.65C380,238,378,234.44,378.4,230.4c.62-5.59,5.8-11.37,12.35-13.74a79.83,79.83,0,0,1,9.24-2.51s0,0,0,0V213a2.14,2.14,0,0,1-.27.06A84.41,84.41,0,0,0,390.36,215.61Z"/><path class="cls-1" d="M385.14,116.07c-5.18-.74-10.25-1.33-15.17-.17-6.22,1.48-11.08,4.61-15.92,8-2.74,1.89-5.77,3.76-8.72,5.57A98.05,98.05,0,0,0,334.19,137c-5.66,4.92-7.65,10.09-6.88,17.91a141.91,141.91,0,0,0,4.17,21.85c1.19,4.78,2.43,9.72,3.3,15.22.22,1.36.46,2.74.72,4.2,1.09,6.27,2.33,13.37,1.71,18.84-.83,7.34-6.21,13.53-14,16.16l-2.3.43h1.88a.77.77,0,0,0-.07.16.57.57,0,0,0,0,.38c0,.08-2.2.25-2.12.31a7.51,7.51,0,0,0,3.1-.26l0,0c8.15-2.78,13.75-9.31,14.62-17,.62-5.62-.63-12.82-1.73-19.16-.25-1.46-.49-2.84-.7-4.18-.9-5.55-2.13-10.52-3.34-15.32a143.46,143.46,0,0,1-4.14-21.69c-.73-7.4,1.15-12.31,6.5-16.93a93,93,0,0,1,11-7.45c2.95-1.81,6-3.69,8.78-5.62,4.92-3.41,9.5-6.36,15.53-7.79,4.72-1.11,9.67-.54,14.74.2,1.61.24,3.18.45,4.74.67,3.61.49,7.05,1,10.29,1.59V118.3c-3.2-.62-6.6-1.08-10.15-1.57C388.31,116.52,386.75,116.31,385.14,116.07Z"/><path class="cls-1" d="M367.3,387.89c-2.36-3.38-4.59-6.58-3.36-11.16.82-3,3.26-4.66,5.84-6.39,2.74-1.83,5.57-3.7,6.39-7.41,1.09-4.82.73-16.56-.07-20.12a20,20,0,0,0-1.64-4.09c-1.38-2.84-2.94-6.07-1.93-9.08,1.34-3.91,6.26-6.79,11.05-9.58,2-1.15,3.84-2.26,5.45-3.4,4.3-3.13,10.8-7.86,9.53-15.35-1-6.07-6.07-8.66-11.39-11.41a60.66,60.66,0,0,1-9.16-6.39c-3.61-2.85-7.33-5.8-11.44-7.47l-1.36-.57a21.18,21.18,0,0,0-3.15-1.21c-.38-.11-.8-.21-1.22-.34-3.49-.95-8.28-2.24-12.9-2.24a19.28,19.28,0,0,0-4.16.42c-7,1.5-12.17,9.95-13.67,17.49-2.64,13.16,2.28,20.84,6.61,27.63a42.26,42.26,0,0,1,4.46,8.21,12.48,12.48,0,0,1,.53,7.15c-2,8.07-8.26,15.14-14.87,22.64-1.6,1.79-3.26,3.67-4.85,5.57A84,84,0,0,1,312,371l-.25.21a29.46,29.46,0,0,0-5.44,5.49c-.2.27-.38.55-.55.82-3.71,6-4.2,10.9-1.5,15.15a19.68,19.68,0,0,0,3.31,3.71c.74.72,1.5,1.45,2.19,2.25h1.44l-.44-.55a27.53,27.53,0,0,0-2.42-2.51,19.15,19.15,0,0,1-3.13-3.5c-2.44-3.84-2-8.41,1.5-13.95.16-.25.34-.5.49-.76a28.8,28.8,0,0,1,5.28-5.3l.25-.21a85.23,85.23,0,0,0,10.1-10.33c1.6-1.9,3.25-3.76,4.84-5.56,6.71-7.59,13-14.78,15.11-23.1a13.68,13.68,0,0,0-.56-7.82,43.08,43.08,0,0,0-4.57-8.44c-4.21-6.59-9-14.07-6.45-26.8,1.45-7.19,6.31-15.2,12.8-16.62a19.41,19.41,0,0,1,3.93-.38c4.47,0,9.17,1.28,12.61,2.22l1.22.32a20,20,0,0,1,3,1.15c.45.2.91.41,1.37.58,4,1.63,7.64,4.52,11.18,7.31a59.27,59.27,0,0,0,9.36,6.51c5.27,2.74,9.84,5.1,10.78,10.6,1.16,6.81-5,11.3-9.1,14.26a61.29,61.29,0,0,1-5.35,3.34c-4.95,2.9-10.07,5.88-11.52,10.19-1.16,3.45.49,6.89,2,9.92a20.76,20.76,0,0,1,1.55,3.85c.79,3.46,1.1,15.08.09,19.65-.73,3.25-3.27,4.94-5.94,6.71s-5.36,3.59-6.29,7c-1.37,5.07,1.11,8.63,3.53,12.08,1.79,2.59,3.67,5.27,4.12,8.71.06.47.09.94.13,1.39h1.12c0-.5-.07-1-.14-1.53C371.14,393.39,369.19,390.6,367.3,387.89Z"/><path class="cls-1" d="M395.07,330.79a60.07,60.07,0,0,1-4,9c-.38.65-.8,1.29-1.25,2-2.37,3.67-5.06,7.83-4,15.83a31.92,31.92,0,0,0,1.25,4.94,19.4,19.4,0,0,1,1.34,7.4,17.85,17.85,0,0,1-1.84,5.79c-.78,1.59-1.55,2.95-2.28,4.27-2.69,4.88-4.82,8.76-4.87,18.6h.75c0-9.65,2-13.25,4.78-18.25.75-1.31,1.49-2.68,2.28-4.28a17.72,17.72,0,0,0,1.92-6.06,20.48,20.48,0,0,0-1.36-7.71,30.13,30.13,0,0,1-1.24-4.81c-1-7.71,1.6-11.75,3.92-15.33.42-.67.85-1.32,1.25-2a62.44,62.44,0,0,0,4.1-9.14,42.46,42.46,0,0,1,2.75-6.27A23.73,23.73,0,0,1,400,322.7v-1.16a24.51,24.51,0,0,0-2.12,2.85A42.55,42.55,0,0,0,395.07,330.79Z"/><path class="cls-1" d="M355.75,319.23h0c7.6,0,18.22-6.78,19.31-14.39.62-4.33-1.42-9.58-5.59-14.4-5.23-6-12.47-9.93-18.47-9.93a11.28,11.28,0,0,0-6.8,2.1c-6.11,4.42-6.61,12.35-6.44,18,1.74,9.78,8.19,17.22,16,18.51A12.52,12.52,0,0,0,355.75,319.23Zm-17.63-18.71c-.16-5.49.35-13.29,6.3-17.61a11,11,0,0,1,6.58-2c5.88,0,13,3.84,18.19,9.79,4.09,4.75,6.11,9.88,5.49,14.12-1.07,7.44-11.46,14.06-18.93,14.06a10.45,10.45,0,0,1-1.88-.15C346.16,317.46,339.83,310.13,338.12,300.52Z"/><path class="cls-1" d="M399.83,352.94l0,0c0,.12.11.23.15.34v-3.41A9.25,9.25,0,0,0,399.83,352.94Z"/><path class="cls-1" d="M356,305a4.36,4.36,0,0,0,3.87-2.67,3.4,3.4,0,0,0-.84-3.87,3.77,3.77,0,0,0-2.68-1,4.19,4.19,0,0,0-3.21,1.41,3.86,3.86,0,0,0-.82,3.18l0,.05c1.05,2.55,2.75,2.93,3.66,2.93ZM352.7,302a3.4,3.4,0,0,1,.72-2.86,3.87,3.87,0,0,1,2.93-1.28,3.45,3.45,0,0,1,2.42.93,3,3,0,0,1,.77,3.45,4,4,0,0,1-3.54,2.44C354.58,304.66,353.42,303.72,352.7,302Z"/><path class="cls-1" d="M353.73,341.45a5.74,5.74,0,0,0-1.6.24c-4.86,1.53-6.4,7.56-5.42,12.75l0,.05c1,2.16,3.27,3.39,6.12,3.39h0a10.34,10.34,0,0,0,7.22-2.95,6.4,6.4,0,0,0,1.91-4.78C361.85,346.32,357.94,341.45,353.73,341.45Zm6.09,13.22a9.93,9.93,0,0,1-7,2.83h0c-2.71,0-4.8-1.13-5.77-3.16-1-5,.5-10.84,5.13-12.28a4.9,4.9,0,0,1,1.51-.23c3.9,0,7.76,4.7,7.9,8.33A6.17,6.17,0,0,1,359.82,354.67Z"/><path class="cls-1" d="M346.23,378.56c-2.47-3.92-6-6.29-10.06-6.69a11.87,11.87,0,0,0-1.21-.05c-6.79,0-15.21,5.12-18.83,9.91a9.56,9.56,0,0,0-1.95,6.75,23.65,23.65,0,0,0,4.92,10.15h.49a23.38,23.38,0,0,1-5-10.21,9.23,9.23,0,0,1,1.88-6.47c3.57-4.71,11.86-9.75,18.54-9.75a11.28,11.28,0,0,1,1.18.05c3.9.37,7.37,2.7,9.78,6.52,2.07,3.24,3.71,7.86,5.31,12.32.91,2.58,1.87,5.23,2.86,7.54h.41c-1-2.35-2-5-2.93-7.67C350,386.47,348.32,381.84,346.23,378.56Z"/><path class="cls-1" d="M387,394.39a26.6,26.6,0,0,0-.71,4.24h.38a27.28,27.28,0,0,1,.7-4.17c.78-6,6.68-11.93,12.63-13.24v-.39C393.81,382.11,387.83,388.1,387,394.39Z"/><path class="cls-1" d="M397,395.47a5.43,5.43,0,0,0-1.11,3.16h.38a5,5,0,0,1,1-2.94,3.7,3.7,0,0,1,2.69-1.51v-.38A4.06,4.06,0,0,0,397,395.47Z"/><path class="cls-1" d="M389.92,122.6c-6-1.07-12.24-2.19-18.1-.72-5.59,1.41-9.9,4.86-14.49,8.51-1.65,1.32-3.36,2.66-5.15,4l-.71.51c-3.13,2.22-6.36,4.5-9.39,7l0,0c-4.12,4.22-4.45,10.07-4.26,15.23,0,.94.06,1.9.1,2.89.21,6.07.44,12.38,1.42,15.94,1.16,4.23,3.59,7.61,5.94,10.91,3.56,5,6.94,9.74,5.81,16.91a20.59,20.59,0,0,1-.75,2.95,18.81,18.81,0,0,0-.88,3.9,11.26,11.26,0,0,0,.33,3.21,16.12,16.12,0,0,1,.31,2.05,21.05,21.05,0,0,1-2.4,10.61A24.14,24.14,0,0,1,330.51,239c-2.44.46-4.91,1-7.31,1.6a89.12,89.12,0,0,1-12.45,2.33l-2.86.22c-8.27.68-15.38,1.24-23.33,4.94-1.92.9-4,1.65-6,2.38-6.09,2.17-12.4,4.42-15,11a88.88,88.88,0,0,1-5.83,11.27c-3,5.16-6.09,10.5-7.53,16.6-1.1,4.61-.41,9.28.28,13.81.1.58.17,1.17.25,1.74.9,6.21,1.28,11.34.21,16.27-1.28,5.94-5,8.81-14.33,11-8.7,2.06-12.31,3.27-14.12,12.56-.31,1.68-.6,3.41-.88,5.08-1.9,11-3.67,21.38-13.45,24.27a12.74,12.74,0,0,1-9.68-1.2,6.27,6.27,0,0,1-2.92-4.66c-.21-1.55-.25-3.22-.31-4.85a27.22,27.22,0,0,0-.95-7.67c-1.65-4.73-6.28-7.56-11.63-10.87-2.41-1.5-4.91-3-7.31-4.87-1.74-1.32-3.23-2.63-4.68-3.86-3.91-3.37-7.28-6.26-12.76-7.47a59.83,59.83,0,0,0-10.33-1c-7.3-.3-14.19-.59-16-5.19-.65-1.68-.26-4.18.1-6.39,0-.26.09-.53.12-.78.14-.89.26-1.83.4-2.81,1-7.44,2.42-17.64,9.38-18.65A36.39,36.39,0,0,1,150,294c1.08.1,2.18.23,3.29.3a56.71,56.71,0,0,0,21.91-2.45c4.93-1.5,8.83-4.32,12.63-7,3.65-2.63,7.11-5.1,11.32-6.42,1.6-.49,3.37-.88,5.25-1.3,6.77-1.49,14.47-3.17,16.67-10.84,1.75-6.14-1-12.79-3.75-19.21a59.21,59.21,0,0,1-3.23-8.77c-1.58-6.65,1.3-14.19,3.82-20.83.52-1.39,1-2.68,1.48-4,1.52-4.37,3.6-7.08,7.87-10.38,6.5-5,10.43-10.38,14.55-19.88.3-.71.59-1.37.9-2.05,1.29-3,2.51-5.8,4-9.52a42.31,42.31,0,0,1,5.37-6.78c2.7-2.92,5-5.44,5.88-9.82.17-.82.26-1.67.36-2.57a25.25,25.25,0,0,1,.4-3c1-4.67,4.24-7.41,7.41-10.05,2.74-2.27,5.58-4.63,6.67-8.15a19.9,19.9,0,0,0,.7-8.9c-.69-7.52-3.25-13.3-7.06-15.89a10,10,0,0,0-8.84-1c-6.67,2-16.81,14.73-18.78,17.25l-1.36,1.77c-3.07,4-6,7.85-10.2,9.43-3.68,1.38-8.56,1.9-13.73,2.47-3.12.34-6.36.69-9.39,1.25-12.28,2.26-21,10.84-22.67,22.39-.11.77-.15,1.67-.21,2.58a17.09,17.09,0,0,1-.87,5.5c-1.23,3-4.35,3.62-7.63,4.34-1,.22-2.08.45-3.08.74-3.56,1-6.65,3.09-9.67,5.08-3.6,2.36-7.32,4.82-12,5.76a55.68,55.68,0,0,1-6.08.73,39.62,39.62,0,0,0-7.82,1.15c-7,2.17-5.39,8.78-4.07,14.1.3,1.15.57,2.23.73,3.22.89,5,.51,10.37-1.19,16.91-.35,1.37-.63,2.72-.9,4-.73,3.5-1.43,6.81-3.45,10.12-1.67,2.77-3.14,3.41-5.59,4.49-.66.28-1.39.61-2.19,1-7.32,3.63-12.87,8.58-18.72,13.83l-1.26,1.12a67.35,67.35,0,0,0-5.32,5.53,60.3,60.3,0,0,1-5.92,6.05,41.55,41.55,0,0,1-14.1,7.31c-4.12,1.35-8.36,2.5-12.43,3.62a179.74,179.74,0,0,0-18.89,5.95c-5.48,2.19-17.64,3.75-25,1.3C11.89,283.17,7.07,280,1,274.84c-.36-.3-.7-.59-1-.9v1.51a3.71,3.71,0,0,0,.28.26c6.25,5.36,11.07,8.46,15.14,9.81,8,2.61,20.31.85,25.83-1.34A176.69,176.69,0,0,1,60,278.27c4.1-1.1,8.33-2.27,12.5-3.63,6.1-2,10.69-4.39,14.44-7.52A56.73,56.73,0,0,0,93,261a68.37,68.37,0,0,1,5.22-5.44l1.27-1.13c5.81-5.2,11.28-10.09,18.46-13.65.79-.37,1.52-.71,2.17-1,2.45-1.08,4.22-1.87,6.09-4.93,2.1-3.48,2.82-6.89,3.58-10.48.26-1.28.56-2.61.9-4,1.74-6.72,2.11-12.25,1.2-17.4-.18-1-.45-2.12-.74-3.28-1.35-5.37-2.71-10.91,3.3-12.78a40.8,40.8,0,0,1,7.58-1.09c2.13-.2,4.33-.38,6.21-.75,4.89-1,8.7-3.5,12.38-5.93,3.08-2,6-3.93,9.36-4.94,1-.28,2-.51,3-.72,3.44-.74,7-1.5,8.43-5a18.26,18.26,0,0,0,1-5.88,20,20,0,0,1,.21-2.5c1.6-11,10-19.27,21.75-21.44,3-.55,6.2-.9,9.31-1.24,5.23-.56,10.19-1.09,14-2.53,4.53-1.69,7.54-5.64,10.71-9.79.45-.59.88-1.18,1.33-1.76C245,116.51,253,108,257.91,106.5a9,9,0,0,1,7.89.88c3.53,2.38,5.93,7.86,6.58,15.06a18.3,18.3,0,0,1-.65,8.44c-1,3.23-3.59,5.36-6.31,7.65-3.33,2.76-6.75,5.61-7.79,10.69a27.68,27.68,0,0,0-.44,3.13c-.08.89-.18,1.71-.32,2.49-.8,4-3,6.47-5.6,9.27a40.39,40.39,0,0,0-5.54,7l0,.1c-1.43,3.72-2.66,6.54-4,9.52-.31.68-.61,1.34-.9,2.05-4,9.3-7.88,14.58-14.19,19.45-4.49,3.44-6.65,6.29-8.27,10.89-.46,1.26-1,2.57-1.47,3.94-2.6,6.8-5.53,14.49-3.85,21.51a60.87,60.87,0,0,0,3.26,8.93c2.64,6.24,5.37,12.71,3.7,18.49-2,7-9.34,8.62-15.81,10-1.91.43-3.72.82-5.35,1.32-4.38,1.38-8.09,4-11.64,6.59-3.71,2.66-7.55,5.44-12.3,6.89a55.88,55.88,0,0,1-21.49,2.38c-1.1-.07-2.21-.18-3.26-.29a39.83,39.83,0,0,0-8.83-.24c-7.83,1.14-9.26,11.82-10.34,19.61-.13,1-.25,1.91-.38,2.78-.06.25-.1.52-.14.78-.37,2.36-.8,5,0,7,2.12,5.28,9.34,5.57,17,5.88a62.78,62.78,0,0,1,10.15,1c5.2,1.15,8.31,3.85,12.26,7.23,1.46,1.26,3,2.55,4.72,3.91,2.45,1.86,5,3.43,7.43,4.93,5.16,3.19,9.61,5.94,11.13,10.29a26.39,26.39,0,0,1,.9,7.34,48.57,48.57,0,0,0,.31,5,7.49,7.49,0,0,0,3.42,5.44,14,14,0,0,0,10.61,1.34C218.88,372,220.8,360.8,222.65,350c.28-1.67.59-3.38.9-5,1.64-8.52,4.69-9.67,13.26-11.69,8.21-1.94,13.6-4.6,15.18-11.87,1.09-5.1.73-10.36-.19-16.66-.08-.59-.18-1.17-.26-1.76-.69-4.61-1.35-9-.3-13.39,1.39-5.92,4.47-11.2,7.41-16.28a86.66,86.66,0,0,0,5.9-11.42c2.43-6.12,8.22-8.2,14.36-10.37,2-.73,4.16-1.49,6.13-2.42,7.75-3.62,14.79-4.18,22.93-4.82l2.87-.23a85.91,85.91,0,0,0,12.61-2.36c2.39-.54,4.86-1.15,7.26-1.58a25.28,25.28,0,0,0,18-13.08,21.86,21.86,0,0,0,2.53-11.19,20.9,20.9,0,0,0-.34-2.19,10.31,10.31,0,0,1-.31-2.9,16.37,16.37,0,0,1,.83-3.67,22.17,22.17,0,0,0,.8-3.11c1.19-7.63-2.47-12.76-6-17.74-2.29-3.2-4.66-6.52-5.78-10.54-1-3.46-1.16-9.69-1.37-15.7,0-1-.07-1.93-.11-2.89-.19-4.91.14-10.45,3.92-14.37,3-2.44,6.2-4.73,9.29-6.92l.73-.52c1.81-1.27,3.54-2.65,5.21-4,4.47-3.58,8.72-7,14.07-8.29,5.62-1.42,11.46-.38,17.62.73,1.88.33,3.8.7,5.72,1a27.89,27.89,0,0,1,4.55,1v-1.18a27.88,27.88,0,0,0-4.39-1C393.71,123.29,391.78,123,389.92,122.6Z"/><path class="cls-1" d="M384.14,206.82c-1.92.14-3.91.27-6,.54-5.15.63-6.57,2.4-8.9,5.33-.35.43-.7.9-1.12,1.37s-1,1.15-1.43,1.7c-2.83,3.31-5.07,5.94-5.3,11.48-.19,4.73,1.87,7.61,4.26,10.94.36.49.73,1,1.1,1.53s.66.95,1,1.46c4,5.62,10.05,14.13,6.62,20.39-3.88,7.06-16.34,4.64-23,3.34l-.65-.11c-.71-.14-1.44-.28-2.17-.45-5.63-1.15-11.46-2.36-14.08,1.25l-.93,1.36c-4,6-7.86,11.62-9.44,18.12a54.85,54.85,0,0,0-.94,19.28c.5,4.14,2.73,8.32,4.89,12.37,3.09,5.78,6,11.22,3.93,16.15-1.9,4.55-5.79,8.11-9.55,11.58a61.9,61.9,0,0,0-6.35,6.41c-.88,1.1-1.78,2.17-2.65,3.2-3.66,4.35-7.1,8.47-9.38,13.69-.54,1.23-1.09,2.47-1.64,3.66a75.79,75.79,0,0,0-3.63,8.89c-1.9,6-3.27,12.19-4.59,18.19a.7.7,0,0,1,0,.14h1.16c1.3-5.94,2.64-12.1,4.52-18a75.26,75.26,0,0,1,3.58-8.74c.55-1.21,1.11-2.44,1.67-3.69,2.19-5.08,5.6-9.13,9.2-13.42.87-1,1.78-2.12,2.65-3.2a61.87,61.87,0,0,1,6.25-6.3c3.85-3.54,7.84-7.2,9.82-12,2.27-5.42-.9-11.37-4-17.11-2.11-4-4.3-8.05-4.77-12a53.87,53.87,0,0,1,.92-18.9c1.53-6.3,5.31-11.87,9.28-17.75l.91-1.33c2.19-3,7.65-1.9,12.93-.8.74.14,1.47.3,2.19.43l.64.13c7,1.35,19.95,3.86,24.23-3.9,3.79-6.91-2.52-15.74-6.68-21.59-.38-.52-.72-1-1.06-1.47s-.73-1-1.09-1.53c-2.36-3.3-4.24-5.88-4.06-10.23.21-5.16,2.23-7.51,5-10.8.48-.55,1-1.11,1.46-1.71s.77-.95,1.11-1.39c2.32-2.91,3.48-4.35,8.17-4.93,2-.23,4-.39,5.92-.52a85.25,85.25,0,0,0,9.05-1c2.38-.42,4.59-1,6.74-1.56v-1.17c-2.2.62-4.49,1.18-6.9,1.62A89.63,89.63,0,0,1,384.14,206.82Z"/><path class="cls-1" d="M281.9,393.25c7.08-3.69,10.24-10.64,12.4-16.94.56-1.6,1.08-3.24,1.59-4.83.57-1.78,1.16-3.62,1.78-5.42a88,88,0,0,1,5.94-14l.38-.66a17.5,17.5,0,0,1,3.36-4.74,18,18,0,0,0,4-6l.37-.73a41.64,41.64,0,0,1,2.69-4.49,39.23,39.23,0,0,0,3.08-5.29c1.6-3.6.56-7.11-.45-10.5-.34-1.17-.69-2.37-.93-3.52-.9-4.5-.22-8.5.49-12.75.31-1.87.63-3.8.82-5.8s.23-4.26.28-6.35a65.52,65.52,0,0,1,.46-7.85,29.46,29.46,0,0,1,3-8.55,32.82,32.82,0,0,0,2.26-5.6c.77-2.8.94-7.9-1.66-10.44-1.81-1.74-4.37-1.81-6.65-1.87-.67,0-1.33-.05-1.95-.11a21.18,21.18,0,0,1-4.81-1.2,25.26,25.26,0,0,0-4.47-1.18c-5.09-.76-11.08.1-14.21.66-4.63.87-11.34,3.13-14.63,5.64-3,2.29-5.33,6.69-7.42,10.6-.89,1.68-1.74,3.25-2.57,4.57l-.73,1.14c-3.95,6.13-7.68,11.94-6.63,24.28.23,2.64,1.07,11.68,2.64,16.92a27.42,27.42,0,0,0,4.28,7.91c2.4,3.42,4.47,6.38,3.74,10.55a8.56,8.56,0,0,1-3.27,5.6,6.79,6.79,0,0,1-5.28,1,23.46,23.46,0,0,1-4.1-1.29,23.45,23.45,0,0,0-4.11-1.33,21.09,21.09,0,0,0-10.37.21c-10,2.71-12.37,12.36-14.84,22.58-.22.91-.45,1.82-.66,2.74-2.61,10.4-6.61,16.85-14.26,23.06-.63.5-1.25,1-1.85,1.39-.39.3-.79.57-1.12.85a49.55,49.55,0,0,0-7.95,7.08H202a55.08,55.08,0,0,1,7.14-6.19c.34-.28.72-.55,1.1-.83.62-.45,1.25-.91,1.91-1.43,7.86-6.38,12-13,14.62-23.67.23-.89.45-1.82.68-2.73,2.4-9.9,4.66-19.23,14-21.76a19.74,19.74,0,0,1,9.85-.19,22.66,22.66,0,0,1,3.93,1.26,24.28,24.28,0,0,0,4.31,1.36,7.92,7.92,0,0,0,6.12-1.21,9.69,9.69,0,0,0,3.74-6.31c.8-4.63-1.49-7.93-3.93-11.4a26.17,26.17,0,0,1-4.12-7.56c-1.53-5.17-2.38-14.11-2.61-16.73-1-11.95,2.63-17.59,6.46-23.56.25-.39.49-.75.74-1.16.84-1.35,1.72-2.93,2.63-4.63,2-3.8,4.31-8.1,7.1-10.23,3.14-2.42,9.63-4.61,14.15-5.42a45.57,45.57,0,0,1,13.85-.67,24.91,24.91,0,0,1,4.27,1.15A25,25,0,0,0,313,258c.66,0,1.34.08,2,.09,2.17.06,4.4.14,5.89,1.59,2.25,2.18,2,6.86,1.37,9.32a31.24,31.24,0,0,1-2.19,5.42,30.12,30.12,0,0,0-3.07,8.87,67.21,67.21,0,0,0-.45,8c-.07,2.08-.11,4.22-.3,6.27s-.5,3.88-.81,5.74c-.69,4.16-1.42,8.45-.48,13.13.25,1.23.62,2.45,1,3.62,1,3.35,1.92,6.52.49,9.72a35.66,35.66,0,0,1-3,5.14,49.26,49.26,0,0,0-2.78,4.6l-.35.75a17.22,17.22,0,0,1-3.7,5.64,18.67,18.67,0,0,0-3.6,5l-.38.64a87.93,87.93,0,0,0-6,14.18c-.63,1.79-1.22,3.65-1.8,5.43-.5,1.6-1,3.23-1.57,4.83-2.11,6.09-5.14,12.8-11.86,16.29a20.09,20.09,0,0,0-3.47,2.52c-1.75,1.46-3.59,3-5.55,3.17-3.58.38-6-2.5-8.34-5.28-.68-.81-1.31-1.57-2-2.24a20.88,20.88,0,0,1-4.57-6.12,33.49,33.49,0,0,1-2-6.33c-.25-1.21-.49-2.5-.74-3.86-1.63-8.79-3.64-19.71-13.9-19l-.11,0-.11,0c-4.72,2.41-6.34,8.12-7.78,13.16l-.14.51c-2.45,8.66-4.71,15.77-9.26,21.89-.92,1.22-1.91,2.4-2.86,3.54a53,53,0,0,0-3.39,4.34h1.38c.84-1.2,1.84-2.4,2.86-3.63s1.95-2.33,2.89-3.59c4.69-6.26,7-13.47,9.46-22.26l.15-.49c1.34-4.79,2.89-10.2,7.11-12.42,9.14-.59,11,9.33,12.6,18.08.26,1.37.5,2.65.76,3.88a35.1,35.1,0,0,0,2,6.53,21.92,21.92,0,0,0,4.81,6.47c.62.65,1.25,1.39,1.91,2.16,1.73,2.07,3.59,4.31,6.08,5.27h4.94a18.39,18.39,0,0,0,4.45-3A19.27,19.27,0,0,1,281.9,393.25Z"/><path class="cls-1" d="M9.49,211.45c6.76-2.21,13.18-4.31,22.47-2.42,8.07,1.64,16.46,1.69,23,.18C65.7,206.72,66.15,198,66.82,184.9c0-.72.09-1.43.13-2.12a24.92,24.92,0,0,0,0-5.85c-1-6.68-7.29-9-13.37-10.35a55.31,55.31,0,0,0-13-.85,64.26,64.26,0,0,1-9.08-.28c-2.7-.34-4.53-1.2-5.58-2.59-1.73-2.31-1.32-6-.63-10.45,2-12.94-.92-19.22-6.3-25.12-4.82-5.28-11.37-7.53-19-9v1.14c7.33,1.42,13.59,3.62,18.13,8.6,5.18,5.67,8,11.69,6.05,24.18-.74,4.79-1.16,8.65.83,11.3,1.24,1.66,3.31,2.66,6.33,3a70.18,70.18,0,0,0,9.25.28,54.12,54.12,0,0,1,12.79.83c6,1.35,11.63,3.41,12.5,9.42a27,27,0,0,1,0,5.6c0,.7-.11,1.41-.14,2.14-.73,14.16-1.5,21.07-11,23.27-6.43,1.49-14.65,1.42-22.57-.18-9.58-1.94-16.11.18-23,2.46-2.42.78-4.9,1.58-7.51,2.21L0,213v1.15c.62-.15,1.25-.28,1.88-.45C4.55,213.07,7.06,212.24,9.49,211.45Z"/><path class="cls-1" d="M328.88,119.2a1.19,1.19,0,0,1-.21-.38,1.83,1.83,0,0,0-.61-.94c-1.11-.84-3.58-1.22-6.21-1.61l-2.27-.37c-8.45-1.54-16.41-5.32-24.13-9-2.66-1.26-5.41-2.55-8.14-3.75l-1-.45c-7.4-3.2-13.77-6-19.27-12-4.51-5-7.24-10.34-7.92-15.61-1.09-8.47,2.07-12.21,5.42-16.16,1-1.15,2-2.33,2.88-3.65,1.58-2.29,2.9-4.93,1.78-8.7-1.05-3.57-4.14-6-7.73-8.93-.51-.42-1-.86-1.58-1.29A76.91,76.91,0,0,1,253.21,30c-3.64-3.76-6.78-7-11.12-8.35a15.82,15.82,0,0,0-13,2.19c-4.38,2.77-7.49,7.1-8.1,11.3a35.9,35.9,0,0,0-.09,6,29,29,0,0,1-.27,7.09c-1.32,5.84-7.2,9-12.17,11A139.7,139.7,0,0,0,193.54,67c-7,4-13.65,7.8-20.21,9.44-7,1.77-13.7-.45-19.6-2.41a55.31,55.31,0,0,0-6.33-1.88c-6.67-1.42-11.23.91-12.48,6.36a41.14,41.14,0,0,0-.72,5.33c-.11,1.22-.23,2.48-.4,3.69-.94,5.94-3.36,10.82-5.72,15.54A61,61,0,0,0,123,115.9a62.21,62.21,0,0,0-1,7.48,65.19,65.19,0,0,1-1.26,9,57.57,57.57,0,0,1-4.5,11c-1.11,2.3-2.29,4.69-3.33,7.27-.29.73-.57,1.48-.84,2.19-2,5.42-3.79,10.09-11.4,8.73-8-1.4-15-7.14-17-14a49.65,49.65,0,0,1-.94-18.83c1.1-6.2,4.31-14.87,9.68-18.94a27.2,27.2,0,0,1,6.35-3.44c3.24-1.42,6.61-2.88,9.67-6.93,3.34-4.43,5.65-14.62,3.67-24a49.32,49.32,0,0,0-3.58-10,80.5,80.5,0,0,1-3.54-9.1,27,27,0,0,1-.55-9.85,48.88,48.88,0,0,1,1.53-5.94l.34-1.09c2.08-7,4.69-15.74,12.07-17.43,3.9-.89,7.12,1.81,10.51,4.67A27.9,27.9,0,0,0,136,31.47c6,2.44,12.57.53,19.52-1.52,2.37-.7,4.86-1.43,7.37-2,2.81-.65,5.66-1,8.39-1.42a60.78,60.78,0,0,0,11.51-2.33c5.46-1.89,9-5.5,12.13-12.42C197.5,6,199.35,2.84,202,0h-1.49c-2.33,2.75-4.17,6-6.59,11.31-3,6.63-6.35,10-11.5,11.82a59.79,59.79,0,0,1-11.27,2.3c-2.78.38-5.63.79-8.49,1.45-2.57.57-5.05,1.3-7.47,2-6.72,2-13.1,3.87-18.76,1.55a27.37,27.37,0,0,1-6.82-4.66c-3.45-2.91-7-5.91-11.48-4.88-8,1.85-10.73,10.9-12.9,18.18l-.32,1.1a40.21,40.21,0,0,0-1.56,6.09,28,28,0,0,0,.57,10.34,77.46,77.46,0,0,0,3.58,9.21A50.66,50.66,0,0,1,111,75.64c1.86,9-.35,19-3.47,23.1-2.89,3.82-6,5.16-9.24,6.59a29.53,29.53,0,0,0-6.58,3.57c-5.63,4.27-9,13.25-10.1,19.65a50.16,50.16,0,0,0,1,19.32c2.15,7.22,9.5,13.3,17.9,14.78s10.61-4.07,12.64-9.44c.27-.72.55-1.46.83-2.18,1-2.54,2.19-4.91,3.31-7.18a60.7,60.7,0,0,0,4.56-11.22,64.38,64.38,0,0,0,1.29-9.13,64.19,64.19,0,0,1,1-7.34c1.08-4.59,3-8.48,5-12.61,2.39-4.81,4.85-9.77,5.8-15.87.2-1.24.31-2.51.42-3.75a43.25,43.25,0,0,1,.7-5.19c1.51-6.53,7.64-6.25,11.16-5.5a53.72,53.72,0,0,1,6.21,1.82c6.05,2,12.89,4.31,20.23,2.46,6.68-1.7,13.7-5.7,20.5-9.58a136.35,136.35,0,0,1,14.75-7.66c5.22-2.17,11.39-5.49,12.81-11.84a29,29,0,0,0,.32-7.37,32.26,32.26,0,0,1,.07-5.77c.56-3.89,3.47-7.92,7.58-10.51,4-2.49,8.37-3.25,12.13-2.07,4,1.25,7.1,4.41,10.62,8.06a84.39,84.39,0,0,0,6.77,6.43c.53.45,1.07.88,1.6,1.29,3.56,2.88,6.4,5.14,7.35,8.38,1,3.48-.29,5.84-1.63,7.73a44.5,44.5,0,0,1-2.82,3.58c-3.35,3.94-6.82,8-5.68,17,.72,5.51,3.55,11.09,8.21,16.24,5.66,6.22,12.15,9,19.66,12.3l1,.45c2.7,1.18,5.45,2.48,8.12,3.73,7.77,3.69,15.81,7.5,24.4,9.07.72.14,1.49.25,2.32.38,2.24.33,4.78.73,5.68,1.41.13.07.17.21.26.44a2.93,2.93,0,0,0,.26.55,10,10,0,0,1-4.49,6.92c-1.53,1-2.85.92-4.52.82-.48,0-.95,0-1.47-.07-6.29,0-13.08,6.23-15.9,10.71a58.37,58.37,0,0,0-3.86,8c-.65,1.5-1.29,3-2,4.49-4.09,8.43-8.47,13.84-12.67,15.6-1.14.48-2.22,1.09-3.28,1.66a23.89,23.89,0,0,1-4.2,2,52,52,0,0,1-6,1.48,53.39,53.39,0,0,0-6,1.44c-11.2,3.64-16.83,12.87-21.83,25.62l-.22.59c-.5,1.26-1,2.58-1.63,3.87a38.6,38.6,0,0,1-5.39,7.72c-2.64,3.17-5.11,6.19-5.88,10a41.82,41.82,0,0,0-.58,7.64c0,1.56,0,3.16-.17,4.75-.37,4.36-.8,9.28,1.77,13.76,1.77,3.07,3.6,5.92,5.5,8.94l.93,1.47a34.56,34.56,0,0,1,2.08,4,23.38,23.38,0,0,0,3.69,6.17l.15.18h.78a4.82,4.82,0,0,0,1.2-.12l.13-.05.11-.1a30.54,30.54,0,0,0,4.24-5.95,31.29,31.29,0,0,1,4.36-6,86.07,86.07,0,0,1,11.68-9.88,74,74,0,0,1,27.1-11.71c8.73-1.77,18.87-3.47,28.57-1.33h0l.38.09h.11a4.58,4.58,0,0,0,3.26-.37s1-1.52-.48-1a6.25,6.25,0,0,1-2.89.22h0c-10-2.24-20.31-.5-29.21,1.32a75.21,75.21,0,0,0-27.52,11.86,88.16,88.16,0,0,0-11.82,10,32.32,32.32,0,0,0-4.54,6.25,31.1,31.1,0,0,1-4,5.63,8.61,8.61,0,0,1-1,0,23.28,23.28,0,0,1-3.35-5.71,32.2,32.2,0,0,0-2.13-4.12l-.94-1.48c-1.9-3-3.71-5.84-5.46-8.92-2.42-4.15-2-8.89-1.65-13.06.14-1.66.17-3.29.18-4.86a40.05,40.05,0,0,1,.55-7.42c.72-3.53,3.12-6.43,5.64-9.51a38.72,38.72,0,0,0,5.55-7.94c.63-1.33,1.16-2.67,1.67-4l.21-.56c4.88-12.45,10.34-21.46,21.14-25a47,47,0,0,1,5.85-1.41,61,61,0,0,0,6.1-1.51,26.83,26.83,0,0,0,4.4-2.09,29,29,0,0,1,3.15-1.58c4.51-1.93,9-7.37,13.25-16.17.72-1.48,1.38-3,2-4.55a57,57,0,0,1,3.79-7.77c2.68-4.27,9.1-10.25,14.93-10.18.49,0,1,0,1.44.06a7.64,7.64,0,0,0,5.17-1,11.14,11.14,0,0,0,5-8l0-.27Z"/><path class="cls-1" d="M400,235c-3.58-1.66-5.36-3.1-5.38-5s1.83-4.26,5.38-6v-.44c-3.83,1.89-5.78,4.36-5.75,6.5s1.93,3.65,5.75,5.39Z"/></g></g></svg>
