<svg xmlns="http://www.w3.org/2000/svg" viewBox="0 0 289.542 51.045">
  <defs>
    <style>
      .cls-1 {
        fill: #fff;
      }
    </style>
  </defs>
  <g id="laras_paintbursh" data-name="laras paintbursh" transform="translate(-332 -291.879)">
    <g id="RAH_Logo" data-name="RAH Logo" transform="translate(332 291.881)">
      <path id="Path_49" data-name="Path 49" class="cls-1" d="M21.4,32.654,31.754,22.3v1.816L23.4,32.654Z" transform="translate(17.472 18.208)"/>
      <path id="Path_50" data-name="Path 50" class="cls-1" d="M19.6,34.2,33.223,20.4v1.816L21.416,34.2Z" transform="translate(16.002 16.657)"/>
      <path id="Path_51" data-name="Path 51" class="cls-1" d="M17.6,35.756,34.856,18.5v1.816l-15.44,15.44Z" transform="translate(14.369 15.106)"/>
      <path id="Path_52" data-name="Path 52" class="cls-1" d="M15.7,37.389,36.407,16.5v1.816L17.516,37.389Z" transform="translate(12.818 13.473)"/>
      <path id="Path_53" data-name="Path 53" class="cls-1" d="M10.354,32.654,0,22.3v1.816l8.537,8.537Z" transform="translate(0 18.208)"/>
      <path id="Path_54" data-name="Path 54" class="cls-1" d="M13.8,34.2,0,20.4v1.816L11.807,34.2Z" transform="translate(0 16.657)"/>
      <path id="Path_55" data-name="Path 55" class="cls-1" d="M17.256,35.756,0,18.5v1.816l15.44,15.44Z" transform="translate(0 15.106)"/>
      <path id="Path_56" data-name="Path 56" class="cls-1" d="M20.889,37.389,0,16.5v1.816L18.891,37.389Z" transform="translate(0 13.473)"/>
      <path id="Path_57" data-name="Path 57" class="cls-1" d="M21.4.9,31.754,11.254v-2L23.4.9Z" transform="translate(17.472 0.736)"/>
      <path id="Path_58" data-name="Path 58" class="cls-1" d="M19.6.9,33.223,14.523V12.707L21.416.9Z" transform="translate(16.002 0.736)"/>
      <path id="Path_59" data-name="Path 59" class="cls-1" d="M17.6.9,34.856,18.156V16.34L19.416.9Z" transform="translate(14.369 0.736)"/>
      <path id="Path_60" data-name="Path 60" class="cls-1" d="M15.7.9,36.407,21.607V19.791L17.516.9Z" transform="translate(12.818 0.736)"/>
      <path id="Path_61" data-name="Path 61" class="cls-1" d="M10.554.8.2,11.154V9.337L8.737.8Z" transform="translate(0.163 0.654)"/>
      <path id="Path_62" data-name="Path 62" class="cls-1" d="M14,.8.2,14.423V12.607L12.007.8Z" transform="translate(0.163 0.654)"/>
      <path id="Path_63" data-name="Path 63" class="cls-1" d="M17.456.8.2,18.056V16.24L15.64.8Z" transform="translate(0.163 0.654)"/>
      <path id="Path_64" data-name="Path 64" class="cls-1" d="M21.089.8.2,21.507V19.691L19.091.8Z" transform="translate(0.163 0.654)"/>
      <path id="Path_65" data-name="Path 65" class="cls-1" d="M25.072,12.2A13.463,13.463,0,0,1,23.8,21.464l3.815-4V14.743L25.072,12.2Z" transform="translate(19.431 9.962)"/>
      <path id="Path_66" data-name="Path 66" class="cls-1" d="M19.694,13.058A2.869,2.869,0,0,0,22.6,10.151l3.633-.908L23.69,6.7,16.606,8.335V19.052H13.7v6.721l4,4.9v4.359h-4v3.088h7.266V31.585l5.813-2.361V18.689l4.541-4.541-2.18-2.18L23.69,17.417v9.809l-3.451,1.453L16.606,24.32l3.451-2.18-.363-9.082Z" transform="translate(11.185 5.471)"/>
      <path id="Path_67" data-name="Path 67" class="cls-1" d="M4.143,12.1a13.463,13.463,0,0,0,1.272,9.264l-3.815-4V14.643L4.143,12.1Z" transform="translate(1.306 9.88)"/>
      <path id="Path_68" data-name="Path 68" class="cls-1" d="M15.725,13.058a2.869,2.869,0,0,1-2.906-2.906L9.186,9.243,11.729,6.7l7.084,1.635V19.052H21.72v6.721l-4,4.9v4.359h4v3.088H14.454V31.585L8.641,29.224V18.689L4.1,14.147l2.18-2.18,5.449,5.449v9.809l3.451,1.453,3.633-4.359-3.451-2.18.363-9.082Z" transform="translate(3.347 5.471)"/>
      <path id="Path_69" data-name="Path 69" class="cls-1" d="M13.8,38.94,37.959,14.6v2L15.616,38.94Z" transform="translate(11.267 11.921)"/>
      <path id="Path_70" data-name="Path 70" class="cls-1" d="M24.159,38.94,0,14.6v2L22.342,38.94Z" transform="translate(0 11.921)"/>
      <path id="Path_71" data-name="Path 71" class="cls-1" d="M13.9.9,38.059,25.059V23.242L15.716.9Z" transform="translate(11.349 0.736)"/>
      <path id="Path_72" data-name="Path 72" class="cls-1" d="M24.359.8.2,24.959V23.142L22.542.8Z" transform="translate(0.163 0.654)"/>
      <path id="Path_73" data-name="Path 73" class="cls-1" d="M78.4,31.906c.908-.545,1.09-.908,2.18-2.18v5.813c-1.453,1.272-5.994.908-9.99.908-9.99,0-18.891-7.992-18.891-17.8S61.146.3,71.5.3a65.9,65.9,0,0,1,9.082.545v4.9C77.857,3.933,76.4,3.388,72.044,3.388c-9.264,0-14.713,6.539-14.713,14.532C57.331,26.094,64.96,33,72.952,33c3.27,0,3.088,0,5.449-1.09Z" transform="translate(42.21 0.246)"/>
      <path id="Path_74" data-name="Path 74" class="cls-1" d="M124.609,3.453c8.174,0,13.078,7.811,13.078,15.8,0,8.174-5.086,14.35-12.9,14.35-8.174,0-13.26-7.992-13.26-15.621,0-8.356,5.086-14.532,13.078-14.532ZM124.973,0A18.432,18.432,0,0,0,105.9,18.166c0,10.9,8.537,18.346,18.528,18.346,11.444,0,19.073-7.811,19.073-18.709C143.5,8.357,135.69,0,124.973,0Z" transform="translate(86.462 0)"/>
      <path id="Path_75" data-name="Path 75" class="cls-1" d="M160.041,25.4V4.878c.363-.727,2-1.09,3.088-1.09h4.359c6.9,0,12.533,5.631,12.533,13.623,0,7.811-5.631,14.532-12.533,14.532h-4.359a4.583,4.583,0,0,1-3.088-1.09V25.4Zm7.447,10.172c10.172,0,18.528-8.537,18.528-18.164S177.66.7,167.488.7H152.775V.882a3.972,3.972,0,0,1,1.635,3.451V27.038L132.613.7H126.8V.882a3.972,3.972,0,0,1,1.635,3.451v27.61a3.972,3.972,0,0,1-1.635,3.451v.182h7.811v-.182a3.972,3.972,0,0,1-1.635-3.451V9.6l21.616,25.975Z" transform="translate(103.525 0.573)"/>
      <path id="Path_76" data-name="Path 76" class="cls-1" d="M133.747,31.943V4.333A3.972,3.972,0,0,1,135.382.882V.7h-10.9L113.948,29.945,103.412.7H92.7v.363A3.972,3.972,0,0,1,94.33,4.515V14.687H76.166V4.333A3.972,3.972,0,0,1,77.8.882V.7H68.9V.882a3.972,3.972,0,0,1,1.635,3.451v27.61A3.972,3.972,0,0,1,68.9,35.394v.182h8.9v-.182a3.972,3.972,0,0,1-1.635-3.451V18.32H94.33V31.943A3.972,3.972,0,0,1,92.7,35.394v.182h8.9v-.182a3.972,3.972,0,0,1-1.635-3.451V6.876L108.5,28.855l.727,1.635c1.272,3.088,3.815,5.813,6.9,5.813L127.571,4.515l.727.363V31.943a4.344,4.344,0,0,1-2.18,3.451v.182h9.446v-.182a3.9,3.9,0,0,1-1.816-3.451Z" transform="translate(56.253 0.573)"/>
      <path id="Path_77" data-name="Path 77" class="cls-1" d="M68.582,35.394a3.972,3.972,0,0,1-1.635-3.451V4.333A3.972,3.972,0,0,1,68.582.882V.7h-8.9V.882a3.972,3.972,0,0,1,1.635,3.451v27.61a3.593,3.593,0,0,1-.908,2.543,12.66,12.66,0,0,1-3.633-3.27s-4.178-4.178-7.447-7.811a43.769,43.769,0,0,1-4-5.449c5.086-.908,8.9-4.359,8.9-8.537C54.232,4.515,48.964.7,42.607.7H30.8V.882a3.972,3.972,0,0,1,1.635,3.451V30.671c0,1.635-.727,4.178-1.635,4.541v.182h8.719v-.182c-.908-.545-1.635-3.088-1.635-4.723V4.878c.363-.727,2-1.09,3.088-1.09h1.816a6.171,6.171,0,0,1,5.994,5.994,7.125,7.125,0,0,1-1.635,4.359c-1.816,1.635-3.27,2.361-6.9,3.27-1.09.182-.363,1.09-.363,1.272L41.154,20.5l8.537,10.535c1.635,2.361,4.9,4.541,7.629,4.541H68.764l-.182-.182Z" transform="translate(25.147 0.573)"/>
      <path id="Path_78" data-name="Path 78" class="cls-1" d="M41.354,32.082H38.811l-.545-1.816h-4l-.727,1.816H31L34.633,23h2.725l4,9.082Zm-5.268-6.9-1.272,3.633h2.725L36.086,25.18Z" transform="translate(25.31 18.78)"/>
      <path id="Path_79" data-name="Path 79" class="cls-1" d="M49.711,23h2v9.082h-2.18V26.451l-2.543,2.725h-.363l-2.361-2.725v5.631H41.9V23h2L46.8,26.27Z" transform="translate(34.209 18.78)"/>
      <path id="Path_80" data-name="Path 80" class="cls-1" d="M59.821,32.082H53.1V23h6.539v1.635H55.28v2h4.178v1.635H55.28v2.18h4.541Z" transform="translate(43.353 18.78)"/>
      <path id="Path_81" data-name="Path 81" class="cls-1" d="M66.859,23a2.7,2.7,0,0,1,2.906,2.543,2.137,2.137,0,0,1-1.635,2.18c.908.545,1.272,1.635,2.543,4.359H68.131c-.908-2-1.271-3.633-2.543-3.633h-.727v3.633H62.5V23Zm-1.816,3.633h1.272c.545,0,1.271-.182,1.271-1.09,0-.727-.363-1.09-1.271-1.09h-1.09v2.18Z" transform="translate(51.028 18.78)"/>
      <path id="Path_82" data-name="Path 82" class="cls-1" d="M74.48,32.082H72.3V23h2.18Z" transform="translate(59.029 18.78)"/>
      <path id="Path_83" data-name="Path 83" class="cls-1" d="M87.2,31.437a6.382,6.382,0,0,1-3.633.908c-3.633,0-5.268-2.361-5.268-4.723s2-4.723,5.449-4.723a6.221,6.221,0,0,1,3.27.727v2a6.7,6.7,0,0,0-3.088-.908c-2,0-3.27,1.09-3.27,2.725s1.271,2.725,3.27,2.725a5.86,5.86,0,0,0,3.27-1.09v2.361Z" transform="translate(63.928 18.698)"/>
      <path id="Path_84" data-name="Path 84" class="cls-1" d="M98.972,32.082H96.611l-.727-1.816h-4l-.727,1.816H88.8L92.433,23h2.725l3.815,9.082ZM93.7,25.18l-1.271,3.633h2.725L93.7,25.18Z" transform="translate(72.5 18.78)"/>
      <path id="Path_85" data-name="Path 85" class="cls-1" d="M108.382,32.082h-1.816L101.48,26.27v5.813H99.3V23h2l4.9,5.631V23h2.18Z" transform="translate(81.073 18.78)"/>
      <path id="Path_86" data-name="Path 86" class="cls-1" d="M124.182,32.082H122V28.449h-4.541v3.633H115.1V23h2.361v3.633H122V23h2.18Z" transform="translate(93.973 18.78)"/>
      <path id="Path_87" data-name="Path 87" class="cls-1" d="M130.368,32.346a4.948,4.948,0,0,1-5.268-4.723,5.3,5.3,0,0,1,10.535,0,4.948,4.948,0,0,1-5.268,4.723Zm0-7.447a2.73,2.73,0,1,0,2.906,2.725,2.722,2.722,0,0,0-2.906-2.725Z" transform="translate(102.137 18.698)"/>
      <path id="Path_88" data-name="Path 88" class="cls-1" d="M143.611,23h2v9.082h-2.18V26.451l-2.543,2.725h-.363l-2.361-2.725v5.631H135.8V23h2l2.906,3.27Z" transform="translate(110.873 18.78)"/>
      <path id="Path_89" data-name="Path 89" class="cls-1" d="M153.321,32.082H146.6V23h6.539v1.635H148.78v2h4.178v1.635H148.78v2.18h4.541Z" transform="translate(119.691 18.78)"/>
      <path id="Path_90" data-name="Path 90" class="cls-1" d="M162.039,25.525a8.469,8.469,0,0,0-2.906-.908c-.908,0-1.272.363-1.272.727,0,1.453,4.723.908,4.723,4.178,0,1.816-1.453,2.725-3.451,2.725a5.394,5.394,0,0,1-3.27-.908v-2a4.9,4.9,0,0,0,3.088,1.09c.908,0,1.272-.363,1.272-.908,0-1.453-4.723-.908-4.723-4.178,0-1.635,1.453-2.543,3.451-2.543a6.418,6.418,0,0,1,3.088.727v2Z" transform="translate(126.957 18.616)"/>
      <path id="Path_91" data-name="Path 91" class="cls-1" d="M156.9,19.78a2.1,2.1,0,0,1,2.18-2.18,2.209,2.209,0,0,1,2.18,2.18,2.18,2.18,0,1,1-4.359,0Zm2.18,1.816a1.677,1.677,0,0,0,1.635-1.816,1.792,1.792,0,0,0-1.635-1.816,1.677,1.677,0,0,0-1.635,1.816A1.5,1.5,0,0,0,159.08,21.6Zm-.545-.545h-.363V18.69h.908c.545,0,.908.182.908.727,0,.363-.182.545-.545.727l.727,1.09h-.363l-.727-1.09h-.363v.908Zm.545-1.272c.363,0,.545,0,.545-.363s-.363-.363-.545-.363h-.545v.727h.545Z" transform="translate(128.1 14.371)"/>
    </g>
  </g>
</svg>
