<svg xmlns="http://www.w3.org/2000/svg" viewBox="0 0 27.23 27.19"><defs><style>.cls-1{fill:#b22c16;}</style></defs><title>Asset 2</title><g id="Layer_2" data-name="Layer 2"><g id="Layer_1-2" data-name="Layer 1"><polygon class="cls-1" points="21.42 27.18 27.1 21.48 27.11 22.51 22.45 27.19 21.42 27.18 21.42 27.18"/><polygon class="cls-1" points="19.55 27.19 27.11 19.64 27.11 20.66 20.58 27.19 19.55 27.19 19.55 27.19"/><polygon class="cls-1" points="17.61 27.19 27.1 17.69 27.11 18.68 18.63 27.19 17.61 27.19 17.61 27.19"/><polygon class="cls-1" points="15.65 27.19 27.1 15.75 27.1 16.77 16.68 27.18 15.65 27.19 15.65 27.19"/><polygon class="cls-1" points="5.69 27.18 0.01 21.48 0 22.51 4.66 27.19 5.69 27.18 5.69 27.18"/><polygon class="cls-1" points="7.55 27.19 0 19.64 0 20.66 6.53 27.19 7.55 27.19 7.55 27.19"/><polygon class="cls-1" points="9.5 27.19 0.01 17.69 0 18.68 8.47 27.19 9.5 27.19 9.5 27.19"/><polygon class="cls-1" points="11.46 27.19 0.01 15.75 0.01 16.77 10.42 27.18 11.46 27.19 11.46 27.19"/><polygon class="cls-1" points="21.42 0.1 27.1 5.8 27.11 4.77 22.45 0.1 21.42 0.1 21.42 0.1"/><polygon class="cls-1" points="19.55 0.1 27.11 7.65 27.11 6.62 20.58 0.1 19.55 0.1 19.55 0.1"/><polygon class="cls-1" points="17.61 0.1 27.1 9.6 27.11 8.6 18.63 0.1 17.61 0.1 17.61 0.1"/><polygon class="cls-1" points="15.65 0.1 27.1 11.54 27.1 10.51 16.68 0.1 15.65 0.1 15.65 0.1"/><polygon class="cls-1" points="5.89 0.01 0.21 5.71 0.2 4.68 4.86 0 5.89 0.01 5.89 0.01"/><polygon class="cls-1" points="7.76 0 0.2 7.55 0.2 6.53 6.73 0 7.76 0 7.76 0"/><polygon class="cls-1" points="9.7 0 0.21 9.5 0.2 8.51 8.68 0 9.7 0 9.7 0"/><polygon class="cls-1" points="11.66 0 0.21 11.44 0.21 10.42 10.63 0.01 11.66 0 11.66 0"/><path class="cls-1" d="M24.47,11.43a7.61,7.61,0,0,1-.7,5.14l2.15-2.18V12.88l-1.45-1.45Z"/><path class="cls-1" d="M17,9.46a1.62,1.62,0,0,0,1.6-1.62l2-.47L19.2,6l-3.89.88v5.88H13.69v3.75l2.21,2.68v2.39H13.66v1.72h4V19.69l3.24-1.3V12.62l2.5-2.5L22.14,8.91l-3,3v5.29L17.22,18l-2-2.42L17,14.44v-5Z"/><path class="cls-1" d="M3,11.33a7.7,7.7,0,0,0,.69,5.15L1.52,14.29v-1.5L3,11.33Z"/><path class="cls-1" d="M10.5,9.46A1.61,1.61,0,0,1,8.9,7.84l-2-.47L8.33,6l3.89.88v5.88h1.62v3.75l-2.2,2.68v2.39h2.24v1.72h-4V19.69l-3.23-1.3V12.62l-2.5-2.5L5.39,8.91l3,3v5.29l1.91.81,2-2.42L10.5,14.44v-5Z"/><polygon class="cls-1" points="13.77 27.19 27.11 13.85 27.1 14.9 14.81 27.18 13.77 27.19 13.77 27.19"/><polygon class="cls-1" points="13.34 27.19 0 13.85 0.01 14.9 12.29 27.18 13.34 27.19 13.34 27.19"/><polygon class="cls-1" points="13.89 0.1 27.23 13.44 27.22 12.38 14.94 0.1 13.89 0.1 13.89 0.1"/><polygon class="cls-1" points="13.55 0 0.2 13.34 0.21 12.29 12.5 0.01 13.55 0 13.55 0"/></g></g></svg>