<svg xmlns="http://www.w3.org/2000/svg" viewBox="0 0 242.72 64.61"><defs><style>.cls-1{fill:#644CA9;}</style></defs><title>logo-2</title><g id="Layer_2" data-name="Layer 2"><g id="snail_expanded" data-name="snail expanded"><path class="cls-1" d="M47,45.87h.11a.64.64,0,0,0,.61-.47.5.5,0,0,0-.32-.61l-.11,0h0l-.13,0,0,0A12.31,12.31,0,0,1,52.58,35a14.16,14.16,0,0,1,8-2.37,15.67,15.67,0,0,1,3.2.34c3.06.64,5.32,2.27,6.05,4.37a6.74,6.74,0,0,1,0,4,10.75,10.75,0,0,1-10.49,8,10.8,10.8,0,0,1-3.07-.44,4.77,4.77,0,0,1-3.13-2.32A4,4,0,0,1,53,44.08a6.29,6.29,0,0,1,6-4.6,5.17,5.17,0,0,1,.68,0c1.44.19,2.92,1.19,2.9,2.53s-1.24,2.28-3.64,3.06a.51.51,0,0,0-.28.24.48.48,0,0,0,0,.37.47.47,0,0,0,.46.33h.15c2.83-.92,4.28-2.26,4.31-4,0-1.89-1.88-3.26-3.74-3.51a5.76,5.76,0,0,0-.82-.06A7.27,7.27,0,0,0,52,43.86,4.93,4.93,0,0,0,52.22,47,5.71,5.71,0,0,0,56,49.81a11.31,11.31,0,0,0,2.48.45l.86,0a11.91,11.91,0,0,0,5.8-1.48,12,12,0,0,0,5.64-7.25,7.73,7.73,0,0,0,0-4.53c-.84-2.42-3.37-4.29-6.76-5a16.91,16.91,0,0,0-3.4-.35A15.18,15.18,0,0,0,52,34.2a13.32,13.32,0,0,0-5.91,10.52A1.2,1.2,0,0,0,47,45.87Z"/><path class="cls-1" d="M136,50.81a9.07,9.07,0,0,0-4.23,1.4l-.44.25a7.41,7.41,0,0,1-3.21,1.23h-.17A5.61,5.61,0,0,1,125,52.65c-.32-.19-.65-.39-1-.56a13.5,13.5,0,0,0-6.11-1.33h-.18a25.06,25.06,0,0,0-6.19.94c-.66.18-1.33.4-2,.61s-1.38.44-2.08.63a22.36,22.36,0,0,0-5.54-20.41c0-.26,0-.52,0-.79a29.06,29.06,0,0,0-9.4-20.59C87,6.12,79.26,2.5,70.19.7A33.46,33.46,0,0,0,63.7,0a23.51,23.51,0,0,0-7.42,1.17A55.38,55.38,0,0,0,44,7.08a62.21,62.21,0,0,0-20,20.4,56.36,56.36,0,0,1,2.35-14.66.48.48,0,0,0,.34-.18c1.42-1.73,2.36-4.42.74-6.75a4.54,4.54,0,0,0-3.64-2,3.76,3.76,0,0,0-1.41.27,3.83,3.83,0,0,0-2.3,4.7,18.76,18.76,0,0,0,.74,2.05,10,10,0,0,1,.95,3.67,26.41,26.41,0,0,1-.63,5.53l0,.12a.44.44,0,0,0,.09.36.45.45,0,0,0,.36.17.5.5,0,0,0,.51-.42c.53-2.84,1.12-6.07.12-9-.09-.28-.2-.57-.31-.87-.57-1.55-1.21-3.3-.53-4.35a2.74,2.74,0,0,1,2.24-1l.38,0a2.86,2.86,0,0,1,2.8,1.65,5.34,5.34,0,0,1-.67,5.06l-.12,0a.45.45,0,0,0-.44.32c-4.66,14.71-2.05,30.14.39,43.85l-.21.31a.46.46,0,0,0,0,.48.52.52,0,0,0,.44.27h0a.46.46,0,0,0,.35.16.52.52,0,0,0,.39-.18.5.5,0,0,0,.1-.39c0-.14-.05-.28-.08-.42a13.2,13.2,0,0,1,8.65-5.5,11.42,11.42,0,0,1,2.08-.19c3.44,0,6.26,1.6,9.08,3.38a10.47,10.47,0,0,0,5.78,1.82,15,15,0,0,0,3.8-.56c2.47-.64,4.94-1.39,7.33-2.12,1.89-.57,3.84-1.16,5.77-1.7a22.29,22.29,0,0,1,5.72-.94,10.61,10.61,0,0,1,1.12,0,15.22,15.22,0,0,1,5.2,1.78q.75.38,1.53.72A12.1,12.1,0,0,0,88.11,54a25.64,25.64,0,0,0,5.07-.64l.23-.05a21.83,21.83,0,0,1,4.24-.57,8.46,8.46,0,0,1,2.07.24,17.88,17.88,0,0,1,1.79.61,9.18,9.18,0,0,0,3.33.78,3.85,3.85,0,0,0,.48,0,27.75,27.75,0,0,0,5.77-1.28,24,24,0,0,1,6.62-1.33h.17A14.37,14.37,0,0,1,125.31,54a5,5,0,0,0,2.49.71,5.62,5.62,0,0,0,1.85-.35,12.57,12.57,0,0,0,2.25-1.15,8.12,8.12,0,0,1,3.35-1.39h.34a2.83,2.83,0,0,1,2.26.94,2.58,2.58,0,0,1,.45,2.18,4.87,4.87,0,0,1-2.43,2.92,2.7,2.7,0,0,0-2.47-2.32l-.52,0A8.29,8.29,0,0,0,129,56.91a9.23,9.23,0,0,1-3.35,1.39,10.41,10.41,0,0,1-1.26.07,25.06,25.06,0,0,1-5.74-.91c-1.12-.28-2.28-.55-3.43-.73a13.19,13.19,0,0,0-2.09-.16,26.35,26.35,0,0,0-6.08.94l-1.16.27a8.9,8.9,0,0,1-2,.22,20.57,20.57,0,0,1-3.76-.47,21.44,21.44,0,0,0-3.9-.48l-.74,0a29.37,29.37,0,0,0-6.26,1.37c-.79.24-1.59.48-2.38.69a18.94,18.94,0,0,1-4.66.73l-.75,0a14.4,14.4,0,0,1-3.67-.91c-.65-.23-1.32-.46-2-.64a9.49,9.49,0,0,0-2.39-.3,18.43,18.43,0,0,0-5.53,1.1l-.53.16a21.39,21.39,0,0,1-3.72,1,8.43,8.43,0,0,1-1,.06,13.46,13.46,0,0,1-4.69-1.12L57.51,59a9.87,9.87,0,0,0-3.45-.64,11.62,11.62,0,0,0-3.84.71c-.85.3-1.7.66-2.51,1s-1.59.67-2.4,1a6.62,6.62,0,0,1-2.35.5,10.27,10.27,0,0,1-1.21-.1,3.6,3.6,0,0,1-2.17-.88c-.24-.17-.51-.37-.89-.61A5.06,5.06,0,0,0,36,59.22a9.49,9.49,0,0,0-4,1.07c-.76.36-1.48.79-2.18,1.21s-1.35.8-2.06,1.15a8.5,8.5,0,0,1-3.17.94H24.3A5.47,5.47,0,0,1,22,63l-1-.39a4,4,0,0,0-1.35-.24,4.24,4.24,0,0,0-1.17.17,5.16,5.16,0,0,0-.94.41,3.3,3.3,0,0,1-1.18.44,3.66,3.66,0,0,1-2.5-2,8.84,8.84,0,0,1,0-2.76A13.12,13.12,0,0,0,14,56.57a27.37,27.37,0,0,0-.56-3.67c-.12-.58-.24-1.17-.34-1.74l-2-12.08c-.22-1.31-.43-2.62-.64-3.92C10,32.15,9.5,29,8.9,26c-.06-.31-.12-.65-.18-1-.43-2.41-1.08-6.07-3-7.42a3.23,3.23,0,0,0-1.2-.47A5.5,5.5,0,0,1,4,16.93a4.34,4.34,0,0,1-3-3.25,4.25,4.25,0,0,1,.73-3.22A2.66,2.66,0,0,1,3.64,9.3l.28,0a3.63,3.63,0,0,1,2.59,1.13,3.7,3.7,0,0,1,.7,2.93v.16c-.08,2.67,1.1,5.25,2.24,7.75.3.66.59,1.31.86,2a.44.44,0,0,0,0,.32.5.5,0,0,0,.46.33.47.47,0,0,0,.31-.12h0l0,0a9.72,9.72,0,0,1,6.45-2.5,9.87,9.87,0,0,1,4.39,1,.49.49,0,0,0,.2.05.45.45,0,0,0,.43-.37.5.5,0,0,0-.27-.58,10.57,10.57,0,0,0-11.25,1.15L9,17.37l-.19-.44c-.12-.29-.24-.58-.35-.87a4.26,4.26,0,0,1-.2-2.3c0-.25.06-.51.08-.9a4.28,4.28,0,0,0,0-1.13A4.28,4.28,0,0,0,4.18,8.26h0a4,4,0,0,0-4.1,3.4,5.61,5.61,0,0,0,3.25,6.06l.66.22a3.15,3.15,0,0,1,1.33.71,6.66,6.66,0,0,1,1.54,3.08L7,22a46.84,46.84,0,0,1,1.31,5.85c.51,2.91,1,5.82,1.47,8.74l.68,4.07,2.18,13A34.47,34.47,0,0,1,13,60.2c0,.27,0,.56-.07.85A4.05,4.05,0,0,0,13,63.27a2.22,2.22,0,0,0,2.14,1.34,5.12,5.12,0,0,0,2-.48,7,7,0,0,1,2.66-.6,4.24,4.24,0,0,1,1.25.18,4.54,4.54,0,0,1,.79.35,4.57,4.57,0,0,0,1.12.43,5.22,5.22,0,0,0,1.13.12A8,8,0,0,0,27,64a23.45,23.45,0,0,0,3.19-1.63c1.84-1.07,3.75-2.16,5.64-2.16A4.82,4.82,0,0,1,39,61.41a5.31,5.31,0,0,0,3.42,1.26,11.31,11.31,0,0,0,4-1c.6-.23,1.19-.48,1.78-.74a24.56,24.56,0,0,1,3.77-1.37,7.58,7.58,0,0,1,1.89-.23,12.36,12.36,0,0,1,4.49,1,11.31,11.31,0,0,0,4.09.78,15,15,0,0,0,4.57-.8L68.05,60a24,24,0,0,1,3.54-1A8.3,8.3,0,0,1,72.91,59,15.9,15.9,0,0,1,77.83,60l.32.11a13.15,13.15,0,0,0,4.09.64A18.67,18.67,0,0,0,87,60.08l2-.54a27.82,27.82,0,0,1,7.54-1.4,13.57,13.57,0,0,1,3.25.39,14.57,14.57,0,0,0,3.59.56,8.85,8.85,0,0,0,1-.06,21.32,21.32,0,0,0,3.32-.74,24.93,24.93,0,0,1,2.87-.67,12.15,12.15,0,0,1,1.84-.14,27.91,27.91,0,0,1,6,.91,36,36,0,0,0,4.65.86c.49,0,1,.07,1.41.07a9.68,9.68,0,0,0,3.43-.57,12.22,12.22,0,0,0,1.77-.9,9.81,9.81,0,0,1,3.92-1.45,1.2,1.2,0,0,1,1,.35,1.94,1.94,0,0,1,.28,1.56.47.47,0,0,0,.11.36h0s0,0,0,0a.48.48,0,0,0,.45.39.49.49,0,0,0,.23-.06,6.68,6.68,0,0,0,3.54-3.7,3.63,3.63,0,0,0-.46-3A3.1,3.1,0,0,0,136,50.81ZM106.6,53.14a10,10,0,0,1-1.94.23,6.34,6.34,0,0,1-2.15-.35l-.88-.31a11.77,11.77,0,0,0-4.25-.94h-.47a18.06,18.06,0,0,0-2.53.33,28.3,28.3,0,0,0,7.53-18.17,21.35,21.35,0,0,1,4.62,18.82A.5.5,0,0,0,106.6,53.14ZM39.66,49.42a.45.45,0,0,0-.43-.35.42.42,0,0,0-.24.07.27.27,0,0,1-.13,0,.26.26,0,0,1-.19-.11c-.89-1-1.07-6.66-1-7.24a18.67,18.67,0,0,1,1.56-5.45,29.11,29.11,0,0,1,7.43-9.53C54,20.2,60.3,17.24,67.15,17.24h.45c6.92.13,15.77,3.47,18,12.43,1.74,7.08-1.54,14.76-8.35,19.55a.44.44,0,0,0-.17.29l-.7-.1c-.45,0-.92-.06-1.39-.06-3.34,0-6.69,1.11-9.92,2.18-1.09.36-2.16.71-3.21,1L60.21,53c-1.87.56-3.81,1.14-5.73,1.52a9.33,9.33,0,0,1-1.85.2c-2.47,0-4.39-1.13-6.66-2.6a15.65,15.65,0,0,0-6.35-2.38A.45.45,0,0,0,39.66,49.42Zm38.46.35C84,45.53,87.26,39.26,87,32.92a16.51,16.51,0,0,0-9.77-14.51,24.05,24.05,0,0,0-10-2.14,25.38,25.38,0,0,0-10.9,2.45A41.79,41.79,0,0,0,39.74,33.38a19.53,19.53,0,0,0-3.13,11.27c0,.45.23,3.68,1.23,5h-.31A13.51,13.51,0,0,0,26.7,54.81c-1.44-8.13-2.88-16.84-2.78-25.6a.41.41,0,0,0,.24-.19A61,61,0,0,1,40,11C46,6.38,55.06.86,63.57.86l.74,0c20.56.76,34.05,14.11,36.3,26.27a28,28,0,0,1,.46,5.32l-.07.08a.41.41,0,0,0,.06.41A28.36,28.36,0,0,1,93.2,52a.5.5,0,0,0-.11.41l-.26.05c-.72.16-1.43.31-2.14.43a14.55,14.55,0,0,1-2.32.2,13.12,13.12,0,0,1-5.74-1.4l-.62-.3A23.87,23.87,0,0,0,78.12,49.77Z"/><path class="cls-1" d="M67.05,7.59c-5.61,0-12.38,2.29-18.58,6.28a35.26,35.26,0,0,0-9.21,8.44A29.32,29.32,0,0,0,35.9,28l-.23.49c-.55,1.13-1.24,2.55-.19,3.56a.44.44,0,0,0,.34.14.53.53,0,0,0,.48-.31.45.45,0,0,0-.11-.49c-1-.92,1.16-4.36,1.86-5.49l.21-.34A30.36,30.36,0,0,1,41.4,21.2,35.52,35.52,0,0,1,50.18,14c3.39-2,10.1-5.4,16.92-5.4a16.17,16.17,0,0,1,7.7,1.8.46.46,0,0,0,.23.06.52.52,0,0,0,.5-.4.42.42,0,0,0-.22-.49A17.53,17.53,0,0,0,67.05,7.59Z"/><path class="cls-1" d="M87.18,26.28a.42.42,0,0,0-.08.46.51.51,0,0,0,.47.29.5.5,0,0,0,.38-.17,10.33,10.33,0,0,1,.87-.88A11.64,11.64,0,0,1,90,29.44a10.18,10.18,0,0,0-1.53.65.48.48,0,0,0-.24.54.5.5,0,0,0,.46.38A.46.46,0,0,0,89,31a11.14,11.14,0,0,1,1.18-.52,5.43,5.43,0,0,1-.35,2.07.45.45,0,0,0,0,.42.54.54,0,0,0,.42.22.47.47,0,0,0,.45-.31,6.27,6.27,0,0,0,.41-2.7,8.38,8.38,0,0,1,2.12-.27h.22a21.4,21.4,0,0,1,.2,2.78.49.49,0,0,0,.51.49.44.44,0,0,0,.46-.45A22.51,22.51,0,0,0,94.42,30l.63.09a.43.43,0,0,0,.43-.42.5.5,0,0,0-.41-.55c-.26-.05-.52-.08-.79-.11a22.75,22.75,0,0,0-1.46-5.08c.32-.08.64-.14,1-.19a.44.44,0,0,0,.39-.49.5.5,0,0,0-.54-.46h0a11.59,11.59,0,0,0-1.2.25,22,22,0,0,0-2-3.35,14.78,14.78,0,0,1,3-1.22.49.49,0,0,0,.36-.55.44.44,0,0,0-.44-.41h-.13a14.62,14.62,0,0,0-3.37,1.37c-.47-.61-1-1.19-1.48-1.75a.49.49,0,0,0-.35-.15.53.53,0,0,0-.47.31.45.45,0,0,0,.1.49,20.54,20.54,0,0,1,1.36,1.6,15,15,0,0,0-2.36,1.85c-.44-.52-.83-.94-1.12-1.24a.49.49,0,0,0-.34-.15.53.53,0,0,0-.47.31.43.43,0,0,0,.1.49c.23.24.65.7,1.15,1.3-.34.38-.68.77-1,1.19a.45.45,0,0,0-.05.47.53.53,0,0,0,.46.28.47.47,0,0,0,.38-.19c.26-.35.53-.68.81-1a22.1,22.1,0,0,1,1.7,2.47A10.49,10.49,0,0,0,87.18,26.28Zm6,2.61a9.77,9.77,0,0,0-2.22.27,12.44,12.44,0,0,0-1.39-3.8,9.11,9.11,0,0,1,2.29-1.2A21.73,21.73,0,0,1,93.3,28.9Zm-3.58-8.76a21.71,21.71,0,0,1,1.86,3.15,10.3,10.3,0,0,0-2.37,1.24A23,23,0,0,0,87.33,22,14,14,0,0,1,89.63,20.13Z"/><path class="cls-1" d="M74,13.16l-.29,0a.77.77,0,0,0,0,1.53l.29,0A.77.77,0,0,0,74,13.16Z"/><path class="cls-1" d="M66.38,12.62a.69.69,0,0,0-.55-.27.82.82,0,0,0-.73.48.72.72,0,0,0,.12.79l.21.24a.72.72,0,0,0,.55.26.81.81,0,0,0,.73-.48.72.72,0,0,0-.12-.79Z"/><path class="cls-1" d="M57.66,14.45a.72.72,0,0,0-.75.69l0,.22a.7.7,0,0,0,.19.56.78.78,0,0,0,.58.25.74.74,0,0,0,.76-.7l0-.22a.74.74,0,0,0-.19-.56A.81.81,0,0,0,57.66,14.45Z"/><path class="cls-1" d="M63.86,28.83a.83.83,0,0,0,.56-.26l.16-.14a.71.71,0,0,0,.22-.81.81.81,0,0,0-.74-.54.75.75,0,0,0-.48.19l-.24.21a.71.71,0,0,0-.21.81A.8.8,0,0,0,63.86,28.83Z"/><path class="cls-1" d="M72.42,32.1h.07a.74.74,0,0,0,.74-.74.75.75,0,0,0-.76-.79.77.77,0,0,0,0,1.53Z"/><path class="cls-1" d="M76.93,40.41H77a.73.73,0,0,0,.74-.75.75.75,0,0,0-.75-.79.77.77,0,0,0,0,1.54Z"/><path class="cls-1" d="M72,47.81H72a.77.77,0,0,0,0-1.53A.77.77,0,0,0,72,47.81Z"/><path class="cls-1" d="M47.29,36.29h.06a.74.74,0,0,0,.74-.75.75.75,0,0,0-.75-.79.77.77,0,0,0-.05,1.54Z"/><path class="cls-1" d="M23.74,7.6l-.11-.17a1.66,1.66,0,0,0-.7,1.48,1.63,1.63,0,0,0,.81,1.42,1.41,1.41,0,0,0,.72.19,1.8,1.8,0,0,0,.91-.26,1.67,1.67,0,0,0,.89-1.37,1.66,1.66,0,0,0-.83-1.42,1.68,1.68,0,0,0-1.63-.14l.09.18-.15.09Z"/><path class="cls-1" d="M3.8,14.86a1.45,1.45,0,0,0,.51.1,1.76,1.76,0,0,0,1.09-.42A1.65,1.65,0,0,0,6,13a1.71,1.71,0,0,0-1.12-1.19A1.79,1.79,0,0,0,3.2,12l.12.16h0l.05.06a1.54,1.54,0,0,0-.47,1.22A1.56,1.56,0,0,0,3.8,14.86Zm0-2.68Z"/><path class="cls-1" d="M21,32.67a.47.47,0,0,0-.39.2A5.14,5.14,0,0,1,16.47,35a5.25,5.25,0,0,1-1.95-.38.39.39,0,0,0-.18,0,.47.47,0,0,0-.45.39.48.48,0,0,0,.29.55,6,6,0,0,0,2.29.45,6.13,6.13,0,0,0,5-2.57.46.46,0,0,0,0-.48A.52.52,0,0,0,21,32.67Z"/><path class="cls-1" d="M221.41,58.79a2.34,2.34,0,0,0-.91-.17,7.29,7.29,0,0,0-3.23,1.12.43.43,0,0,0-.21.3.47.47,0,0,0,.47.59.5.5,0,0,0,.26-.08,6.43,6.43,0,0,1,2.71-1,1.31,1.31,0,0,1,.52.09,1,1,0,0,1,.56.87,1.71,1.71,0,0,1-.35,1.52c-.71.81-2.33,1.1-3.61,1.1h-.33a11.18,11.18,0,0,1-7.43-2.81,12.43,12.43,0,0,1-1.06-1.2c-1.81-2.23-4.06-5-12.23-5a56.18,56.18,0,0,0-8.81.81.47.47,0,0,0-.4.55.48.48,0,0,0,.53.4h0a56.72,56.72,0,0,1,8.65-.79c7.72,0,9.81,2.57,11.5,4.65A14.08,14.08,0,0,0,209.18,61a11.41,11.41,0,0,0,7.43,3.05l.65,0h.32c.94,0,3.24-.14,4.37-1.43a2.65,2.65,0,0,0,.59-2.32A2,2,0,0,0,221.41,58.79Z"/><path class="cls-1" d="M242.52,57A2.24,2.24,0,0,0,241,55.61a2.44,2.44,0,0,0-.55-.06,6.57,6.57,0,0,0-3.49,1.55.48.48,0,0,0,.31.85.51.51,0,0,0,.31-.11,6,6,0,0,1,2.87-1.32,1.87,1.87,0,0,1,.34,0,1.33,1.33,0,0,1,.89.85.9.9,0,0,1,0,.9c-.58.91-3.11,1.31-4.53,1.34a40.06,40.06,0,0,1-9.76-2.91A15.05,15.05,0,0,0,221,55.31a11.43,11.43,0,0,0-2.89.33.51.51,0,0,0-.29.23.49.49,0,0,0,.42.72h.14a10.81,10.81,0,0,1,2.61-.28,14.23,14.23,0,0,1,5.94,1.32,40.2,40.2,0,0,0,10.08,3h0c.44,0,4.36-.15,5.41-1.79A1.82,1.82,0,0,0,242.52,57Z"/><path class="cls-1" d="M177.11,54.1a22.94,22.94,0,0,0-3-.17,32.69,32.69,0,0,0-6.84.72c-4.93,1.06-13.29,1.11-14.92,1.11h-.15a.48.48,0,0,0-.48.48.52.52,0,0,0,.14.35.48.48,0,0,0,.34.14h.18c1.64,0,10.07-.06,15.09-1.13a31.62,31.62,0,0,1,6.65-.7c.68,0,1.33,0,1.94.06l.82.07h0s4.39,1.46,5.11,3.42a1.44,1.44,0,0,1-.17,1.35,3,3,0,0,1-2.74,1.33,10,10,0,0,1-3.79-1,.5.5,0,0,0-.21,0,.49.49,0,0,0-.43.27.48.48,0,0,0,.21.65,11.23,11.23,0,0,0,3.74,1l.49,0a3.88,3.88,0,0,0,3.56-1.81,2.4,2.4,0,0,0,.25-2.18C182,55.66,177.18,54.12,177.11,54.1Z"/></g></g></svg>