<svg xmlns="http://www.w3.org/2000/svg" viewBox="0 0 643.17 80.69"><defs><style>.cls-1{fill:#fff;}</style></defs><title>logo</title><g id="Layer_2" data-name="Layer 2"><g id="landscape_expanded" data-name="landscape expanded"><path class="cls-1" d="M40.29,72.21a6,6,0,0,0-2.2-.41H8.93q.25-2.49,6.14-47.49Q16.95,9.7,17.41,5.06a3.81,3.81,0,0,0-2.15-3.63A4,4,0,0,0,13.36,1a3.74,3.74,0,0,0-3.68,2.5A12.2,12.2,0,0,0,9.47,5Q0,73.12,0,75.23v0c.31,2.14,1,3.57,1.94,4.29a4,4,0,0,0,2.19.66H38.45q3.38-.51,4.24-2.86a4.66,4.66,0,0,0,.2-1.33A3.86,3.86,0,0,0,40.29,72.21Z"/><path class="cls-1" d="M191.25,37.28a20.21,20.21,0,0,0-2-.2,3.88,3.88,0,0,0-3.76,2.71l-4.07,16.28q-2.4,9.12-4.54,12.61-2.55,3.94-5.87,4-2.76,0-4-3.64a10.71,10.71,0,0,1-.66-3.74q0-3.53,1.58-18.09.51-4.91.51-6.39,0-3.73-2.19-4.35a5.4,5.4,0,0,0-1.28-.15,3.52,3.52,0,0,0-2.71,1.28,12.34,12.34,0,0,0-5.77-1.28q-7.6,0-13.07,8.33a35.86,35.86,0,0,0-5.52,15.52,34.24,34.24,0,0,0-.2,3.68,36.82,36.82,0,0,0,.2,3.76,2.57,2.57,0,0,0-1.43-.49c-1,0-2.57.69-4.65,2.09q-3.57,2.14-5.15,2.25-2.82,0-4.24-4.19a27.15,27.15,0,0,1-1-8.17A55.06,55.06,0,0,1,124,43.51a8.28,8.28,0,0,0,.36-1.52c0-.6-.5-1.19-1.48-1.76a5.52,5.52,0,0,0-2.89-.76c-.94,0-2.35.6-4.22,1.79-1.37,1-2.41,1.69-3.13,2.1a39,39,0,0,0,.28-4.19,7.07,7.07,0,0,0-3.79-6.33,9.68,9.68,0,0,0-4.9-1.33q-5.06,0-7.36,3.88a7.88,7.88,0,0,0-1.16,4.14,10.21,10.21,0,0,0,4.65,9,11.74,11.74,0,0,0,3.77,1.68q-5,19.53-12.19,22a5.53,5.53,0,0,1-1.94.35c-1.6,0-2.87-1-3.83-3.05a10.5,10.5,0,0,1-.91-4.37q0-3.45,1.52-18.06.51-4.86.51-6.33,0-3.59-1.93-4.29a5.44,5.44,0,0,0-1.53-.21,3.18,3.18,0,0,0-2.7,1.57,10.49,10.49,0,0,0-5.78-1.57q-7.62,0-13,8.33a36,36,0,0,0-5.52,15.52c-.13,1.3-.2,2.52-.2,3.68q0,10.83,5.16,14.6a9.6,9.6,0,0,0,5.68,1.69q5.27,0,10.43-4.93a20.29,20.29,0,0,0,1.53-1.6q3,6.48,9.51,6.53,15.56,0,21.91-26.56c.24-1,.47-2.06.68-3.11a13.93,13.93,0,0,0,3.44-1.23,45.44,45.44,0,0,0-.94,8c-.07,1.22-.1,2.38-.1,3.47q0,8.43,2,11.85,2.72,5.82,8.44,6.54c.44,0,.87,0,1.27,0a16.19,16.19,0,0,0,9.71-3.32A11.72,11.72,0,0,0,138.67,72a11.63,11.63,0,0,0,4.22,6.41,9.32,9.32,0,0,0,5.61,1.69q5.26,0,10.42-4.84a20.4,20.4,0,0,0,1.54-1.56q3,6.34,9.39,6.4,10,0,15.27-11.14,2.4-5.17,5-16.66,1.17-5.13,1.68-7.07c1.64,0,3.44,1.07,5.42,3.12a17.18,17.18,0,0,1,5.15,11.21q.06.72.06,1.44A22.79,22.79,0,0,1,198.71,73l-.62,1.12a4,4,0,0,0-.25,1.36,3.78,3.78,0,0,0,1.31,2.77,2.72,2.72,0,0,0,1.92.86q3.72,0,6.5-6.18a29.59,29.59,0,0,0,2.53-11.14,26.19,26.19,0,0,0-5-15.73A20.7,20.7,0,0,0,191.25,37.28ZM78.82,48.71a112.57,112.57,0,0,1-3,15.35,14.4,14.4,0,0,1-1.12,3.21,17.78,17.78,0,0,1-3.82,3.52,6.47,6.47,0,0,1-3.47,1.42c-1.77,0-2.8-1.64-3.11-4.94a15.36,15.36,0,0,1-.1-1.84,32.47,32.47,0,0,1,3-13.3q3.26-7.44,8-8.87A7.61,7.61,0,0,1,77.09,43a5.58,5.58,0,0,1,2.34.61C79.06,46.81,78.85,48.51,78.82,48.71ZM105.45,44q-3.53-1.14-3.57-3.81a1.8,1.8,0,0,1,1.48-1.86,2.35,2.35,0,0,1,.66-.1,1.7,1.7,0,0,1,1.84,1.34,2.05,2.05,0,0,1,.1.62A30.05,30.05,0,0,1,105.45,44Zm51.23,21.22a11.37,11.37,0,0,1-.87,2.21A17.86,17.86,0,0,1,152,70.93a6.45,6.45,0,0,1-3.48,1.44c-1.77,0-2.8-1.66-3.11-5a15.65,15.65,0,0,1-.1-1.85,32.86,32.86,0,0,1,3-13.38c2.18-5,4.83-8,8-8.91a7.55,7.55,0,0,1,1.94-.26,5.53,5.53,0,0,1,2.35.62Q158.77,58.22,156.68,65.19Z"/><path class="cls-1" d="M291,1.38A33.21,33.21,0,0,0,281,0,55.27,55.27,0,0,0,271,.87a4.22,4.22,0,0,0-4,2.4A5.17,5.17,0,0,0,266.48,5q-9.3,70-9.3,70.33a4.78,4.78,0,0,0,2.05,4.34,3.73,3.73,0,0,0,2.14.61c2.18,0,3.52-1.19,4-3.57l.1-.62,3.73-28.19q14.7-3.1,23.49-11.08a27.05,27.05,0,0,0,9.34-20.63Q302.07,4.91,291,1.38Zm3.42,15.22q0,10.62-10.57,17.11a35.7,35.7,0,0,1-13.48,4.95q3.52-27.58,3.83-30.49a49.8,49.8,0,0,1,7.05-.51q12.7,0,13.17,8.38Z"/><path class="cls-1" d="M346.81,30.59a3.87,3.87,0,0,0,1.74.41,3.46,3.46,0,0,0,3.32-2,3.9,3.9,0,0,0,.41-1.74,3.47,3.47,0,0,0-2-3.32,3.83,3.83,0,0,0-1.73-.41,3.46,3.46,0,0,0-3.32,2,3.83,3.83,0,0,0-.41,1.73A3.46,3.46,0,0,0,346.81,30.59Z"/><path class="cls-1" d="M572.89,37.54a18.83,18.83,0,0,0-3.39-.31A3.92,3.92,0,0,0,565.75,40q-1.17,4.86-2,9.06-.19,1-.63,2.82-4.52,17.78-9.59,20.48a4,4,0,0,1-2,.57c-1.7,0-3-1-3.83-3.13a15.6,15.6,0,0,1-.86-5.59q0-2.61.8-17.14c0-.73.07-1.33.1-1.8a21.47,21.47,0,0,0,.21-3q-.06-4.84-3-4.9-3.33,0-3.88,3.86c0,.36-.07.76-.1,1.19Q539,72.11,530.15,72.21q-5.35-.09-5.36-10.88a124.06,124.06,0,0,1,1.79-16.58,35.42,35.42,0,0,0,.46-3.81q-.1-3.81-3.42-3.86c-2.25,0-3.88,2-4.91,6.07a3.61,3.61,0,0,1-.1.46,75.66,75.66,0,0,0-1.79,15.68V60a42.49,42.49,0,0,0,.9,9.34,3.32,3.32,0,0,0-1.05-1.11,2.91,2.91,0,0,0-1.48-.45q-1.53,0-4.7,2.06A15.63,15.63,0,0,1,505.38,72c-1.73,0-3.08-1.23-4-3.68a24.35,24.35,0,0,1-1.28-8.68,55.49,55.49,0,0,1,2.71-15.58,7.12,7.12,0,0,0,.31-1.53c0-.57-.5-1.16-1.48-1.77a5.74,5.74,0,0,0-2.9-.76c-.88,0-2.29.61-4.25,1.82a26.2,26.2,0,0,1-2.66,2c.07-.82.1-1.44.1-1.85,0-3.66-1.15-6.41-3.47-8.22a8.47,8.47,0,0,0-5.34-1.7q-5.13,0-7.48,3.84a7.87,7.87,0,0,0-1.17,4.14q0,6.54,5.41,9.56a3,3,0,0,0,.51.25,19.28,19.28,0,0,1-10.59,3.41,31.76,31.76,0,0,0,.73-6.44,9.29,9.29,0,0,0-3.6-7.76A10,10,0,0,0,460.52,37,8.88,8.88,0,0,0,454,39.8a8.2,8.2,0,0,0-2.47,5.92,12.67,12.67,0,0,0,5.19,10.34,16.84,16.84,0,0,0,4.18,2.42q-3.88,9.2-10,12.32a12.56,12.56,0,0,1-5.65,1.36q-9.33,0-12.94-17.29-.62-2.86-1-6.12a66.11,66.11,0,0,0,12.12-13.49q9-12.93,9-23.36,0-9.71-8.83-10.27c-.38,0-.73,0-1.07,0q-9.71,0-15.07,14.44A64.24,64.24,0,0,0,424.79,25a4.05,4.05,0,0,0-.81-.65,5,5,0,0,0-2.4-.56h-5.36q2.4-16,2.4-17.22,0-3.87-2.45-4.44A7.81,7.81,0,0,0,415,2c-2,0-3.25,1.13-3.89,3.37A18.18,18.18,0,0,0,410.57,8L408.3,23.75c-1.53,0-3.25,0-5.16-.1h-.51c-1.94,0-3.22.72-3.83,2.15a4.67,4.67,0,0,0-.31,1.7c0,2.26,1.18,3.5,3.53,3.7h5.21q-4,32.38-4,33.86a23.44,23.44,0,0,0,.26,3.53,14.42,14.42,0,0,0-2.76,1.63,13.09,13.09,0,0,1-4.39,2.45,5.74,5.74,0,0,1-1,.11c-1.74,0-3.08-1.3-4-3.91q-.15-.45-.3-.87-.62-1.84-.62-12.32,0-3.07.05-8.29c0-1.53.05-2.5.05-2.91a7.2,7.2,0,0,0-3.11-6.08,7.85,7.85,0,0,0-4.6-1.48q-7,0-10.77,6.69a2.76,2.76,0,0,0-.26.41c0-.34,0-.81.05-1.43.07-.92.1-1.56.1-1.94q0-3.88-2.34-4.44a6.17,6.17,0,0,0-1.13-.1q-3.06,0-4,4.39c-.1.51-.19,1-.26,1.63L360.6,68.82a15.79,15.79,0,0,0-1.84,1.2,14.22,14.22,0,0,1-4.29,2.4,5.76,5.76,0,0,1-1.07.1q-2.4,0-3.83-3.06a10.11,10.11,0,0,1-1-4.4q0-3.53,1.47-18,.46-4.9.47-6.39,0-3.88-2.32-4.44a6,6,0,0,0-1.11-.1c-2.22,0-3.59,1.7-4.13,5.1,0,.31-.07.62-.1.92q-.25,2.2-.87,6.85a121.14,121.14,0,0,0-1.38,13.38,34.17,34.17,0,0,0,.55,6.36,2.24,2.24,0,0,0-.85-.18q-1.69,0-4.5,2a13.48,13.48,0,0,1-4.39,2.35,4.84,4.84,0,0,1-1,.1q-2.36,0-3.78-3.06a10.11,10.11,0,0,1-1-4.4q0-3.51,1.58-18,.51-4.9.51-6.39,0-3.61-2.19-4.34a3.23,3.23,0,0,0-1.28-.15A3.59,3.59,0,0,0,321.53,38a12.09,12.09,0,0,0-5.72-1.28q-7.6,0-13,8.27a36.1,36.1,0,0,0-5.52,15.58c-.13,1.29-.2,2.52-.2,3.68q0,10.81,5.16,14.6a9.64,9.64,0,0,0,5.67,1.69q5.21,0,10.26-4.75A18.55,18.55,0,0,0,319.79,74q3.07,6.44,9.5,6.49a16.84,16.84,0,0,0,9.86-3.27,11.4,11.4,0,0,0,3.51-3.74A13.3,13.3,0,0,0,345,77a9.58,9.58,0,0,0,7.22,3,16.45,16.45,0,0,0,8.13-2.2,3.68,3.68,0,0,0,1.88,1.94,3.2,3.2,0,0,0,1.23.26,4.31,4.31,0,0,0,3.68-2.42,8.16,8.16,0,0,0,1-3.32l.1-1.46a75.18,75.18,0,0,1,5.11-15.44q4.55-10.55,7.45-11.63a1.67,1.67,0,0,1,.51-.1q1.23.15,1.23,5.61c0,1.13,0,2.52-.1,4.19s-.05,2.76-.05,3.47q0,14.87,5.46,19.26a10.18,10.18,0,0,0,6.49,2.09,16.71,16.71,0,0,0,9.44-3.17,19.49,19.49,0,0,0,2.07-1.77c.2.32.41.65.64,1a10.15,10.15,0,0,0,8.27,4.24,16.42,16.42,0,0,0,9.76-3.32q3.78-2.86,3.93-5.52a3,3,0,0,0-1.84-2.81,3.3,3.3,0,0,0-1.38-.3c-1.12,0-2.52.66-4.18,2a12.77,12.77,0,0,1-3.94,2.35,4.94,4.94,0,0,1-1.17.15q-2.36,0-3.78-3.06a10.11,10.11,0,0,1-1-4.4q0-3.72,4-34.37h6.36a5,5,0,0,0,2.33-.51c-.21,1.64-.38,3.31-.49,5-.07.89-.11,1.62-.11,2.2q0,15,4.05,26,5.88,15.7,18.57,15.76,9.12,0,16.13-8.9A41.17,41.17,0,0,0,467.89,60q11.06,0,17.9-5.64a16.09,16.09,0,0,0,2.91-3.09,14.66,14.66,0,0,0,5-1.47,64.85,64.85,0,0,0-1.05,11.34q0,15.62,8.58,18a11.68,11.68,0,0,0,3.11.41,16.57,16.57,0,0,0,9.76-3.27c2.55-2,3.87-3.84,4-5.68,1.42,5,4.07,8.09,8,9.15a12.57,12.57,0,0,0,3.22.41q7.86,0,12.3-5.44a9.4,9.4,0,0,0,9,5.64q7,0,11.74-6a17.94,17.94,0,0,0,2.29-3.7,93.77,93.77,0,0,0,5.5-17.23q1.42-6.27,1.94-8.27c1.64.07,3.44,1.12,5.42,3.15a17.6,17.6,0,0,1,5.15,11.37c0,.48,0,.94,0,1.39a23.37,23.37,0,0,1-3.77,12l-.57,1.09a4,4,0,0,0-.25,1.36,4,4,0,0,0,1.12,2.72,2.73,2.73,0,0,0,2.1,1q3.81,0,6.57-6.24a29.62,29.62,0,0,0,2.46-11.08,27.21,27.21,0,0,0-4.6-15.48Q580.74,39,572.89,37.54ZM319.54,47.39A107.09,107.09,0,0,1,317,62a23.72,23.72,0,0,1-1.79,5.67,15.12,15.12,0,0,1-3.42,3.16,7.47,7.47,0,0,1-3.88,1.74q-3,0-3.17-6.23v-.51a33.43,33.43,0,0,1,2.91-13.43q3.27-7.45,8-8.79a7.33,7.33,0,0,1,1.89-.25,5.27,5.27,0,0,1,2.35.56Zm112-15.69q1.53-11.74,4.13-17,2.74-5.43,6.82-5.49c1.25,0,2.15.76,2.69,2.28a2.93,2.93,0,0,1,.21,1q0,7.92-8.09,19.36a69.15,69.15,0,0,1-6.42,7.81A65.72,65.72,0,0,1,431.53,31.7Zm31.31,20.65c-2.45-1.39-3.87-3-4.29-5a4.44,4.44,0,0,1-.1-.82,2.19,2.19,0,0,1,1.6-2.18,2.84,2.84,0,0,1,1.08-.2c1.62,0,2.43,1.1,2.43,3.2A21.54,21.54,0,0,1,462.84,52.35Zm21.55-7.72q-3.72-1.2-3.77-3.94A1.76,1.76,0,0,1,482,38.81a2.94,2.94,0,0,1,.51-.05c1.16,0,1.89.68,2.2,2a5.57,5.57,0,0,1,.15,1.3A7.23,7.23,0,0,1,484.39,44.63Z"/><path class="cls-1" d="M641.54,68.94a2.5,2.5,0,0,0-1.23-.35c-1.12,0-2.62.69-4.49,2.09a14.67,14.67,0,0,1-4.34,2.45,6,6,0,0,1-1.08.1q-2.55,0-4.08-4c-.1-.27-.19-.53-.26-.77q-.55-1.69-.56-12.32,0-3.08,0-8.34V44.89a7.1,7.1,0,0,0-3-6,7.2,7.2,0,0,0-4.48-1.59c-4.51,0-8,2.3-10.41,6.78q3.54-33,3.53-37.41c0-2.39-.65-3.82-1.93-4.3a5.44,5.44,0,0,0-1.53-.2q-3.46,0-4.23,6l-8.68,66.41v.8q0,3.74,2.68,4.75a3.79,3.79,0,0,0,1.35.25,4.62,4.62,0,0,0,4-2.36c.15-1,.25-.12.27,2.67a41.71,41.71,0,0,1,1-7.57,77.5,77.5,0,0,1,4.8-15.52q4.27-10.35,7-11.48a1.57,1.57,0,0,1,.53-.11c.84.07,1.26,2.63,1.26,7.66,0,1.2,0,2.86-.15,5-.07,1.8-.11,3.13-.11,4q0,15.07,8.53,17.57a12.67,12.67,0,0,0,3.48.46,16.81,16.81,0,0,0,9.39-3.17q3.89-2.65,4.24-5.1a2.63,2.63,0,0,0,0-.41A3.31,3.31,0,0,0,641.54,68.94Z"/></g></g></svg>