<svg xmlns="http://www.w3.org/2000/svg" viewBox="0 0 133.24 149.85"><defs><style>.cls-1{fill:#2e2e3a;}</style></defs><title>Asset 1</title><g id="Layer_2" data-name="Layer 2"><g id="Layer_1-2" data-name="Layer 1"><circle class="cls-1" cx="29.03" cy="51.97" r="17"/><circle class="cls-1" cx="110" cy="54.76" r="17"/><path class="cls-1" d="M2.25,79.34a2,2,0,0,0-2.25,2c.05,11.54,3.4,63.27,59.12,68.15,55.46,4.85,70.67-40.85,73.45-51.55a2,2,0,0,0-1.68-2.48Z"/><path class="cls-1" d="M130.74,36.42a2.51,2.51,0,0,1-2.43-1.91c0-.11-2.14-8.39-9.06-12.12-4.53-2.45-10.24-2.49-17-.11a2.5,2.5,0,1,1-1.67-4.71c8.13-2.88,15.22-2.73,21,.44,8.9,4.84,11.4,14.9,11.5,15.32a2.5,2.5,0,0,1-1.84,3A3.06,3.06,0,0,1,130.74,36.42Z"/><path class="cls-1" d="M7.82,16.13a2.41,2.41,0,0,1-1.21-.32,2.49,2.49,0,0,1-1-3.39C5.87,12,11.37,2.33,21.34.35c6.12-1.21,12.43.72,18.77,5.74A2.5,2.5,0,1,1,37,10C31.88,6,26.94,4.35,22.34,5.25,14.65,6.76,10.05,14.78,10,14.86A2.51,2.51,0,0,1,7.82,16.13Z"/></g></g></svg>
