<svg id="logo" xmlns="http://www.w3.org/2000/svg" viewBox="0 0 264.022 110.134">
  <defs>
    <style>
      .cls-1 {
        fill: #211038;
      }

      .cls-2 {
        fill: #ff4317;
      }
    </style>
  </defs>
  <g id="Group_26" data-name="Group 26" transform="translate(0 4.855)">
    <path id="Path_36" data-name="Path 36" class="cls-1" d="M79.883,88.573h0a13.156,13.156,0,0,0,7.091-1.746L83.7,94.792a13.487,13.487,0,0,1-12.11,7.419,15.3,15.3,0,0,1-9.164-3.164.778.778,0,0,1-.327-.655.4.4,0,0,1,.109-.327L70.828,85.3a10.986,10.986,0,0,0,6.437,2.946A12.229,12.229,0,0,0,79.883,88.573Z" transform="translate(5.652 3.069)"/>
    <path id="Path_37" data-name="Path 37" class="cls-1" d="M68.438,75.2h0a7.2,7.2,0,0,0,.109,1.527c.109,1.091.109,2.182.327,3.273a13.671,13.671,0,0,0,3.818,6.982C70.184,87.747,57.092,92,54.91,92c-5.564,0-11.237-3.382-14.4-9.382a.711.711,0,0,1,.218-.982L69.42,66.8C68.548,73.128,68.329,74.764,68.438,75.2Z" transform="translate(3.678 1.386)"/>
    <path id="Path_38" data-name="Path 38" class="cls-1" d="M71.351,67.056c0,.327-.109.655-.109.982L40.8,72.729a18.829,18.829,0,0,1-4.146.545A16.509,16.509,0,0,1,20.73,60.946l-.327-1.2c-.109-.327.109-.764.436-.764L73.969,50.8a4.725,4.725,0,0,1-.109.545C72.878,56.037,71.9,63.237,71.351,67.056Z" transform="translate(1.856 -0.07)"/>
    <path id="Path_39" data-name="Path 39" class="cls-1" d="M5.145,32l73.532,6.437c-1.091,3.6-1.855,7.419-2.618,11.019L75.4,52.4,20.637,50H20.31C12.019,50,5.036,42.364,4.6,32.764h0C4.6,32.327,4.818,32,5.145,32Z" transform="translate(0.421 -1.78)"/>
    <path id="Path_40" data-name="Path 40" class="cls-1" d="M86.078,26.338A44.571,44.571,0,0,0,79.1,40.848l-66.441-15.6C4.364,23.61-1.2,14.446.218,4.845A.611.611,0,0,1,.873,4.3H.982l92.3,17.456A15.79,15.79,0,0,0,86.078,26.338Z" transform="translate(0.002 -4.3)"/>
  </g>
  <g id="Group_27" data-name="Group 27" transform="translate(170.74 4.855)">
    <path id="Path_41" data-name="Path 41" class="cls-1" d="M164.291,88.573h0a13.156,13.156,0,0,1-7.091-1.746l3.273,7.964a13.487,13.487,0,0,0,12.11,7.419,15.3,15.3,0,0,0,9.164-3.164.778.778,0,0,0,.327-.655.4.4,0,0,0-.109-.327L173.346,85.3a10.986,10.986,0,0,1-6.437,2.946A12.229,12.229,0,0,1,164.291,88.573Z" transform="translate(-156.436 3.069)"/>
    <path id="Path_42" data-name="Path 42" class="cls-1" d="M176.355,75.2h0a7.2,7.2,0,0,1-.109,1.527c-.109,1.091-.109,2.182-.327,3.273a13.671,13.671,0,0,1-3.818,6.982c2.509.764,15.6,5.018,17.783,5.018,5.564,0,11.237-3.382,14.4-9.382a.711.711,0,0,0-.218-.982L175.373,66.8C176.246,73.128,176.355,74.764,176.355,75.2Z" transform="translate(-155.081 1.386)"/>
    <path id="Path_43" data-name="Path 43" class="cls-1" d="M175.218,67.065c0,.327.109.655.109.982l30.438,4.691a18.829,18.829,0,0,0,4.146.545A16.509,16.509,0,0,0,225.84,60.955l.327-1.309c.109-.327-.109-.764-.436-.764L172.6,50.7a4.726,4.726,0,0,0,.109.545C173.691,56.046,174.673,63.246,175.218,67.065Z" transform="translate(-155.035 -0.079)"/>
    <path id="Path_44" data-name="Path 44" class="cls-1" d="M243.032,32,169.5,38.437c1.091,3.6,1.855,7.419,2.618,11.019l.655,2.946L227.54,50h.327c8.291,0,15.274-7.637,15.71-17.237h0A.594.594,0,0,0,243.032,32Z" transform="translate(-155.317 -1.78)"/>
    <path id="Path_45" data-name="Path 45" class="cls-1" d="M163.7,26.338a44.569,44.569,0,0,1,6.982,14.51l66.441-15.6c8.291-1.636,13.855-10.8,12.437-20.4a.611.611,0,0,0-.655-.545H248.8L156.5,21.756A14.712,14.712,0,0,1,163.7,26.338Z" transform="translate(-156.5 -4.3)"/>
  </g>
  <g id="Group_32" data-name="Group 32" transform="translate(85.317 32.784)">
    <path id="Path_47" data-name="Path 47" class="cls-1" d="M95.983,38.282H90.528a.746.746,0,0,1-.764-.764V32.064A.746.746,0,0,0,89,31.3H85.946a.746.746,0,0,0-.764.764v5.455a.746.746,0,0,1-.764.764H78.964a.746.746,0,0,0-.764.764V42.1a.746.746,0,0,0,.764.764h5.455a.746.746,0,0,1,.764.764v5.455a.746.746,0,0,0,.764.764h2.946a.746.746,0,0,0,.764-.764V43.628a.746.746,0,0,1,.764-.764h5.455a.746.746,0,0,0,.764-.764V39.046A.614.614,0,0,0,95.983,38.282Z" transform="translate(-78.2 -29.773)"/>
    <g id="Group_30" data-name="Group 30" transform="translate(69.604)">
      <g id="Group_28" data-name="Group 28" transform="translate(8.401)">
        <circle id="Ellipse_4" data-name="Ellipse 4" class="cls-1" cx="3.6" cy="3.6" r="3.6" transform="translate(0 16.801)"/>
        <circle id="Ellipse_5" data-name="Ellipse 5" class="cls-1" cx="3.6" cy="3.6" r="3.6"/>
      </g>
      <g id="Group_29" data-name="Group 29" transform="translate(0 8.401)">
        <circle id="Ellipse_6" data-name="Ellipse 6" class="cls-1" cx="3.6" cy="3.6" r="3.6"/>
        <circle id="Ellipse_7" data-name="Ellipse 7" class="cls-1" cx="3.6" cy="3.6" r="3.6" transform="translate(16.801)"/>
      </g>
    </g>
    <g id="Group_31" data-name="Group 31" transform="translate(20.838 22.474)">
      <circle id="Ellipse_8" data-name="Ellipse 8" class="cls-1" cx="6.546" cy="6.546" r="6.546"/>
      <circle id="Ellipse_9" data-name="Ellipse 9" class="cls-1" cx="6.546" cy="6.546" r="6.546" transform="translate(37.093)"/>
    </g>
  </g>
  <path id="Path_48" data-name="Path 48" class="cls-2" d="M140.848,22.488h0V22.27L137.466,5.578c-.109-.327-.436-.327-.546-.109L133.1,13.542a.309.309,0,0,1-.545,0L122.847.014a.309.309,0,0,0-.545,0l-9.71,13.528a.309.309,0,0,1-.545,0l-3.818-8.073c-.109-.327-.436-.218-.545.109L104.3,22.27h0v.218h0c.109,2.291,8.291,4.255,18.328,4.255,10.037.109,18.219-1.746,18.219-4.255Z" transform="translate(9.491 0.15)"/>
</svg>
